SplineFontDB: 3.0
FontName: LinBiolinumSlantedO
FullName: Linux Biolinum Slanted O
FamilyName: Linux Biolinum Slanted O
Weight: Book
Copyright: Linux Libertine by Philipp H. Poll,\nOpen Font under Terms of following Free Software Licenses:\nGPL (General Public License) with font-exception and OFL (Open Font License).\nCreated with FontForge (http://fontforge.sf.net)\nSept 2003, 2004, 2005, 2006, 2007, 2008, 2009
UComments: "2003-08-29: Created.+AAoA-2004-07-25: v(1.0) release candidate+AAoA-2005-12-28: v(1.1.0) stable+AAoA-2006-01-01: v(2.0.0) stable+AAoA-2006-09-05: v(2.2.0) stable+AAoA-2006-12-04: v(2.3.0) stable+AAoA-2007-03-11: v(2.4.0) stable+AAoA-2007-12-00: v(2.7.0) stable+AAoA-2008-06-00: v(2.8.14) stable+AAoA" 
Version: 0.4.8
ItalicAngle: 0
UnderlinePosition: -98
UnderlineWidth: 40
Ascent: 754
Descent: 246
LayerCount: 2
Layer: 0 0 "Back"  1
Layer: 1 0 "Fore"  0
NeedsXUIDChange: 1
XUID: [1021 993 1524925707 2876416]
FSType: 0
OS2Version: 0
OS2_WeightWidthSlopeOnly: 0
OS2_UseTypoMetrics: 0
CreationTime: 1156455862
ModificationTime: 1259491210
PfmFamily: 17
TTFWeight: 400
TTFWidth: 5
LineGap: 0
VLineGap: 0
OS2TypoAscent: 894
OS2TypoAOffset: 0
OS2TypoDescent: -246
OS2TypoDOffset: 0
OS2TypoLinegap: 0
OS2WinAscent: 894
OS2WinAOffset: 0
OS2WinDescent: 246
OS2WinDOffset: 0
HheadAscent: 894
HheadAOffset: 0
HheadDescent: -246
HheadDOffset: 0
OS2FamilyClass: 261
OS2Vendor: 'PfEd'
Lookup: 3 0 0 "'aalt' Alle Alternativen zeigen"  {"'aalt' Alle Alternativen zeigen 1"  } ['aalt' ('DFLT' <'dflt' > 'cyrl' <'dflt' > 'grek' <'dflt' > 'latn' <'AZE ' 'CRT ' 'DEU ' 'MOL ' 'ROM ' 'TRK ' 'dflt' > ) ]
Lookup: 1 0 0 "'locl' Localized Forms Romaenisch"  {"'locl' Localized Forms Romaenisch 1"  } ['locl' ('latn' <'MOL ' 'ROM ' > ) ]
Lookup: 1 0 0 "'smcp' Gemeine nach Kapitaelchen i > i.sc"  {"'smcp' Gemeine nach Kapitaelchen i > i.sc 1"  } ['smcp' ('DFLT' <'dflt' > 'cyrl' <'dflt' > 'grek' <'dflt' > 'latn' <'DEU ' 'MOL ' 'ROM ' 'dflt' > ) ]

StartChar: exclam
Encoding: 33 33 0
Width: 228
VWidth: 999
Flags: HW
HStem: -10 112<76.3677 150.353> 638 20G<102 126.5>
VStem: 57 112<6.28114 82.4613> 59 110<425.857 643.461>
LayerCount: 2
Fore
SplineSet
252.862 658 m 0
 279.862 658 303.974 635 293.346 585 c 0
 279.529 520 254.802 478 226.322 392 c 0
 190.566 284 176.612 224 171.637 210 c 0
 168.299 199 163.386 190 153.386 190 c 0
 142.386 190 141.874 197 142.149 203 c 0
 144.612 224 158.743 314 167.322 392 c 0
 177.027 480 168.467 515 183.346 585 c 0
 194.823 639 230.862 658 252.862 658 c 0
66.3525 44 m 1
 67.2031 48 l 1
 82.0352 74.5 99.8877 89.7998 132.681 102 c 1
 136.681 102 l 1
 163.449 91.5 175.997 76.2002 179.203 48 c 1
 178.353 44 l 1
 161.309 11.7998 142.562 -3 112.874 -10 c 1
 108.874 -10 l 1
 79.1621 -3 68.0322 10.5 66.3525 44 c 1
EndSplineSet
Colour: ff80cc
EndChar

StartChar: quotedbl
Encoding: 34 34 1
Width: 336
VWidth: 999
Flags: HW
HStem: 426 218<85.8119 118.678> 427 218<211.812 244.678>
VStem: 63 86<487.695 633.98> 189 86<488.695 634.98>
LayerCount: 2
Fore
SplineSet
305.762 427 m 1
 305.762 427 313.559 586 315.471 595 c 0
 320.147 617 347.099 645 377.099 645 c 0
 403.099 645 408.485 628 405.085 612 c 0
 401.684 596 333.612 431 333.612 431 c 1
 305.762 427 l 1
179.549 426 m 1
 179.549 426 187.346 585 189.259 594 c 0
 193.935 616 220.887 644 250.887 644 c 0
 276.887 644 282.273 627 278.872 611 c 0
 275.471 595 207.399 430 207.399 430 c 1
 179.549 426 l 1
EndSplineSet
Colour: ff00ff
EndChar

StartChar: numbersign
Encoding: 35 35 2
Width: 440
VWidth: 487
Flags: HW
HStem: 183 48<32 115 156 258 299 382> 341 49<58 140 181 284 324 407>
DStem2: 88 13 121 13 0.158835 0.987305<5.24156 172.13 226.033 332.095 386.986 553.875> 232 13 265 13 0.155313 0.987865<5.12534 171.975 225.761 332.096 386.714 553.719>
LayerCount: 2
Fore
SplineSet
316.101 231 m 1
 356.481 341 l 1
 246.481 341 l 1
 205.101 231 l 1
 316.101 231 l 1
389.481 341 m 1
 348.101 231 l 1
 438.101 231 l 1
 420.897 183 l 1
 331.897 183 l 1
 267.764 13 l 1
 234.764 13 l 1
 296.897 183 l 1
 187.897 183 l 1
 123.764 13 l 1
 90.7637 13 l 1
 153.897 183 l 1
 63.8975 183 l 1
 81.1006 231 l 1
 172.101 231 l 1
 212.481 341 l 1
 122.481 341 l 1
 140.897 390 l 1
 230.897 390 l 1
 294.031 560 l 1
 328.031 560 l 1
 263.897 390 l 1
 374.897 390 l 1
 437.031 560 l 1
 470.031 560 l 1
 406.897 390 l 1
 497.897 390 l 1
 479.481 341 l 1
 389.481 341 l 1
EndSplineSet
EndChar

StartChar: dollar
Encoding: 36 36 3
Width: 440
VWidth: 999
Flags: HW
HStem: -10 38<125.719 268.749> 537 35<147.385 268.858>
VStem: 47 64<387.28 494.938> 198 34<-81 627> 316 74<90.1876 201.177>
LayerCount: 2
Fore
SplineSet
203.951 28 m 1
 252.733 257.5 l 1
 184.959 288.2 117.271 330.6 136.699 422 c 0
 155.063 508.4 245.573 564.9 319.455 571.4 c 1
 331.273 627 l 1
 365.273 627 l 1
 353.477 571.5 l 1
 443.119 567 467.293 533 467.293 533 c 1
 468.655 530 l 1
 455.129 504 443.602 478 434.013 447 c 1
 424.8 446 l 1
 414.271 491.5 390.471 524.9 345.569 534.3 c 1
 301.549 327.2 l 1
 368.001 301.1 445.413 260.7 424.435 162 c 0
 408.131 85.2998 319.163 13 230.831 -5.5 c 1
 214.783 -81 l 1
 180.783 -81 l 1
 195.896 -9.90039 l 1
 193.574 -10 191.175 -10 188.874 -10 c 0
 82.874 -10 40.377 30 40.377 30 c 1
 39.0146 33 l 1
 51.541 59 64.4922 87 75.082 118 c 1
 83.2939 119 l 1
 96.7803 65.2998 141.437 28.4004 203.951 28 c 1
270.418 340.7 m 1
 312.122 536.9 l 1
 258.069 534.3 216.449 496.1 205.588 445 c 0
 193.621 388.7 235.416 358.1 270.418 340.7 c 1
283.8 243.7 m 1
 238.717 31.5996 l 1
 286.785 41.7998 331.771 74.2002 343.845 131 c 0
 358.341 199.2 325.276 224.3 283.8 243.7 c 1
EndSplineSet
EndChar

StartChar: percent
Encoding: 37 37 4
Width: 637
VWidth: 999
Flags: HW
HStem: -12 29<446.826 512.932> 225 31<488.229 553.742> 303 29<126.123 191.163> 484 37<279.857 459.046> 540 31<166.506 233.537>
VStem: 59 51<340.095 479.734> 246 31<405.445 504.773> 380 52<24.9702 164.687> 568 30<93.569 210.69>
DStem2: 102 3 136 -12 0.584454 0.811427<7.70004 615.532 651.531 704.931>
LayerCount: 2
Fore
SplineSet
449.643 83 m 0
 438.589 31 461.613 17 480.613 17 c 0
 535.613 17 590.956 108 602.859 164 c 0
 613.912 216 584.825 225 570.825 225 c 0
 521.825 225 461.971 141 449.643 83 c 0
400.83 98 m 0
 416.772 173 492.414 256 566.414 256 c 0
 606.414 256 648.589 238 633.072 165 c 0
 618.83 98 551.449 -12 468.449 -12 c 0
 407.449 -12 389.565 45 400.83 98 c 0
474.742 521 m 0
 516.742 521 596.293 533 636.22 575 c 1
 664.819 559 l 1
 133.449 -12 l 1
 102.638 3 l 1
 567.916 503 l 1
 526.728 488 486.877 484 456.877 484 c 0
 433.877 484 398.003 494 381.341 505 c 1
 381.854 498 380.94 489 379.027 480 c 0
 365.424 416 297.404 303 213.404 303 c 0
 151.404 303 135.732 361 146.573 412 c 0
 162.94 489 239.37 571 311.37 571 c 0
 339.37 571 365.606 558 373.056 546 c 1
 421.742 521 456.742 521 474.742 521 c 0
194.598 398 m 0
 183.545 346 207.568 332 225.568 332 c 0
 280.568 332 335.486 421 347.814 479 c 0
 358.442 529 333.78 540 315.78 540 c 0
 266.78 540 206.926 456 194.598 398 c 0
EndSplineSet
EndChar

StartChar: parenleft
Encoding: 40 40 5
Width: 300
VWidth: 999
Flags: HW
VStem: 44 78<97.6984 405.148>
LayerCount: 2
Fore
SplineSet
97.5645 252 m 0
 137.1 438 265.597 605 406.277 707 c 1
 425.451 689 l 1
 385.8 653 236.467 515 180.564 252 c 0
 124.662 -11 214.329 -149 239.252 -187 c 1
 212.639 -204 l 1
 42.8984 -24 87.999 207 97.5645 252 c 0
EndSplineSet
Substitution2: "'c2sc' Versale nach Kapitaelchen 1" parenleft.sc
AlternateSubs2: "'aalt' Alle Alternativen zeigen 1" parenleft.sc
Substitution2: "'sinf' Wissenschaftliche Indices 1" parenleft.inferior
Substitution2: "'sups' Hochgestellte 1" parenleft.superior
Substitution2: "'case' Versalformen 1" parenleft.sc
EndChar

StartChar: parenright
Encoding: 41 41 6
Width: 300
VWidth: 999
Flags: HW
VStem: 178 78<98.8522 406.302>
LayerCount: 2
Fore
SplineSet
309.564 252 m 0
 270.028 66 141.532 -101 0.850586 -203 c 1
 -18.3232 -185 l 1
 21.3291 -149 170.662 -11 226.564 252 c 0
 282.467 515 192.8 653 167.877 691 c 1
 194.49 708 l 1
 364.229 528 319.129 297 309.564 252 c 0
EndSplineSet
Substitution2: "'c2sc' Versale nach Kapitaelchen 1" parenright.sc
AlternateSubs2: "'aalt' Alle Alternativen zeigen 1" parenright.sc
Substitution2: "'sinf' Wissenschaftliche Indices 1" parenright.inferior
Substitution2: "'sups' Hochgestellte 1" parenright.superior
Substitution2: "'case' Versalformen 1" parenright.sc
Colour: ff00ff
EndChar

StartChar: asterisk
Encoding: 42 42 7
Width: 433
VWidth: 999
Flags: HMW
LayerCount: 2
Fore
SplineSet
318.52 567 m 1
 306.157 570 292.37 571 277.37 571 c 0
 228.37 571 197.857 578 204.234 608 c 0
 207.21 622 219.611 638 243.611 638 c 0
 277.611 638 288.597 605 328.771 587 c 1
 333.061 626 319.8 653 325.326 679 c 0
 329.79 700 345.615 718 363.615 718 c 0
 381.615 718 394.277 707 389.176 683 c 0
 383.438 656 357.935 616 349.559 586 c 1
 399.81 606 422.611 638 455.611 638 c 0
 482.611 638 485.36 618 483.234 608 c 0
 476.857 578 440.37 571 406.37 571 c 0
 387.37 571 369.157 570 350.52 567 c 1
 376.655 530 423.529 520 415.027 480 c 0
 411.201 462 393.863 451 379.863 451 c 0
 340.863 451 347.679 516 330.969 555 c 1
 296.404 510 276.863 451 238.863 451 c 0
 221.863 451 212.626 464 215.814 479 c 0
 224.954 522 277.655 530 318.52 567 c 1
EndSplineSet
EndChar

StartChar: plus
Encoding: 43 43 8
Width: 527
VWidth: 999
Flags: HMW
HStem: 208 49<66 238 289 461>
VStem: 238 51<34 208 257 431>
LayerCount: 2
Fore
SplineSet
343.627 257 m 1
 515.627 257 l 1
 505.212 208 l 1
 333.212 208 l 1
 296.227 34 l 1
 245.227 34 l 1
 282.212 208 l 1
 110.212 208 l 1
 120.627 257 l 1
 292.627 257 l 1
 329.612 431 l 1
 380.612 431 l 1
 343.627 257 l 1
EndSplineSet
AlternateSubs2: "'aalt' Alle Alternativen zeigen 1" plus.superior plus.inferior uni2098
Substitution2: "'sinf' Wissenschaftliche Indices 1" plus.inferior
Substitution2: "'sups' Hochgestellte 1" plus.superior
EndChar

StartChar: slash
Encoding: 47 47 9
Width: 323
VWidth: 999
Flags: HW
HStem: 626 20G<245.277 293>
VStem: 15 278
DStem2: 15 -59 56 -59 0.318647 0.947874<13.0645 743.77>
LayerCount: 2
Fore
SplineSet
430.312 646 m 1
 43.459 -59 l 1
 2.45898 -59 l 1
 389.312 646 l 1
 430.312 646 l 1
EndSplineSet
Ligature2: "'frac' Brueche 1" uni2215
AlternateSubs2: "'aalt' Alle Alternativen zeigen 1" uni2215
EndChar

StartChar: one
Encoding: 49 49 10
Width: 440
VWidth: 999
Flags: HW
HStem: -3 21G<230 277 277 323> 476 31<117.548 168.818> 558 20G<285 317.75>
VStem: 238 77<2.61911 480.813>
LayerCount: 2
Fore
SplineSet
353.048 179 m 2
 337.063 103.8 327.903 56 323 0 c 1
 320.362 -3 l 1
 320.362 -3 295.2 0 277 0 c 0
 259.9 0 230.362 -3 230.362 -3 c 1
 230 0 l 1
 247.479 54 260.318 105 276.048 179 c 2
 325.148 410 l 2
 332.375 444 339.952 482 323.452 482 c 0
 304.452 482 262.027 480 219.177 476 c 1
 223.767 507 l 1
 316.018 527 372.606 558 438.857 578 c 1
 442.357 578 444.815 577.8 443.795 573 c 0
 439.332 560 425.742 521 404.062 419 c 2
 353.048 179 l 2
EndSplineSet
AlternateSubs2: "'aalt' Alle Alternativen zeigen 1" one.oldstyle one.superior one.fitted
Substitution2: "'sups' Hochgestellte 1" one.superior
Substitution2: "'sinf' Wissenschaftliche Indices 1" one.inferior
Substitution2: "'pnum' Proportionalziffern 1" one.fitted
Substitution2: "'onum' Minuskelziffern 1" one.taboldstyle
EndChar

StartChar: two
Encoding: 50 50 11
Width: 440
VWidth: 487
Flags: HW
HStem: -4 79<145 388.969> 537 41<139.822 261.852>
VStem: 304 86<342.923 495.896>
DStem2: 158 194 209 176 0.718358 0.695673<-79.712 211.062>
LayerCount: 2
Fore
SplineSet
319.143 537 m 0
 273.143 537 225.829 512 182.926 456 c 1
 170.139 457 l 1
 163.954 522 l 1
 167.805 526 l 1
 196.269 547 267.857 578 335.857 578 c 0
 448.857 578 502.867 531 481.187 429 c 0
 465.883 357 425.961 320.2 360.965 268 c 2
 246.41 176 l 2
 199.375 138.2 164.13 90 160.941 75 c 1
 248.941 75 l 2
 343.941 75 355.792 79 411.643 83 c 1
 406.092 71 398.14 43 395.589 31 c 0
 393.039 19 392.7 8 393.149 -4 c 1
 322.787 -1 315 0 244 0 c 0
 172 0 123.575 -2 47.1494 -4 c 1
 47 0 l 1
 58.9033 56 86.043 99 199.236 194 c 1
 283.902 263 l 1
 352.019 320 378.395 350 395.399 430 c 0
 412.191 509 353.143 537 319.143 537 c 0
EndSplineSet
AlternateSubs2: "'aalt' Alle Alternativen zeigen 1" two.oldstyle two.superior two.fitted
Substitution2: "'sups' Hochgestellte 1" two.superior
Substitution2: "'sinf' Wissenschaftliche Indices 1" two.inferior
Substitution2: "'pnum' Proportionalziffern 1" two.fitted
Substitution2: "'onum' Minuskelziffern 1" two.taboldstyle
EndChar

StartChar: three
Encoding: 51 51 12
Width: 440
VWidth: 487
Flags: HW
HStem: -10 39<118.252 250.357> 287 33<145 181.572> 539 39<141.07 253.816>
VStem: 289 81<371.344 504.643> 306 88<86.5251 235.281>
LayerCount: 2
Fore
SplineSet
189.164 29 m 0
 118.064 29 113.241 67 94.1445 123 c 1
 80.9316 122 l 1
 44.9902 47 l 1
 47.1396 43 l 1
 66.6758 22 106.874 -10 178.874 -10 c 0
 277.874 -10 403.862 46.4004 430.348 171 c 0
 446.311 246.1 408.192 302 339.68 309 c 1
 340.317 312 l 1
 406.144 330 450.304 377.8 467.139 457 c 0
 481.21 523.2 415.958 578 335.857 578 c 0
 263.857 578 198.056 546 169.592 525 c 1
 165.742 521 l 1
 169.8 446 l 1
 182.588 445 l 1
 225.491 501 251.568 539 318.568 539 c 0
 355.668 539 396.129 504 382.95 442 c 0
 367.008 367 306.081 325 213.019 320 c 1
 206.004 287 l 1
 217.429 289 234.429 289 243.429 289 c 0
 297.429 289 358.289 246 341.71 168 c 0
 315.353 44 222.164 29 189.164 29 c 0
EndSplineSet
AlternateSubs2: "'aalt' Alle Alternativen zeigen 1" three.oldstyle three.superior three.fitted
Substitution2: "'sups' Hochgestellte 1" three.superior
Substitution2: "'sinf' Wissenschaftliche Indices 1" three.inferior
Substitution2: "'pnum' Proportionalziffern 1" three.fitted
Substitution2: "'onum' Minuskelziffern 1" three.taboldstyle
EndChar

StartChar: four
Encoding: 52 52 13
Width: 440
VWidth: 487
Flags: HMW
HStem: -3 21G<259 307 341.5 346.5> 140 52<96 266 343 415.957> 552 20G<274 307 341.39 346.5>
VStem: 266 77<2.22899 140 192 485>
DStem2: 50 196 96 192 0.501851 0.864954<19.6253 358.372>
LayerCount: 2
Fore
SplineSet
295.758 140 m 1
 122.758 140 l 2
 88.7578 140 68.8203 145 71.7969 159 c 0
 73.9219 169 78.0479 179 91.6611 196 c 0
 159.18 280.3 320.152 490 394.944 569 c 0
 395.157 570 396.582 572 396.582 572 c 1
 396.582 572 412.944 569 427.944 569 c 0
 441.845 569 458.383 572 467.582 572 c 0
 468.582 572 469.157 570 468.944 569 c 0
 457.254 514 445.665 483 433.975 428 c 0
 414.419 336 403.366 284 383.811 192 c 1
 406.811 192 445.811 192 445.811 192 c 2
 455.811 192 457.686 182 455.772 173 c 0
 453.435 162 434.758 140 421.758 140 c 2
 421.758 140 406.758 140 372.758 140 c 1
 361.067 85 359.69 55 348 0 c 0
 347.787 -1 346.362 -3 345.362 -3 c 0
 336.362 -3 322 0 307 0 c 0
 291.9 0 259.362 -3 259.362 -3 c 1
 259 0 l 1
 274.203 48 280.22 66.9004 295.758 140 c 1
369.09 485 m 1
 136.811 192 l 1
 306.811 192 l 1
 369.09 485 l 1
EndSplineSet
AlternateSubs2: "'aalt' Alle Alternativen zeigen 1" four.oldstyle four.superior four.fitted
Substitution2: "'sups' Hochgestellte 1" four.superior
Substitution2: "'sinf' Wissenschaftliche Indices 1" four.inferior
Substitution2: "'pnum' Proportionalziffern 1" four.fitted
Substitution2: "'onum' Minuskelziffern 1" four.taboldstyle
EndChar

StartChar: five
Encoding: 53 53 14
Width: 440
VWidth: 487
Flags: HMW
HStem: -10 39<128.252 250.808> 313 47<121.546 256.278> 505 63<139.884 352.798>
VStem: 301 82<91.5089 264.326>
DStem2: 67 290 121 345 0.112358 0.993668<60.7191 229.795>
LayerCount: 2
Fore
SplineSet
188.874 -10 m 0
 116.874 -10 76.6758 22 57.1396 43 c 1
 54.9902 47 l 1
 90.9316 122 l 1
 104.145 123 l 1
 123.241 67 128.064 29 199.164 29 c 0
 263.164 29 318.43 82 336.922 169 c 0
 358.815 272 320.53 313 258.53 313 c 0
 212.53 313 171.042 306 128.642 290 c 1
 220.795 573 l 1
 253.157 570 291.732 568 326.732 568 c 0
 376.732 568 429.582 572 484.857 578 c 1
 490.22 575 l 1
 461.404 510 l 1
 421.554 506 389.341 505 361.341 505 c 0
 316.341 505 283.191 509 249.042 513 c 1
 194.332 345 l 1
 217.032 353 254.521 360 293.521 360 c 0
 399.521 360 442.091 278 422.535 186 c 0
 398.729 74 301.874 -10 188.874 -10 c 0
EndSplineSet
AlternateSubs2: "'aalt' Alle Alternativen zeigen 1" five.oldstyle five.superior five.fitted
Substitution2: "'sups' Hochgestellte 1" five.superior
Substitution2: "'sinf' Wissenschaftliche Indices 1" five.inferior
Substitution2: "'pnum' Proportionalziffern 1" five.fitted
Substitution2: "'onum' Minuskelziffern 1" five.taboldstyle
EndChar

StartChar: six
Encoding: 54 54 15
Width: 440
VWidth: 487
Flags: HW
HStem: -10 34<186.729 285.73> 303 36<169.149 275.391> 552 26<309.619 376.808>
VStem: 44 80<101.897 306.795> 326 79<79.8432 254.373>
LayerCount: 2
Fore
SplineSet
180.689 262 m 1
 177.564 252 174.376 237 172.25 227 c 0
 136.541 59 196.102 24 246.102 24 c 0
 292.102 24 338.753 60 360.859 164 c 0
 370.85 211 376.404 303 280.404 303 c 0
 259.404 303 225.767 300 180.689 262 c 1
496.331 552 m 1
 430.056 546 370.442 529 312.452 482 c 0
 256.887 437 217.646 370 189.642 290 c 1
 218.593 318 270.057 339 308.057 339 c 0
 456.057 339 451.125 217 441.348 171 c 0
 426.894 103 366.874 -10 228.874 -10 c 0
 155.874 -10 50.5889 31 92.8877 230 c 0
 112.443 322 165.81 411.7 249.239 481 c 0
 327.313 545.8 399.795 573 498.857 578 c 1
 496.331 552 l 1
EndSplineSet
AlternateSubs2: "'aalt' Alle Alternativen zeigen 1" six.oldstyle six.superior six.fitted
Substitution2: "'sups' Hochgestellte 1" six.superior
Substitution2: "'sinf' Wissenschaftliche Indices 1" six.inferior
Substitution2: "'pnum' Proportionalziffern 1" six.fitted
Substitution2: "'onum' Minuskelziffern 1" six.taboldstyle
EndChar

StartChar: seven
Encoding: 55 55 16
Width: 440
VWidth: 487
Flags: HMW
HStem: -12 21G<117 185> 503 65<98.1355 327.687>
LayerCount: 2
Fore
SplineSet
435.916 503 m 1
 380.916 503 308.703 502 165.003 494 c 1
 169.979 508 174.954 522 177.931 536 c 0
 180.906 550 181.031 560 182.008 574 c 1
 221.103 568.8 304.732 568 445.732 568 c 0
 474.732 568 494.008 574 508.857 578 c 1
 522.732 568 l 1
 361.893 310 271.309 152 183.087 -9 c 1
 117.449 -12 l 1
 115.725 -6 l 1
 208.907 136 323.23 321 435.916 503 c 1
EndSplineSet
AlternateSubs2: "'aalt' Alle Alternativen zeigen 1" seven.oldstyle seven.superior seven.fitted
Substitution2: "'sups' Hochgestellte 1" seven.superior
Substitution2: "'sinf' Wissenschaftliche Indices 1" seven.inferior
Substitution2: "'pnum' Proportionalziffern 1" seven.fitted
Substitution2: "'onum' Minuskelziffern 1" seven.taboldstyle
EndChar

StartChar: nine
Encoding: 57 57 17
Width: 440
VWidth: 487
Flags: HW
HStem: -10 26<59.1923 126.381> 229 36<160.609 266.852> 544 34<150.27 249.271>
VStem: 31 79<313.627 488.157> 312 80<261.205 466.103>
LayerCount: 2
Fore
SplineSet
376.042 306 m 1
 379.168 316 382.356 331 384.481 341 c 0
 420.191 509 360.631 544 310.631 544 c 0
 264.631 544 217.979 508 195.873 404 c 0
 185.883 357 180.327 265 276.327 265 c 0
 297.327 265 330.965 268 376.042 306 c 1
60.4014 16 m 1
 126.676 22 186.29 39 244.28 86 c 0
 299.845 131 339.086 198 367.091 278 c 1
 338.139 250 286.676 229 248.676 229 c 0
 100.676 229 105.607 351 115.385 397 c 0
 129.839 465 189.857 578 327.857 578 c 0
 400.857 578 506.143 537 463.844 338 c 0
 444.289 246 390.923 156.3 307.492 87 c 0
 229.419 22.2002 156.938 -5 57.874 -10 c 1
 60.4014 16 l 1
EndSplineSet
AlternateSubs2: "'aalt' Alle Alternativen zeigen 1" nine.oldstyle nine.superior nine.fitted
Substitution2: "'sups' Hochgestellte 1" nine.superior
Substitution2: "'sinf' Wissenschaftliche Indices 1" nine.inferior
Substitution2: "'pnum' Proportionalziffern 1" nine.fitted
Substitution2: "'onum' Minuskelziffern 1" nine.taboldstyle
Colour: ff00ff
EndChar

StartChar: colon
Encoding: 58 58 18
Width: 220
VWidth: 999
Flags: HW
HStem: 39 112<80.3677 154.353> 302 112<80.3677 154.353>
VStem: 61 112<55.2811 131.461 318.281 394.461>
LayerCount: 2
Fore
SplineSet
136.67 356 m 1
 137.521 360 l 1
 152.354 386.5 170.205 401.8 202.998 414 c 1
 206.998 414 l 1
 233.767 403.5 246.314 388.2 249.521 360 c 1
 248.67 356 l 1
 231.626 323.8 212.88 309 183.192 302 c 1
 179.192 302 l 1
 149.48 309 138.35 322.5 136.67 356 c 1
80.7676 93 m 1
 81.6182 97 l 1
 96.4512 123.5 114.303 138.8 147.096 151 c 1
 151.096 151 l 1
 177.864 140.5 190.412 125.2 193.618 97 c 1
 192.768 93 l 1
 175.724 60.7998 156.978 46 127.29 39 c 1
 123.29 39 l 1
 93.5771 46 82.4473 59.5 80.7676 93 c 1
EndSplineSet
Colour: ff00ff
EndChar

StartChar: less
Encoding: 60 60 19
Width: 487
VWidth: 999
Flags: HW
HStem: 73 331
DStem2: 49 263 122 239 0.940425 0.34<60.4911 397.706> 122 239 49 215 0.939653 -0.34213<0 337.557>
LayerCount: 2
Fore
SplineSet
172.801 239 m 1
 465.145 123 l 1
 454.517 73 l 1
 94.6992 215 l 1
 104.902 263 l 1
 524.873 404 l 1
 514.245 354 l 1
 172.801 239 l 1
EndSplineSet
EndChar

StartChar: equal
Encoding: 61 61 20
Width: 527
VWidth: 999
Flags: HW
HStem: 144 49<66 461> 269 49<66 461>
LayerCount: 2
Fore
SplineSet
528.593 318 m 1
 518.178 269 l 1
 123.178 269 l 1
 133.593 318 l 1
 528.593 318 l 1
502.023 193 m 1
 491.608 144 l 1
 96.6084 144 l 1
 107.023 193 l 1
 502.023 193 l 1
EndSplineSet
AlternateSubs2: "'aalt' Alle Alternativen zeigen 1" equal.superior
Substitution2: "'sinf' Wissenschaftliche Indices 1" equal.inferior
Substitution2: "'sups' Hochgestellte 1" equal.superior
EndChar

StartChar: greater
Encoding: 62 62 21
Width: 487
VWidth: 999
Flags: HW
HStem: 71 331
DStem2: 366 236 439 260 0.939653 -0.34213<-337.557 0> 439 212 366 236 0.940425 0.34<-397.706 -60.4911>
LayerCount: 2
Fore
SplineSet
416.163 236 m 1
 123.82 352 l 1
 134.447 402 l 1
 494.265 260 l 1
 484.062 212 l 1
 64.0918 71 l 1
 74.7197 121 l 1
 416.163 236 l 1
EndSplineSet
Colour: ff00ff
EndChar

StartChar: question
Encoding: 63 63 22
Width: 405
VWidth: 487
Flags: HW
HStem: -10 112<143.368 217.353> 619 40<136.736 250.119>
VStem: 124 112<6.28114 82.4613> 167 26<174.002 289.255> 294 75<434.552 577.274>
LayerCount: 2
Fore
SplineSet
326.572 619 m 0
 270.572 619 219.157 570 183.592 525 c 1
 170.805 526 l 1
 169.046 593 l 1
 172.896 597 l 1
 201.754 617.5 271.575 659 344.075 659 c 0
 446.075 659 496.321 599 476.979 508 c 0
 460.187 429 391.834 385 337.607 351 c 0
 310.994 334 287.593 318 274.979 301 c 0
 256.666 276 246.564 252 241.463 228 c 2
 232.11 184 l 2
 230.622 177 224.984 174 216.984 174 c 0
 208.984 174 204.622 177 206.11 184 c 2
 215.888 230 l 2
 225.028 273 240.041 331.4 317.109 391 c 0
 364.975 428 391.139 457 401.129 504 c 0
 414.944 569 383.572 619 326.572 619 c 0
133.353 44 m 1
 134.203 48 l 1
 149.035 74.5 166.888 89.7998 199.681 102 c 1
 203.681 102 l 1
 230.449 91.5 242.997 76.2002 246.203 48 c 1
 245.353 44 l 1
 228.309 11.7998 209.562 -3 179.874 -10 c 1
 175.874 -10 l 1
 146.162 -3 135.032 10.5 133.353 44 c 1
EndSplineSet
Colour: ff80cc
EndChar

StartChar: at
Encoding: 64 64 23
Width: 895
VWidth: 999
Flags: HMW
HStem: -158 33<366.698 569.227> 27 43<368.151 451.044> 27 35<536.5 668.322> 379 31<449.098 547.769> 581 30<366.475 546.302>
VStem: 59 80<106.897 345.058> 273 73<90.7683 252.641> 760 79<177.345 388.516>
LayerCount: 2
Fore
SplineSet
636.168 316 m 0
 644.245 354 620.559 379 584.559 379 c 0
 567.559 379 522.646 370 486.057 339 c 0
 424.216 288 393.612 224 380.435 162 c 0
 370.231 114 375.879 70 438.879 70 c 0
 473.879 70 534.995 127 581.512 200 c 0
 601.101 231 628.941 282 636.168 316 c 0
598.729 74 m 0
 596.604 64 605.179 62 607.179 62 c 0
 709.179 62 783.169 109 818.453 275 c 0
 862.239 481 707.495 581 582.495 581 c 0
 430.495 581 240.602 478 190.227 241 c 0
 158.343 91 188.431 -125 446.431 -125 c 0
 531.431 -125 598.319 -102 661.459 -59 c 1
 670.633 -77 l 1
 600.855 -123 533.416 -158 420.416 -158 c 0
 181.416 -158 61.126 10 106.4 223 c 0
 152.1 438 373.872 611 598.872 611 c 0
 813.872 611 938.689 469 898.941 282 c 0
 874.709 168 774.739 27 556.739 27 c 0
 527.739 27 526.053 52 529.454 68 c 0
 532.643 83 544.531 106 557.845 131 c 1
 556.058 132 l 1
 496.328 58 436.164 29 401.164 29 c 0
 301.164 29 297.019 113 305.521 153 c 0
 335.917 296 487.148 410 593.148 410 c 0
 626.148 410 656.535 393 661.008 367 c 1
 671.109 391 l 1
 726.873 404 l 1
 740.811 399 l 1
 625.971 141 l 2
 614.231 114 600.11 80.5 598.729 74 c 0
EndSplineSet
EndChar

StartChar: A
Encoding: 65 65 24
Width: 633
Flags: HW
HStem: -3 21G<24 68.5 92 115.444 500.087 513.5 590 606.5> 230 44<188.935 310> 638 20G<265 387>
AnchorPoint: "unten_punkt" 247.044 -108 basechar 0
AnchorPoint: "unten_anhang" 59.7002 8 basechar 0
AnchorPoint: "top_akzent" 491.62 798 basechar 0
AnchorPoint: "top_punkt" 470.79 700 basechar 0
LayerCount: 2
Fore
SplineSet
229.526 228.3 m 1
 175.228 140.8 126.792 58.2998 97.3623 -3 c 1
 86 0 64 0 53 0 c 0
 42 0 30 0 17.3623 -3 c 1
 165.337 218 309.675 436 452.862 658 c 1
 480.862 658 l 1
 526.312 439 585.83 98 614.362 -3 c 1
 598 0 572 0 555 0 c 0
 538 0 522 0 504.362 -3 c 1
 502.981 19.2002 496.961 97.2002 475.826 228.3 c 1
 438.318 229.2 396.888 230 358.888 230 c 0
 324.388 230 267.718 229.2 229.526 228.3 c 1
467.859 275.5 m 1
 455.774 345.2 439.946 427.4 418.912 521.8 c 1
 416.912 521.8 l 1
 259.244 275.9 l 1
 290.859 275.5 334.341 274 363.24 274 c 0
 392.94 274 434.789 274.7 467.859 275.5 c 1
EndSplineSet
Position2: "'cpsp' Versalabstaende 1" dx=2 dy=0 dh=5 dv=0
Substitution2: "'c2sc' Versale nach Kapitaelchen 1" a.sc
EndChar

StartChar: B
Encoding: 66 66 25
Width: 582
VWidth: 999
Flags: HW
HStem: -3 44<171.13 393.675> 327 44<189 355.197> 604 44<169.378 351.471>
VStem: 103 86<49.3073 327 371 597.325> 395 87<424.724 562.128> 442 99<97.3818 255.662>
AnchorPoint: "unten_punkt" 245.044 -108 basechar 0
AnchorPoint: "unten_anhang" 250 0 basechar 0
AnchorPoint: "top_punkt" 430.79 700 basechar 0
AnchorPoint: "top_akzent" 450.62 798 basechar 0
LayerCount: 2
Fore
SplineSet
307.819 559 m 2
 267.858 371 l 1
 339.858 371 l 2
 422.858 371 479.173 396 497.239 481 c 0
 518.921 583 458.384 604 402.384 604 c 0
 321.384 604 314.897 592.3 307.819 559 c 2
258.506 327 m 1
 207.705 88 l 2
 200.69 55 208.715 41 278.715 41 c 0
 430.715 41 461.556 92 477.072 165 c 0
 496.202 255 462.506 327 345.506 327 c 2
 258.506 327 l 1
283.099 645 m 0
 330.299 645 369.736 648 404.736 648 c 0
 590.736 648 601.031 560 586.79 493 c 0
 575.1 438 521.834 385 465.521 360 c 1
 547.206 335 600.516 280 580.11 184 c 0
 561.83 98 487.362 -3 288.362 -3 c 0
 199.362 -3 201.8 0 146 0 c 0
 111 0 93.3623 -3 93.3623 -3 c 1
 93 0 l 1
 112.479 54 129.569 125 145.512 200 c 2
 197.588 445 l 2
 213.529 520 225.983 588 230.099 645 c 1
 232.736 648 l 1
 232.736 648 249.099 645 283.099 645 c 0
EndSplineSet
Position2: "'cpsp' Versalabstaende 1" dx=2 dy=0 dh=5 dv=0
Substitution2: "'c2sc' Versale nach Kapitaelchen 1" b.sc
EndChar

StartChar: C
Encoding: 67 67 26
Width: 650
VWidth: 999
Flags: HW
HStem: -10 51<269.467 470.143> 611 47<271.061 460.844>
VStem: 37 103<195.742 435.455>
AnchorPoint: "unten_punkt" 345.619 -110 basechar 0
AnchorPoint: "unten_anhang" 360.512 -7 basechar 0
AnchorPoint: "top_punkt" 514.79 700 basechar 0
AnchorPoint: "top_akzent" 535.62 798 basechar 0
LayerCount: 2
Fore
SplineSet
504.862 658 m 0
 626.862 658 713.297 613 713.297 613 c 1
 714.659 610 l 1
 692.381 560.7 685.506 550 671.065 499 c 1
 660.854 498 l 1
 637.283 580 570.872 611 480.872 611 c 0
 398.872 611 254.143 537 210.994 334 c 0
 179.961 188 213.715 41 368.715 41 c 0
 461.715 41 534.179 62 621.758 140 c 1
 641.569 125 l 1
 554.652 36 445.874 -10 348.874 -10 c 0
 133.874 -10 69.7334 154 103.955 315 c 0
 145.829 512 335.862 658 504.862 658 c 0
EndSplineSet
Position2: "'cpsp' Versalabstaende 1" dx=2 dy=0 dh=5 dv=0
Substitution2: "'c2sc' Versale nach Kapitaelchen 1" c.sc
EndChar

StartChar: D
Encoding: 68 68 27
Width: 698
VWidth: 999
Flags: HW
HStem: -2 44<168.537 432.266> 604 44<169.393 389.698>
VStem: 101 86<49.3073 594.385> 552 103<179.784 425.325>
AnchorPoint: "unten_punkt" 256.257 -107 basechar 0
AnchorPoint: "unten_anhang" 279.851 4 basechar 0
AnchorPoint: "top_punkt" 454.79 700 basechar 0
AnchorPoint: "top_akzent" 475.62 798 basechar 0
LayerCount: 2
Fore
SplineSet
204.43 82 m 2
 197.628 50 206.928 42 304.928 42 c 0
 445.928 42 569.43 82 612.366 284 c 0
 645.1 438 615.384 604 399.384 604 c 0
 350.384 604 314.321 599 306.882 564 c 2
 204.43 82 l 2
281.099 645 m 0
 345.099 645 382.736 648 446.736 648 c 0
 638.736 648 760.003 494 720.468 308 c 0
 668.179 62 467.575 -2 326.575 -2 c 0
 223.575 -2 215 0 144 0 c 0
 109 0 91.3623 -3 91.3623 -3 c 1
 91 0 l 1
 110.479 54 127.569 125 143.512 200 c 2
 195.588 445 l 2
 211.529 520 223.983 588 228.099 645 c 1
 230.736 648 l 1
 230.736 648 247.099 645 281.099 645 c 0
EndSplineSet
Position2: "'cpsp' Versalabstaende 1" dx=2 dy=0 dh=5 dv=0
Substitution2: "'c2sc' Versale nach Kapitaelchen 1" d.sc
EndChar

StartChar: E
Encoding: 69 69 28
Width: 522
VWidth: 999
Flags: HW
HStem: 0 54<186.656 409.594> 321 42<182 388.188> 596 49<186.656 403.188>
VStem: 96 86<55.2087 321 363 594.385>
AnchorPoint: "unten_anhang" 279.851 4 basechar 0
AnchorPoint: "unten_punkt" 256.257 -107 basechar 0
AnchorPoint: "top_punkt" 428.79 700 basechar 0
AnchorPoint: "top_akzent" 454.108 805 basechar 0
LayerCount: 2
Fore
SplineSet
224.512 200 m 2
 220.897 183 199.579 78 201.479 54 c 1
 335.479 54 486.028 66 486.028 66 c 1
 487.179 62 l 1
 484.479 54 480.29 39 478.164 29 c 0
 476.039 19 475.976 14 474 0 c 1
 471.362 -3 l 1
 455.787 -1 433 0 412 0 c 2
 139 0 l 2
 104 0 86.3623 -3 86.3623 -3 c 1
 86 0 l 1
 105.479 54 122.569 125 138.512 200 c 2
 190.588 445 l 2
 206.529 520 218.983 588 223.099 645 c 1
 225.736 648 l 1
 225.736 648 242.099 645 276.099 645 c 0
 306.099 645 539.099 645 539.099 645 c 2
 560.099 645 583.312 646 599.736 648 c 1
 601.099 645 l 1
 597.123 631 594.21 622 592.51 614 c 0
 590.597 605 589.684 596 588.983 588 c 1
 586.133 584 l 1
 586.133 584 450.684 596 316.684 596 c 1
 304.582 572 280.201 462 276.588 445 c 2
 259.158 363 l 1
 377.158 363 424.221 368 484.283 373 c 1
 486.646 370 l 1
 482.732 361 479.607 351 477.694 342 c 0
 475.781 333 474.656 323 474.743 314 c 1
 471.105 311 l 1
 403.593 318 298.23 321 250.23 321 c 1
 224.512 200 l 2
EndSplineSet
Position2: "'cpsp' Versalabstaende 1" dx=2 dy=0 dh=5 dv=0
Substitution2: "'c2sc' Versale nach Kapitaelchen 1" e.sc
EndChar

StartChar: F
Encoding: 70 70 29
Width: 477
VWidth: 999
Flags: HW
HStem: -3 21G<88 141 141 194> 321 42<184 390.196> 596 49<188.662 405.195>
VStem: 98 86<2.67992 321 363 594.385>
AnchorPoint: "unten_anhang" 144.787 -1 basechar 0
AnchorPoint: "unten_punkt" 177.406 -111 basechar 0
AnchorPoint: "top_punkt" 435.79 700 basechar 0
AnchorPoint: "top_akzent" 455.62 798 basechar 0
LayerCount: 2
Fore
SplineSet
538.099 645 m 2
 562.099 645 585.312 646 601.736 648 c 1
 603.099 645 l 1
 599.123 631 596.21 622 594.51 614 c 0
 592.597 605 591.684 596 590.983 588 c 1
 588.133 584 l 1
 588.133 584 452.684 596 318.684 596 c 1
 306.582 572 282.201 462 278.588 445 c 2
 261.158 363 l 1
 379.158 363 426.221 368 486.283 373 c 1
 488.646 370 l 1
 484.732 361 481.607 351 479.694 342 c 0
 477.781 333 476.656 323 476.743 314 c 1
 473.105 311 l 1
 405.593 318 300.23 321 252.23 321 c 1
 226.512 200 l 2
 210.569 125 198.115 57 194 0 c 1
 191.362 -3 l 1
 191.362 -3 175 0 141 0 c 0
 106 0 88.3623 -3 88.3623 -3 c 1
 88 0 l 1
 107.479 54 124.569 125 140.512 200 c 2
 192.588 445 l 2
 208.529 520 220.983 588 225.099 645 c 1
 227.736 648 l 1
 227.736 648 244.099 645 278.099 645 c 2
 538.099 645 l 2
EndSplineSet
Position2: "'cpsp' Versalabstaende 1" dx=2 dy=0 dh=5 dv=0
Substitution2: "'c2sc' Versale nach Kapitaelchen 1" f.sc
EndChar

StartChar: G
Encoding: 71 71 30
Width: 699
VWidth: 999
Flags: HMW
HStem: -10 46<295.106 519.78> 611 47<271.555 476.844>
VStem: 32 103<213.43 430.807> 546 86<83.5114 304.327>
AnchorPoint: "unten_anhang" 371.425 2 basechar 0
AnchorPoint: "unten_punkt" 347.406 -111 basechar 0
AnchorPoint: "top_punkt" 517.79 700 basechar 0
AnchorPoint: "top_akzent" 538.62 798 basechar 0
LayerCount: 2
Fore
SplineSet
570.869 117 m 1
 585.311 192 597.139 250 601.255 307 c 1
 603.893 310 l 1
 603.893 310 620.255 307 654.255 307 c 0
 689.255 307 706.893 310 706.893 310 c 1
 707.255 307 l 1
 687.989 254 677.062 212 661.12 137 c 2
 659.845 131 l 2
 657.507 120 653.217 93.7002 659.643 83 c 1
 659.005 80 l 1
 579.474 23.4004 490.374 -10 373.874 -10 c 0
 172.874 -10 60.4824 134 97.2549 307 c 0
 144.018 527 348.862 658 520.862 658 c 0
 642.862 658 729.297 613 729.297 613 c 1
 730.659 610 l 1
 708.381 560.7 701.506 550 687.065 499 c 1
 676.854 498 l 1
 653.283 580 586.872 611 496.872 611 c 0
 361.872 611 241.703 502 204.506 327 c 0
 176.448 195 228.652 36 406.652 36 c 0
 460.652 36 520.928 42 561.729 74 c 1
 570.869 117 l 1
EndSplineSet
Position2: "'cpsp' Versalabstaende 1" dx=2 dy=0 dh=5 dv=0
Substitution2: "'c2sc' Versale nach Kapitaelchen 1" g.sc
EndChar

StartChar: grave
Encoding: 96 96 31
Width: 392
VWidth: 999
Flags: HW
LayerCount: 2
Fore
SplineSet
326.577 699 m 1
 369.795 573 l 2
 372.669 563 372.182 556 370.693 549 c 0
 369.631 544 361.355 538 353.355 538 c 0
 347.355 538 341.418 543 328.606 558 c 2
 237.775 667 l 1
 242.113 678 l 1
 251.389 684 278.002 701 312.002 701 c 0
 317.002 701 322.79 700 326.577 699 c 1
EndSplineSet
Substitution2: "'case' Versalformen 1" grave.cap
Colour: ff00ff
EndChar

StartChar: ograve
Encoding: 242 242 32
Width: 510
VWidth: 999
Flags: HW
HStem: -10 41<204.375 329.082> 398 41<186.898 318.163>
VStem: 36 90<124.397 311.463> 384 90<116.419 317.676>
LayerCount: 2
Fore
SplineSet
376.625 671 m 1
 419.844 545 l 2
 422.718 535 422.229 528 420.742 521 c 0
 419.679 516 411.404 510 403.404 510 c 0
 397.404 510 391.467 515 378.655 530 c 2
 287.823 639 l 1
 292.162 650 l 1
 301.438 656 328.051 673 362.051 673 c 0
 367.051 673 372.838 672 376.625 671 c 1
79.5742 205 m 0
 108.694 342 219.312 439 350.312 439 c 0
 507.312 439 541.593 318 519.487 214 c 0
 496.743 107 395.874 -10 252.874 -10 c 0
 114.874 -10 56.1934 95 79.5742 205 c 0
334.598 398 m 0
 248.598 398 192.955 315 174.463 228 c 0
 158.096 151 171.589 31 275.589 31 c 0
 320.589 31 397.391 63 423.748 187 c 0
 454.994 334 419.598 398 334.598 398 c 0
EndSplineSet
Substitution2: "'smcp' Gemeine nach Kapitaelchen 1" ograve.sc
AlternateSubs2: "'aalt' Alle Alternativen zeigen 1" ograve.sc
Colour: ff00ff
EndChar

StartChar: oacute
Encoding: 243 243 33
Width: 510
VWidth: 999
Flags: HW
HStem: -10 41<204.375 329.082> 398 41<186.898 318.163>
VStem: 36 90<124.397 311.463> 384 90<116.419 317.676>
LayerCount: 2
Fore
SplineSet
422.625 671 m 1
 425.838 672 432.051 673 437.051 673 c 0
 443.45 673 468.838 672 487.162 650 c 1
 487.823 639 l 1
 349.655 530 l 2
 331.467 515 322.616 511 315.616 511 c 0
 308.616 511 302.892 517 304.38 524 c 0
 306.761 535.2 310.91 539.2 321.731 552 c 2
 422.625 671 l 1
79.5742 205 m 0
 108.694 342 219.312 439 350.312 439 c 0
 507.312 439 541.593 318 519.487 214 c 0
 496.743 107 395.874 -10 252.874 -10 c 0
 114.874 -10 56.1934 95 79.5742 205 c 0
334.598 398 m 0
 248.598 398 192.955 315 174.463 228 c 0
 158.096 151 171.589 31 275.589 31 c 0
 320.589 31 397.391 63 423.748 187 c 0
 454.994 334 419.598 398 334.598 398 c 0
EndSplineSet
Substitution2: "'smcp' Gemeine nach Kapitaelchen 1" oacute.sc
AlternateSubs2: "'aalt' Alle Alternativen zeigen 1" oacute.sc
Colour: ff00ff
EndChar

StartChar: ocircumflex
Encoding: 244 244 34
Width: 510
VWidth: 999
Flags: HW
HStem: -10 41<204.375 329.082> 398 41<186.898 318.163>
VStem: 36 90<124.397 311.463> 125 253<517 517> 384 90<116.419 317.676>
LayerCount: 2
Fore
SplineSet
414.312 646 m 1
 433.321 599 460.394 557 487.892 517 c 1
 463.916 503 l 1
 431.08 532 403.394 557 377.046 593 c 1
 331.969 555 294.655 530 250.916 503 c 1
 233.892 517 l 1
 278.394 557 325.534 600 364.312 646 c 1
 414.312 646 l 1
79.5742 205 m 0
 108.694 342 219.312 439 350.312 439 c 0
 507.312 439 541.593 318 519.487 214 c 0
 496.743 107 395.874 -10 252.874 -10 c 0
 114.874 -10 56.1934 95 79.5742 205 c 0
334.598 398 m 0
 248.598 398 192.955 315 174.463 228 c 0
 158.096 151 171.589 31 275.589 31 c 0
 320.589 31 397.391 63 423.748 187 c 0
 454.994 334 419.598 398 334.598 398 c 0
EndSplineSet
Substitution2: "'smcp' Gemeine nach Kapitaelchen 1" ocircumflex.sc
AlternateSubs2: "'aalt' Alle Alternativen zeigen 1" ocircumflex.sc
Colour: ff00ff
EndChar

StartChar: otilde
Encoding: 245 245 35
Width: 510
VWidth: 999
Flags: HW
HStem: -10 41<204.375 329.082> 398 41<186.898 318.163> 526 44<263 350> 574 46<145 236> 613 10
VStem: 36 90<124.397 311.463> 384 90<116.419 317.676>
LayerCount: 2
Fore
SplineSet
435.157 570 m 0
 457.157 570 473.283 580 496.21 622 c 1
 518.935 616 l 1
 494.182 556 458.805 526 412.805 526 c 0
 390.805 526 372.355 538 354.331 552 c 0
 338.669 563 322.008 574 305.008 574 c 0
 279.008 574 262.819 559 245.805 526 c 1
 222.867 531 l 1
 249.408 590 278.785 620 321.785 620 c 0
 351.785 620 370.81 606 387.834 592 c 0
 401.283 580 416.157 570 435.157 570 c 0
79.5742 205 m 0
 108.694 342 219.312 439 350.312 439 c 0
 507.312 439 541.593 318 519.487 214 c 0
 496.743 107 395.874 -10 252.874 -10 c 0
 114.874 -10 56.1934 95 79.5742 205 c 0
334.598 398 m 0
 248.598 398 192.955 315 174.463 228 c 0
 158.096 151 171.589 31 275.589 31 c 0
 320.589 31 397.391 63 423.748 187 c 0
 454.994 334 419.598 398 334.598 398 c 0
EndSplineSet
Substitution2: "'smcp' Gemeine nach Kapitaelchen 1" otilde.sc
AlternateSubs2: "'aalt' Alle Alternativen zeigen 1" otilde.sc
Colour: ff00ff
EndChar

StartChar: odieresis
Encoding: 246 246 36
Width: 510
VWidth: 999
Flags: HW
HStem: -10 41<204.375 329.082> 398 41<186.898 318.163> 527 92<133.347 210.653 293.347 370.653>
VStem: 36 90<124.397 311.463> 126 92<534.347 611.653> 286 92<534.347 611.653> 384 90<116.419 317.676>
LayerCount: 2
Fore
SplineSet
247.795 573 m 0
 253.108 598 278.572 619 303.572 619 c 0
 328.572 619 345.108 598 339.795 573 c 0
 334.481 548 309.018 527 284.018 527 c 0
 259.018 527 242.481 548 247.795 573 c 0
407.795 573 m 0
 413.108 598 438.572 619 463.572 619 c 0
 488.572 619 505.108 598 499.795 573 c 0
 494.481 548 469.018 527 444.018 527 c 0
 419.018 527 402.481 548 407.795 573 c 0
79.5742 205 m 0
 108.694 342 219.312 439 350.312 439 c 0
 507.312 439 541.593 318 519.487 214 c 0
 496.743 107 395.874 -10 252.874 -10 c 0
 114.874 -10 56.1934 95 79.5742 205 c 0
334.598 398 m 0
 248.598 398 192.955 315 174.463 228 c 0
 158.096 151 171.589 31 275.589 31 c 0
 320.589 31 397.391 63 423.748 187 c 0
 454.994 334 419.598 398 334.598 398 c 0
EndSplineSet
Substitution2: "'smcp' Gemeine nach Kapitaelchen 1" odieresis.sc
AlternateSubs2: "'aalt' Alle Alternativen zeigen 1" odieresis.sc
Colour: ff00ff
EndChar

StartChar: divide
Encoding: 247 247 37
Width: 527
VWidth: 999
Flags: HW
HStem: 53.6 93.9<234.492 296.502> 208 49<66 461> 321.6 93.9<234.492 296.502>
VStem: 218.3 93.9<67.2645 131.114> 218.3 93.9<335.264 399.114>
LayerCount: 2
Fore
SplineSet
296.287 366.9 m 1
 296.988 370.2 l 1
 309.507 392.4 324.228 405.2 351.817 415.5 c 1
 355.217 415.5 l 1
 377.646 406.7 388.126 393.9 390.889 370.2 c 1
 390.188 366.9 l 1
 375.848 339.9 360.212 327.5 335.258 321.6 c 1
 331.858 321.6 l 1
 306.912 327.5 297.614 338.8 296.287 366.9 c 1
239.322 98.9004 m 1
 240.023 102.2 l 1
 252.542 124.4 267.263 137.2 294.853 147.5 c 1
 298.252 147.5 l 1
 320.682 138.7 331.161 125.9 333.923 102.2 c 1
 333.222 98.9004 l 1
 318.883 71.9004 303.247 59.5 278.293 53.5996 c 1
 274.893 53.5996 l 1
 249.947 59.5 240.649 70.7998 239.322 98.9004 c 1
515.627 257 m 1
 505.212 208 l 1
 110.212 208 l 1
 120.627 257 l 1
 515.627 257 l 1
EndSplineSet
Colour: ff00ff
EndChar

StartChar: ugrave
Encoding: 249 249 38
Width: 521
VWidth: 999
Flags: HW
HStem: -10 55<189.219 288.154> -3 21<363 372.667 438.5 447> 412 20<74 124 124 174 340 390 390 440>
VStem: 84 80<69.7019 426.335> 350 80<96.6489 426.335>
LayerCount: 2
Fore
SplineSet
370.625 671 m 1
 413.844 545 l 2
 416.718 535 416.229 528 414.742 521 c 0
 413.679 516 405.404 510 397.404 510 c 0
 391.404 510 385.467 515 372.655 530 c 2
 281.823 639 l 1
 286.162 650 l 1
 295.438 656 322.051 673 356.051 673 c 0
 361.051 673 366.838 672 370.625 671 c 1
363.604 64 m 1
 294.851 4 250.874 -10 209.874 -10 c 0
 110.874 -10 96.1152 57 110.782 126 c 2
 136.927 249 l 2
 153.081 325 162.071 372 165.187 429 c 1
 167.824 432 l 1
 167.824 432 181.187 429 215.187 429 c 0
 250.187 429 264.824 432 264.824 432 c 1
 265.187 429 l 1
 244.921 376 232.868 324 216.927 249 c 2
 195.884 150 l 2
 176.966 61 217.565 45 247.565 45 c 0
 292.365 45 342.647 88.2002 375.294 119 c 1
 402.927 249 l 2
 419.081 325 428.071 372 431.187 429 c 1
 433.824 432 l 1
 433.824 432 447.187 429 481.187 429 c 0
 516.187 429 530.824 432 530.824 432 c 1
 531.187 429 l 1
 510.921 376 498.868 324 482.927 249 c 2
 470.811 192 l 2
 454.869 117 448.14 43 447 0 c 1
 444.362 -3 l 1
 431.787 -1 413.1 0 400.5 0 c 0
 386 0 379.023 -1.2998 365.362 -3 c 0
 359.362 -3 356.575 -2 357 0 c 2
 365.604 64 l 1
 363.604 64 l 1
EndSplineSet
Substitution2: "'smcp' Gemeine nach Kapitaelchen 1" ugrave.sc
AlternateSubs2: "'aalt' Alle Alternativen zeigen 1" ugrave.sc
Colour: ff00ff
EndChar

StartChar: uacute
Encoding: 250 250 39
Width: 521
VWidth: 999
Flags: HW
HStem: -10 55<189.219 288.154> -3 21<363 372.667 438.5 447> 412 20<74 124 124 174 340 390 390 440>
VStem: 84 80<69.7019 426.335> 350 80<96.6489 426.335>
LayerCount: 2
Fore
SplineSet
448.625 671 m 1
 451.838 672 458.051 673 463.051 673 c 0
 469.45 673 494.838 672 513.162 650 c 1
 513.823 639 l 1
 375.655 530 l 2
 357.467 515 348.616 511 341.616 511 c 0
 334.616 511 328.892 517 330.38 524 c 0
 332.761 535.2 336.91 539.2 347.731 552 c 2
 448.625 671 l 1
363.604 64 m 1
 294.851 4 250.874 -10 209.874 -10 c 0
 110.874 -10 96.1152 57 110.782 126 c 2
 136.927 249 l 2
 153.081 325 162.071 372 165.187 429 c 1
 167.824 432 l 1
 167.824 432 181.187 429 215.187 429 c 0
 250.187 429 264.824 432 264.824 432 c 1
 265.187 429 l 1
 244.921 376 232.868 324 216.927 249 c 2
 195.884 150 l 2
 176.966 61 217.565 45 247.565 45 c 0
 292.365 45 342.647 88.2002 375.294 119 c 1
 402.927 249 l 2
 419.081 325 428.071 372 431.187 429 c 1
 433.824 432 l 1
 433.824 432 447.187 429 481.187 429 c 0
 516.187 429 530.824 432 530.824 432 c 1
 531.187 429 l 1
 510.921 376 498.868 324 482.927 249 c 2
 470.811 192 l 2
 454.869 117 448.14 43 447 0 c 1
 444.362 -3 l 1
 431.787 -1 413.1 0 400.5 0 c 0
 386 0 379.023 -1.2998 365.362 -3 c 0
 359.362 -3 356.575 -2 357 0 c 2
 365.604 64 l 1
 363.604 64 l 1
EndSplineSet
Substitution2: "'smcp' Gemeine nach Kapitaelchen 1" uacute.sc
AlternateSubs2: "'aalt' Alle Alternativen zeigen 1" uacute.sc
Colour: ff00ff
EndChar

StartChar: ucircumflex
Encoding: 251 251 40
Width: 521
VWidth: 999
Flags: HW
HStem: -10 55<189.219 288.154> -3 21<363 372.667 438.5 447> 412 20<74 124 124 174 340 390 390 440>
VStem: 84 80<69.7019 426.335> 129 253<517 517> 350 80<96.6489 426.335>
LayerCount: 2
Fore
SplineSet
418.312 646 m 1
 437.321 599 464.394 557 491.892 517 c 1
 467.916 503 l 1
 435.08 532 407.394 557 381.046 593 c 1
 335.969 555 298.655 530 254.916 503 c 1
 237.892 517 l 1
 282.394 557 329.534 600 368.312 646 c 1
 418.312 646 l 1
363.604 64 m 1
 294.851 4 250.874 -10 209.874 -10 c 0
 110.874 -10 96.1152 57 110.782 126 c 2
 136.927 249 l 2
 153.081 325 162.071 372 165.187 429 c 1
 167.824 432 l 1
 167.824 432 181.187 429 215.187 429 c 0
 250.187 429 264.824 432 264.824 432 c 1
 265.187 429 l 1
 244.921 376 232.868 324 216.927 249 c 2
 195.884 150 l 2
 176.966 61 217.565 45 247.565 45 c 0
 292.365 45 342.647 88.2002 375.294 119 c 1
 402.927 249 l 2
 419.081 325 428.071 372 431.187 429 c 1
 433.824 432 l 1
 433.824 432 447.187 429 481.187 429 c 0
 516.187 429 530.824 432 530.824 432 c 1
 531.187 429 l 1
 510.921 376 498.868 324 482.927 249 c 2
 470.811 192 l 2
 454.869 117 448.14 43 447 0 c 1
 444.362 -3 l 1
 431.787 -1 413.1 0 400.5 0 c 0
 386 0 379.023 -1.2998 365.362 -3 c 0
 359.362 -3 356.575 -2 357 0 c 2
 365.604 64 l 1
 363.604 64 l 1
EndSplineSet
Substitution2: "'smcp' Gemeine nach Kapitaelchen 1" ucircumflex.sc
AlternateSubs2: "'aalt' Alle Alternativen zeigen 1" ucircumflex.sc
Colour: ff00ff
EndChar

StartChar: ebreve
Encoding: 277 277 41
Width: 442
VWidth: 999
Flags: HW
HStem: -10 59<197.345 335.48> 243 44<125 319.997> 399 40<175.584 290.389> 501 57<158.968 295.898>
VStem: 34 88<132.133 243> 93 26<607.805 639.769> 320 89<254.5 358.106> 336 27<609.333 639.63>
LayerCount: 2
Fore
SplineSet
257.736 648 m 1
 257.471 595 292.606 558 346.606 558 c 0
 398.606 558 451.408 590 473.736 648 c 1
 498.186 636 l 1
 467.906 550 393.491 501 334.491 501 c 0
 264.491 501 224.119 551 228.186 636 c 1
 257.736 648 l 1
186.004 287 m 1
 367.004 287 l 2
 377.004 287 382.066 292 383.979 301 c 0
 399.921 376 359.811 399 323.811 399 c 0
 300.811 399 225.109 391 186.004 287 c 1
418.318 105 m 1
 432.792 79 l 1
 383.739 27 314.874 -10 242.874 -10 c 0
 105.874 -10 51.8545 84 76.2988 199 c 0
 108.607 351 237.312 439 332.312 439 c 0
 464.312 439 482.119 344 464.265 260 c 0
 461.927 249 453.651 243 442.651 243 c 2
 173.651 243 l 1
 141.98 94 219.415 49 275.415 49 c 0
 330.415 49 375.241 67 418.318 105 c 1
EndSplineSet
Colour: ff00ff
EndChar

StartChar: Edotaccent
Encoding: 278 278 42
Width: 522
VWidth: 999
Flags: HW
HStem: 0 54<186.656 409.594> 321 42<182 388.188> 596 49<186.656 403.188> 688 104<238.25 321.469>
VStem: 96 86<55.2087 321 363 594.385> 228 104<698.542 781.752>
LayerCount: 2
Fore
SplineSet
386.292 740 m 0
 392.031 767 421.132 791 448.132 791 c 0
 475.132 791 494.031 767 488.292 740 c 0
 482.553 713 453.451 689 426.451 689 c 0
 399.451 689 380.553 713 386.292 740 c 0
224.512 200 m 2
 220.897 183 199.579 78 201.479 54 c 1
 335.479 54 486.028 66 486.028 66 c 1
 487.179 62 l 1
 484.479 54 480.29 39 478.164 29 c 0
 476.039 19 475.976 14 474 0 c 1
 471.362 -3 l 1
 455.787 -1 433 0 412 0 c 2
 139 0 l 2
 104 0 86.3623 -3 86.3623 -3 c 1
 86 0 l 1
 105.479 54 122.569 125 138.512 200 c 2
 190.588 445 l 2
 206.529 520 218.983 588 223.099 645 c 1
 225.736 648 l 1
 225.736 648 242.099 645 276.099 645 c 0
 306.099 645 539.099 645 539.099 645 c 2
 560.099 645 583.312 646 599.736 648 c 1
 601.099 645 l 1
 597.123 631 594.21 622 592.51 614 c 0
 590.597 605 589.684 596 588.983 588 c 1
 586.133 584 l 1
 586.133 584 450.684 596 316.684 596 c 1
 304.582 572 280.201 462 276.588 445 c 2
 259.158 363 l 1
 377.158 363 424.221 368 484.283 373 c 1
 486.646 370 l 1
 482.732 361 479.607 351 477.694 342 c 0
 475.781 333 474.656 323 474.743 314 c 1
 471.105 311 l 1
 403.593 318 298.23 321 250.23 321 c 1
 224.512 200 l 2
EndSplineSet
Position2: "'cpsp' Versalabstaende 1" dx=2 dy=0 dh=5 dv=0
Colour: ff00ff
EndChar

StartChar: edotaccent
Encoding: 279 279 43
Width: 442
VWidth: 999
Flags: HW
HStem: -10 59<197.345 335.48> 243 44<125 319.997> 399 40<175.584 290.389> 519 104<188.248 271.458>
VStem: 34 88<132.133 243> 178 104<529.542 612.752> 320 89<254.5 358.106>
LayerCount: 2
Fore
SplineSet
300.37 571 m 0
 306.108 598 335.21 622 362.21 622 c 0
 389.21 622 408.108 598 402.37 571 c 0
 396.631 544 367.529 520 340.529 520 c 0
 313.529 520 294.631 544 300.37 571 c 0
186.004 287 m 1
 367.004 287 l 2
 377.004 287 382.066 292 383.979 301 c 0
 399.921 376 359.811 399 323.811 399 c 0
 300.811 399 225.109 391 186.004 287 c 1
418.318 105 m 1
 432.792 79 l 1
 383.739 27 314.874 -10 242.874 -10 c 0
 105.874 -10 51.8545 84 76.2988 199 c 0
 108.607 351 237.312 439 332.312 439 c 0
 464.312 439 482.119 344 464.265 260 c 0
 461.927 249 453.651 243 442.651 243 c 2
 173.651 243 l 1
 141.98 94 219.415 49 275.415 49 c 0
 330.415 49 375.241 67 418.318 105 c 1
EndSplineSet
Colour: ff00ff
EndChar

StartChar: Eogonek
Encoding: 280 280 44
Width: 522
VWidth: 999
Flags: HW
HStem: -224 39<325.188 408.938> 0 25<394.25 430.875> 0 54<186.656 409.594> 321 42<182 388.188> 596 49<186.656 403.188>
VStem: 96 86<55.2087 321 363 594.385> 251 60<-173.091 -74.5789>
LayerCount: 2
Fore
SplineSet
296.388 -224 m 0
 243.388 -224 209.977 -193 221.455 -139 c 0
 231.551 -91.5 283.9 -33.4004 351.2 0 c 1
 139 0 l 2
 104 0 86.3623 -3 86.3623 -3 c 1
 86 0 l 1
 105.479 54 122.569 125 138.512 200 c 2
 190.588 445 l 2
 206.529 520 218.983 588 223.099 645 c 1
 225.736 648 l 1
 225.736 648 242.099 645 276.099 645 c 0
 306.099 645 539.099 645 539.099 645 c 2
 560.099 645 583.312 646 599.736 648 c 1
 601.099 645 l 1
 597.123 631 594.21 622 592.51 614 c 0
 590.597 605 589.684 596 588.983 588 c 1
 586.133 584 l 1
 586.133 584 450.684 596 316.684 596 c 1
 304.582 572 280.201 462 276.588 445 c 2
 259.158 363 l 1
 377.158 363 424.221 368 484.283 373 c 1
 486.646 370 l 1
 482.732 361 479.607 351 477.694 342 c 0
 475.781 333 474.656 323 474.743 314 c 1
 471.105 311 l 1
 403.593 318 298.23 321 250.23 321 c 1
 224.512 200 l 2
 220.897 183 199.579 78 201.479 54 c 1
 335.479 54 486.028 66 486.028 66 c 1
 487.179 62 l 1
 484.479 54 480.29 39 478.164 29 c 0
 476.039 19 475.976 14 474 0 c 1
 471.362 -3 l 1
 461.539 -1.7002 449.009 -0.900391 435.715 -0.400391 c 1
 360.04 -6.40039 294.591 -77.2002 284.218 -126 c 0
 277.416 -158 293.677 -185 329.677 -185 c 0
 359.677 -185 382.865 -170 407.329 -149 c 1
 420.629 -157 l 1
 386.639 -204 332.388 -224 296.388 -224 c 0
EndSplineSet
Position2: "'cpsp' Versalabstaende 1" dx=2 dy=0 dh=5 dv=0
Substitution2: "'c2sc' Versale nach Kapitaelchen 1" eogonek.sc
Colour: ff80cc
EndChar

StartChar: eogonek
Encoding: 281 281 45
Width: 442
VWidth: 999
Flags: HW
HStem: -214 38<271.124 354.226> -10 59<197.345 335.48> 243 44<125 319.997> 399 40<175.584 290.389>
VStem: 34 88<132.133 243> 197 60<-164.209 -65.2215> 320 89<254.5 358.106>
LayerCount: 2
Fore
SplineSet
186.004 287 m 1
 367.004 287 l 2
 377.004 287 382.066 292 383.979 301 c 0
 399.921 376 359.811 399 323.811 399 c 0
 300.811 399 225.109 391 186.004 287 c 1
418.318 105 m 1
 432.792 79 l 1
 416.394 61.5996 397.856 45.9004 377.65 32.7002 c 1
 314.361 -19 277.437 -54.4004 266.469 -106 c 0
 262.005 -127 273.329 -149 299.329 -149 c 0
 316.329 -149 341.518 -134 358.706 -119 c 1
 361.493 -120 l 1
 371.88 -137 l 1
 337.865 -170 294.977 -193 260.977 -193 c 0
 211.977 -193 188.141 -164 198.131 -117 c 0
 206.782 -76.2998 237.968 -39.2002 276.549 -7.2998 c 1
 265.487 -9 254.175 -10 242.874 -10 c 0
 105.874 -10 51.8545 84 76.2988 199 c 0
 108.607 351 237.312 439 332.312 439 c 0
 464.312 439 482.119 344 464.265 260 c 0
 461.927 249 453.651 243 442.651 243 c 2
 173.651 243 l 1
 141.98 94 219.415 49 275.415 49 c 0
 330.415 49 375.241 67 418.318 105 c 1
EndSplineSet
AlternateSubs2: "'aalt' Alle Alternativen zeigen 1" eogonek.sc
Substitution2: "'smcp' Gemeine nach Kapitaelchen 1" eogonek.sc
Colour: ff00ff
EndChar

StartChar: Ecaron
Encoding: 282 282 46
Width: 522
VWidth: 999
Flags: HW
HStem: 0 54<186.656 409.594> 321 42<182 388.188> 596 49<186.656 403.188>
VStem: 96 86<55.2087 321 363 594.385>
LayerCount: 2
Fore
SplineSet
416.152 697 m 1
 394.017 734 365.394 764 335.345 792 c 1
 355.596 812 l 1
 390.982 795 420.944 776 448.63 751 c 1
 491.156 777 527.195 796 568.596 812 c 1
 579.345 792 l 1
 535.181 763 496.379 731 459.152 697 c 1
 416.152 697 l 1
224.512 200 m 2
 220.897 183 199.579 78 201.479 54 c 1
 335.479 54 486.028 66 486.028 66 c 1
 487.179 62 l 1
 484.479 54 480.29 39 478.164 29 c 0
 476.039 19 475.976 14 474 0 c 1
 471.362 -3 l 1
 455.787 -1 433 0 412 0 c 2
 139 0 l 2
 104 0 86.3623 -3 86.3623 -3 c 1
 86 0 l 1
 105.479 54 122.569 125 138.512 200 c 2
 190.588 445 l 2
 206.529 520 218.983 588 223.099 645 c 1
 225.736 648 l 1
 225.736 648 242.099 645 276.099 645 c 0
 306.099 645 539.099 645 539.099 645 c 2
 560.099 645 583.312 646 599.736 648 c 1
 601.099 645 l 1
 597.123 631 594.21 622 592.51 614 c 0
 590.597 605 589.684 596 588.983 588 c 1
 586.133 584 l 1
 586.133 584 450.684 596 316.684 596 c 1
 304.582 572 280.201 462 276.588 445 c 2
 259.158 363 l 1
 377.158 363 424.221 368 484.283 373 c 1
 486.646 370 l 1
 482.732 361 479.607 351 477.694 342 c 0
 475.781 333 474.656 323 474.743 314 c 1
 471.105 311 l 1
 403.593 318 298.23 321 250.23 321 c 1
 224.512 200 l 2
EndSplineSet
Position2: "'cpsp' Versalabstaende 1" dx=2 dy=0 dh=5 dv=0
Substitution2: "'c2sc' Versale nach Kapitaelchen 1" ecaron.sc
Colour: ff00ff
EndChar

StartChar: ecaron
Encoding: 283 283 47
Width: 442
VWidth: 999
Flags: HW
HStem: -10 59<197.345 335.48> 243 44<125 319.997> 399 40<175.584 290.389>
VStem: 34 88<132.133 243> 320 89<254.5 358.106>
LayerCount: 2
Fore
SplineSet
305.491 501 m 1
 286.481 548 259.046 593 232.123 631 c 1
 254.887 644 l 1
 287.723 615 315.408 590 341.756 554 c 1
 386.834 592 426.147 617 468.887 644 c 1
 485.123 631 l 1
 441.834 592 394.269 547 355.491 501 c 1
 305.491 501 l 1
186.004 287 m 1
 367.004 287 l 2
 377.004 287 382.066 292 383.979 301 c 0
 399.921 376 359.811 399 323.811 399 c 0
 300.811 399 225.109 391 186.004 287 c 1
418.318 105 m 1
 432.792 79 l 1
 383.739 27 314.874 -10 242.874 -10 c 0
 105.874 -10 51.8545 84 76.2988 199 c 0
 108.607 351 237.312 439 332.312 439 c 0
 464.312 439 482.119 344 464.265 260 c 0
 461.927 249 453.651 243 442.651 243 c 2
 173.651 243 l 1
 141.98 94 219.415 49 275.415 49 c 0
 330.415 49 375.241 67 418.318 105 c 1
EndSplineSet
AlternateSubs2: "'aalt' Alle Alternativen zeigen 1" ecaron.sc
Substitution2: "'smcp' Gemeine nach Kapitaelchen 1" ecaron.sc
Colour: ff00ff
EndChar

StartChar: Gcircumflex
Encoding: 284 284 48
Width: 699
VWidth: 999
Flags: HW
HStem: -10 46<295.106 519.78> 611 47<271.555 476.844>
VStem: 32 103<213.43 430.807> 546 86<83.5114 304.327>
LayerCount: 2
Fore
SplineSet
556.108 805 m 1
 578.456 769 606.867 738 637.128 711 c 1
 616.664 690 l 1
 581.49 708 551.528 727 523.843 752 c 1
 481.104 725 445.277 707 403.664 690 c 1
 394.128 711 l 1
 437.079 739 474.881 771 513.108 805 c 1
 556.108 805 l 1
570.869 117 m 1
 585.311 192 597.139 250 601.255 307 c 1
 603.893 310 l 1
 603.893 310 620.255 307 654.255 307 c 0
 689.255 307 706.893 310 706.893 310 c 1
 707.255 307 l 1
 687.989 254 677.062 212 661.12 137 c 2
 659.845 131 l 2
 657.507 120 653.217 93.7002 659.643 83 c 1
 659.005 80 l 1
 579.474 23.4004 490.374 -10 373.874 -10 c 0
 172.874 -10 60.4824 134 97.2549 307 c 0
 144.018 527 348.862 658 520.862 658 c 0
 642.862 658 729.297 613 729.297 613 c 1
 730.659 610 l 1
 708.381 560.7 701.506 550 687.065 499 c 1
 676.854 498 l 1
 653.283 580 586.872 611 496.872 611 c 0
 361.872 611 241.703 502 204.506 327 c 0
 176.448 195 228.652 36 406.652 36 c 0
 460.652 36 520.928 42 561.729 74 c 1
 570.869 117 l 1
EndSplineSet
Position2: "'cpsp' Versalabstaende 1" dx=2 dy=0 dh=5 dv=0
Colour: ff00ff
EndChar

StartChar: gcircumflex
Encoding: 285 285 49
Width: 479
VWidth: 999
Flags: HW
HStem: -238 43<141.427 314.366> -15 62<137.607 251.772> -12 66<172.809 355.253> 136 44<169.974 279.135> 395 44<163.808 275.455>
VStem: 32 66<-157.208 -57.419> 59 78<215.424 363.363> 64 56<55.5258 149.891> 103 253<516 516> 308 76<209.668 361.501> 392 61<-135.741 -44.0939>
LayerCount: 2
Fore
SplineSet
392.099 645 m 1
 411.108 598 438.182 556 465.679 516 c 1
 441.703 502 l 1
 408.867 531 381.182 556 354.834 592 c 1
 309.756 554 272.442 529 228.703 502 c 1
 211.679 516 l 1
 256.182 556 303.321 599 342.099 645 c 1
 392.099 645 l 1
144.188 -13.7002 m 1
 101.182 -42.9004 82.9297 -70.9004 75.8945 -104 c 0
 61.4404 -172 136.552 -195 170.552 -195 c 0
 256.552 -195 359.691 -152 372.657 -91 c 0
 378.184 -65 374.702 -50.7998 341.836 -29 c 0
 317.736 -13 280.449 -12 232.449 -12 c 0
 218.649 -12 192.312 -15 162.812 -15 c 0
 156.912 -15 150.418 -14.5 144.188 -13.7002 c 1
445.429 289 m 0
 424.599 191 334.907 136 250.907 136 c 0
 213.907 136 190.396 143 170.371 157 c 1
 155.758 140 145.294 119 141.043 99 c 0
 131.903 56 159.99 47 187.99 47 c 0
 192.99 47 203.203 48 217.415 49 c 0
 241.053 52 264.479 54 281.479 54 c 0
 316.479 54 384.766 53 415.464 21 c 0
 438.384 -2.90039 445.348 -36 438.546 -68 c 0
 415.59 -176 262.411 -238 133.411 -238 c 0
 60.4111 -238 -12.8496 -211 5.64258 -124 c 0
 14.7832 -81 51.5605 -35 109.362 -3 c 1
 87.126 10 72.0771 38 79.7295 74 c 0
 86.9561 108 111.096 151 143.197 175 c 1
 121.937 202 108.525 233 120.004 287 c 0
 139.559 379 231.312 439 316.312 439 c 0
 337.812 439 357.074 436 373.784 430.4 c 1
 449.213 434.3 486.767 444.9 535.438 449 c 1
 537.8 446 l 1
 533.887 437 531.187 429 529.273 420 c 0
 527.36 411 526.66 403 526.747 394 c 1
 523.109 391 l 1
 482.803 395.2 450.51 399 420.92 401.4 c 1
 446.009 375 455.44 336.1 445.429 289 c 0
367.304 279 m 0
 383.245 354 357.96 395 297.96 395 c 0
 245.96 395 210.757 347 201.192 302 c 0
 187.589 238 199.26 180 265.26 180 c 0
 300.26 180 352.212 208 367.304 279 c 0
EndSplineSet
Colour: ff00ff
EndChar

StartChar: Gbreve
Encoding: 286 286 50
Width: 699
VWidth: 999
Flags: HW
HStem: -10 46<295.106 519.78> 611 47<271.555 476.844> 693 52<293 449>
VStem: 32 103<213.43 430.807> 236 28<766 804> 480 27<768 806> 546 86<83.5114 304.327>
LayerCount: 2
Fore
SplineSet
679.32 806 m 1
 658.229 735 585.302 693 519.302 693 c 0
 446.302 693 397.441 736 407.32 806 c 1
 435.32 806 l 1
 435.031 767 477.354 745 530.354 745 c 0
 579.354 745 636.031 767 651.32 806 c 1
 679.32 806 l 1
570.869 117 m 1
 585.311 192 597.139 250 601.255 307 c 1
 603.893 310 l 1
 603.893 310 620.255 307 654.255 307 c 0
 689.255 307 706.893 310 706.893 310 c 1
 707.255 307 l 1
 687.989 254 677.062 212 661.12 137 c 2
 659.845 131 l 2
 657.507 120 653.217 93.7002 659.643 83 c 1
 659.005 80 l 1
 579.474 23.4004 490.374 -10 373.874 -10 c 0
 172.874 -10 60.4824 134 97.2549 307 c 0
 144.018 527 348.862 658 520.862 658 c 0
 642.862 658 729.297 613 729.297 613 c 1
 730.659 610 l 1
 708.381 560.7 701.506 550 687.065 499 c 1
 676.854 498 l 1
 653.283 580 586.872 611 496.872 611 c 0
 361.872 611 241.703 502 204.506 327 c 0
 176.448 195 228.652 36 406.652 36 c 0
 460.652 36 520.928 42 561.729 74 c 1
 570.869 117 l 1
EndSplineSet
Position2: "'cpsp' Versalabstaende 1" dx=2 dy=0 dh=5 dv=0
Substitution2: "'c2sc' Versale nach Kapitaelchen 1" gbreve.sc
Colour: ff00ff
EndChar

StartChar: gbreve
Encoding: 287 287 51
Width: 479
VWidth: 999
Flags: HW
HStem: -238 43<141.427 314.366> -15 62<137.607 251.772> -12 66<172.809 355.253> 136 44<169.974 279.135> 395 44<163.808 275.455> 497 57<150.968 287.898>
VStem: 32 66<-157.208 -57.419> 59 78<215.424 363.363> 64 56<55.5258 149.891> 85 26<603.805 635.769> 308 76<209.668 361.501> 328 27<605.333 635.63> 392 61<-135.741 -44.0939>
LayerCount: 2
Fore
SplineSet
248.887 644 m 1
 248.621 591 283.756 554 337.756 554 c 0
 389.756 554 442.559 586 464.887 644 c 1
 489.336 632 l 1
 459.056 546 384.641 497 325.641 497 c 0
 255.641 497 215.269 547 219.336 632 c 1
 248.887 644 l 1
144.188 -13.7002 m 1
 101.182 -42.9004 82.9297 -70.9004 75.8945 -104 c 0
 61.4404 -172 136.552 -195 170.552 -195 c 0
 256.552 -195 359.691 -152 372.657 -91 c 0
 378.184 -65 374.702 -50.7998 341.836 -29 c 0
 317.736 -13 280.449 -12 232.449 -12 c 0
 218.649 -12 192.312 -15 162.812 -15 c 0
 156.912 -15 150.418 -14.5 144.188 -13.7002 c 1
445.429 289 m 0
 424.599 191 334.907 136 250.907 136 c 0
 213.907 136 190.396 143 170.371 157 c 1
 155.758 140 145.294 119 141.043 99 c 0
 131.903 56 159.99 47 187.99 47 c 0
 192.99 47 203.203 48 217.415 49 c 0
 241.053 52 264.479 54 281.479 54 c 0
 316.479 54 384.766 53 415.464 21 c 0
 438.384 -2.90039 445.348 -36 438.546 -68 c 0
 415.59 -176 262.411 -238 133.411 -238 c 0
 60.4111 -238 -12.8496 -211 5.64258 -124 c 0
 14.7832 -81 51.5605 -35 109.362 -3 c 1
 87.126 10 72.0771 38 79.7295 74 c 0
 86.9561 108 111.096 151 143.197 175 c 1
 121.937 202 108.525 233 120.004 287 c 0
 139.559 379 231.312 439 316.312 439 c 0
 337.812 439 357.074 436 373.784 430.4 c 1
 449.213 434.3 486.767 444.9 535.438 449 c 1
 537.8 446 l 1
 533.887 437 531.187 429 529.273 420 c 0
 527.36 411 526.66 403 526.747 394 c 1
 523.109 391 l 1
 482.803 395.2 450.51 399 420.92 401.4 c 1
 446.009 375 455.44 336.1 445.429 289 c 0
367.304 279 m 0
 383.245 354 357.96 395 297.96 395 c 0
 245.96 395 210.757 347 201.192 302 c 0
 187.589 238 199.26 180 265.26 180 c 0
 300.26 180 352.212 208 367.304 279 c 0
EndSplineSet
AlternateSubs2: "'aalt' Alle Alternativen zeigen 1" gbreve.sc
Substitution2: "'smcp' Gemeine nach Kapitaelchen 1" gbreve.sc
Colour: ff00ff
EndChar

StartChar: Gdotaccent
Encoding: 288 288 52
Width: 699
VWidth: 999
Flags: HW
HStem: -10 46<295.106 519.78> 611 47<271.555 476.844> 701 104<333.248 416.458>
VStem: 32 103<213.43 430.807> 323 104<711.542 794.752> 546 86<83.5114 304.327>
LayerCount: 2
Fore
SplineSet
484.055 753 m 0
 489.794 780 518.896 804 545.896 804 c 0
 572.896 804 591.794 780 586.055 753 c 0
 580.316 726 551.215 702 524.215 702 c 0
 497.215 702 478.316 726 484.055 753 c 0
570.869 117 m 1
 585.311 192 597.139 250 601.255 307 c 1
 603.893 310 l 1
 603.893 310 620.255 307 654.255 307 c 0
 689.255 307 706.893 310 706.893 310 c 1
 707.255 307 l 1
 687.989 254 677.062 212 661.12 137 c 2
 659.845 131 l 2
 657.507 120 653.217 93.7002 659.643 83 c 1
 659.005 80 l 1
 579.474 23.4004 490.374 -10 373.874 -10 c 0
 172.874 -10 60.4824 134 97.2549 307 c 0
 144.018 527 348.862 658 520.862 658 c 0
 642.862 658 729.297 613 729.297 613 c 1
 730.659 610 l 1
 708.381 560.7 701.506 550 687.065 499 c 1
 676.854 498 l 1
 653.283 580 586.872 611 496.872 611 c 0
 361.872 611 241.703 502 204.506 327 c 0
 176.448 195 228.652 36 406.652 36 c 0
 460.652 36 520.928 42 561.729 74 c 1
 570.869 117 l 1
EndSplineSet
Position2: "'cpsp' Versalabstaende 1" dx=2 dy=0 dh=5 dv=0
Colour: ff00ff
EndChar

StartChar: gdotaccent
Encoding: 289 289 53
Width: 479
VWidth: 999
Flags: HW
HStem: -238 43<141.427 314.366> -15 62<137.607 251.772> -12 66<172.809 355.253> 136 44<169.974 279.135> 395 44<163.808 275.455> 518 104<183.248 266.458>
VStem: 32 66<-157.208 -57.419> 59 78<215.424 363.363> 64 56<55.5258 149.891> 173 104<528.542 611.752> 308 76<209.668 361.501> 392 61<-135.741 -44.0939>
LayerCount: 2
Fore
SplineSet
295.157 570 m 0
 300.896 597 329.998 621 356.998 621 c 0
 383.998 621 402.896 597 397.157 570 c 0
 391.418 543 362.316 519 335.316 519 c 0
 308.316 519 289.418 543 295.157 570 c 0
144.188 -13.7002 m 1
 101.182 -42.9004 82.9297 -70.9004 75.8945 -104 c 0
 61.4404 -172 136.552 -195 170.552 -195 c 0
 256.552 -195 359.691 -152 372.657 -91 c 0
 378.184 -65 374.702 -50.7998 341.836 -29 c 0
 317.736 -13 280.449 -12 232.449 -12 c 0
 218.649 -12 192.312 -15 162.812 -15 c 0
 156.912 -15 150.418 -14.5 144.188 -13.7002 c 1
445.429 289 m 0
 424.599 191 334.907 136 250.907 136 c 0
 213.907 136 190.396 143 170.371 157 c 1
 155.758 140 145.294 119 141.043 99 c 0
 131.903 56 159.99 47 187.99 47 c 0
 192.99 47 203.203 48 217.415 49 c 0
 241.053 52 264.479 54 281.479 54 c 0
 316.479 54 384.766 53 415.464 21 c 0
 438.384 -2.90039 445.348 -36 438.546 -68 c 0
 415.59 -176 262.411 -238 133.411 -238 c 0
 60.4111 -238 -12.8496 -211 5.64258 -124 c 0
 14.7832 -81 51.5605 -35 109.362 -3 c 1
 87.126 10 72.0771 38 79.7295 74 c 0
 86.9561 108 111.096 151 143.197 175 c 1
 121.937 202 108.525 233 120.004 287 c 0
 139.559 379 231.312 439 316.312 439 c 0
 337.812 439 357.074 436 373.784 430.4 c 1
 449.213 434.3 486.767 444.9 535.438 449 c 1
 537.8 446 l 1
 533.887 437 531.187 429 529.273 420 c 0
 527.36 411 526.66 403 526.747 394 c 1
 523.109 391 l 1
 482.803 395.2 450.51 399 420.92 401.4 c 1
 446.009 375 455.44 336.1 445.429 289 c 0
367.304 279 m 0
 383.245 354 357.96 395 297.96 395 c 0
 245.96 395 210.757 347 201.192 302 c 0
 187.589 238 199.26 180 265.26 180 c 0
 300.26 180 352.212 208 367.304 279 c 0
EndSplineSet
Colour: ff00ff
EndChar

StartChar: Gcommaaccent
Encoding: 290 290 54
Width: 699
VWidth: 999
Flags: HW
HStem: -231 17<330 351.215> -134 81<329.998 402.485> -10 46<295.106 519.78> 611 47<271.555 476.844>
VStem: 32 103<213.43 430.807> 405 32<-177.598 -107.5> 546 86<83.5114 304.327>
LayerCount: 2
Fore
SplineSet
361.821 -62 m 0
 399.821 -62 416.595 -96 405.542 -148 c 0
 392.788 -208 337.411 -238 278.498 -247 c 1
 273.773 -241 273.687 -232 275.6 -223 c 1
 326.938 -212 358.039 -188 361.865 -170 c 0
 366.116 -150 353.967 -146 336.392 -144 c 1
 320.029 -141 296.942 -132 302.682 -105 c 0
 307.783 -81 332.821 -62 361.821 -62 c 0
570.869 117 m 1
 585.311 192 597.139 250 601.255 307 c 1
 603.893 310 l 1
 603.893 310 620.255 307 654.255 307 c 0
 689.255 307 706.893 310 706.893 310 c 1
 707.255 307 l 1
 687.989 254 677.062 212 661.12 137 c 2
 659.845 131 l 2
 657.507 120 653.217 93.7002 659.643 83 c 1
 659.005 80 l 1
 579.474 23.4004 490.374 -10 373.874 -10 c 0
 172.874 -10 60.4824 134 97.2549 307 c 0
 144.018 527 348.862 658 520.862 658 c 0
 642.862 658 729.297 613 729.297 613 c 1
 730.659 610 l 1
 708.381 560.7 701.506 550 687.065 499 c 1
 676.854 498 l 1
 653.283 580 586.872 611 496.872 611 c 0
 361.872 611 241.703 502 204.506 327 c 0
 176.448 195 228.652 36 406.652 36 c 0
 460.652 36 520.928 42 561.729 74 c 1
 570.869 117 l 1
EndSplineSet
Position2: "'cpsp' Versalabstaende 1" dx=2 dy=0 dh=5 dv=0
Colour: ff00ff
EndChar

StartChar: gcommaaccent
Encoding: 291 291 55
Width: 479
VWidth: 999
Flags: HW
HStem: -238 43<141.427 314.366> -15 62<137.607 251.772> -12 66<172.809 355.253> 136 44<169.974 279.135> 395 44<163.808 275.455> 511 82<199.561 272.708> 673 17<251.498 273>
VStem: 32 66<-157.208 -57.419> 59 78<215.424 363.363> 64 56<55.5258 149.891> 166 32<584 635.93> 308 76<209.668 361.501> 392 61<-135.741 -44.0939>
LayerCount: 2
Fore
SplineSet
336.616 511 m 0
 297.616 511 282.481 548 290.133 584 c 0
 295.234 608 306.91 630 327.162 650 c 0
 348.547 671.1 380.239 688 419.302 693 c 1
 422.451 689 421.538 680 420.051 673 c 1
 360.5 661 333.698 629 328.81 606 c 0
 324.644 586.4 330.846 593 355.046 593 c 0
 395.046 593 399.944 569 396.331 552 c 0
 392.931 536 371.616 511 336.616 511 c 0
144.188 -13.7002 m 1
 101.182 -42.9004 82.9297 -70.9004 75.8945 -104 c 0
 61.4404 -172 136.552 -195 170.552 -195 c 0
 256.552 -195 359.691 -152 372.657 -91 c 0
 378.184 -65 374.702 -50.7998 341.836 -29 c 0
 317.736 -13 280.449 -12 232.449 -12 c 0
 218.649 -12 192.312 -15 162.812 -15 c 0
 156.912 -15 150.418 -14.5 144.188 -13.7002 c 1
445.429 289 m 0
 424.599 191 334.907 136 250.907 136 c 0
 213.907 136 190.396 143 170.371 157 c 1
 155.758 140 145.294 119 141.043 99 c 0
 131.903 56 159.99 47 187.99 47 c 0
 192.99 47 203.203 48 217.415 49 c 0
 241.053 52 264.479 54 281.479 54 c 0
 316.479 54 384.766 53 415.464 21 c 0
 438.384 -2.90039 445.348 -36 438.546 -68 c 0
 415.59 -176 262.411 -238 133.411 -238 c 0
 60.4111 -238 -12.8496 -211 5.64258 -124 c 0
 14.7832 -81 51.5605 -35 109.362 -3 c 1
 87.126 10 72.0771 38 79.7295 74 c 0
 86.9561 108 111.096 151 143.197 175 c 1
 121.937 202 108.525 233 120.004 287 c 0
 139.559 379 231.312 439 316.312 439 c 0
 337.812 439 357.074 436 373.784 430.4 c 1
 449.213 434.3 486.767 444.9 535.438 449 c 1
 537.8 446 l 1
 533.887 437 531.187 429 529.273 420 c 0
 527.36 411 526.66 403 526.747 394 c 1
 523.109 391 l 1
 482.803 395.2 450.51 399 420.92 401.4 c 1
 446.009 375 455.44 336.1 445.429 289 c 0
367.304 279 m 0
 383.245 354 357.96 395 297.96 395 c 0
 245.96 395 210.757 347 201.192 302 c 0
 187.589 238 199.26 180 265.26 180 c 0
 300.26 180 352.212 208 367.304 279 c 0
EndSplineSet
Colour: ff00ff
EndChar

StartChar: Hcircumflex
Encoding: 292 292 56
Width: 700
VWidth: 999
Flags: HW
HStem: -3 21<93 146 146 199 501 554 554 607> 321 42<187 513> 628 20<93 146 146 199 501 554 554 607>
VStem: 103 86<2.67992 642.32> 511 86<2.67992 642.32>
LayerCount: 2
Fore
SplineSet
605.588 445 m 2
 621.529 520 633.983 588 638.099 645 c 1
 640.736 648 l 1
 640.736 648 657.099 645 691.099 645 c 0
 726.099 645 743.736 648 743.736 648 c 1
 744.099 645 l 1
 724.834 592 707.529 520 691.588 445 c 2
 639.512 200 l 2
 623.569 125 611.115 57 607 0 c 1
 604.362 -3 l 1
 604.362 -3 588 0 554 0 c 0
 519 0 501.362 -3 501.362 -3 c 1
 501 0 l 1
 520.479 54 537.569 125 553.512 200 c 2
 579.23 321 l 1
 257.23 321 l 1
 231.512 200 l 2
 215.569 125 203.115 57 199 0 c 1
 196.362 -3 l 1
 196.362 -3 180 0 146 0 c 0
 111 0 93.3623 -3 93.3623 -3 c 1
 93 0 l 1
 112.479 54 129.569 125 145.512 200 c 2
 197.588 445 l 2
 213.529 520 225.983 588 230.099 645 c 1
 232.736 648 l 1
 232.736 648 249.099 645 283.099 645 c 0
 318.099 645 335.736 648 335.736 648 c 1
 336.099 645 l 1
 316.834 592 299.529 520 283.588 445 c 2
 266.158 363 l 1
 588.158 363 l 1
 605.588 445 l 2
538.683 803 m 1
 561.031 767 589.441 736 619.702 709 c 1
 599.239 688 l 1
 564.064 706 534.104 725 506.417 750 c 1
 463.679 723 427.853 705 386.239 688 c 1
 376.702 709 l 1
 419.654 737 457.456 769 495.683 803 c 1
 538.683 803 l 1
EndSplineSet
Position2: "'cpsp' Versalabstaende 1" dx=2 dy=0 dh=5 dv=0
Colour: ff00ff
EndChar

StartChar: hcircumflex
Encoding: 293 293 57
Width: 520
VWidth: 999
Flags: HW
HStem: -3 21<73 123 123 173 348 398 398 448> 382 57<239.694 343.936> 678 20<151.465 167.167>
VStem: 83 80<2.66453 327.568 360 667.98> 358 80<2.66453 368.709>
LayerCount: 2
Fore
SplineSet
462.847 832 m 1
 485.195 796 513.605 765 543.867 738 c 1
 523.403 717 l 1
 488.229 735 458.268 754 430.582 779 c 1
 387.843 752 352.017 734 310.403 717 c 1
 300.867 738 l 1
 343.818 766 381.62 798 419.847 832 c 1
 462.847 832 l 1
396.26 180 m 2
 418.578 285 l 2
 435.796 366 420.196 382 364.196 382 c 0
 335.196 382 286.67 356 228.68 309 c 1
 201.26 180 l 2
 185.063 103.8 176.615 57 173 0 c 1
 170.362 -3 l 1
 170.362 -3 157.3 0 123 0 c 0
 88 0 73.3623 -3 73.3623 -3 c 1
 73 0 l 1
 92.8721 53.5 105.425 105.5 121.26 180 c 2
 185.239 481 l 2
 201.394 557 214.037 627.3 215.413 670 c 1
 218.051 673 l 1
 259.188 676 285.139 688 312.364 698 c 1
 318.664 698 320.727 695 319.239 688 c 0
 298.509 626.7 285.22 575 269.491 501 c 2
 239.521 360 l 1
 320.762 427 382.312 439 421.312 439 c 0
 493.312 439 520.26 387 498.366 284 c 2
 476.26 180 l 2
 460.063 103.8 451.615 57 448 0 c 1
 445.362 -3 l 1
 445.362 -3 432.3 0 398 0 c 0
 363 0 348.362 -3 348.362 -3 c 1
 348 0 l 1
 367.872 53.5 380.425 105.5 396.26 180 c 2
EndSplineSet
Colour: ff00ff
EndChar

StartChar: Hbar
Encoding: 294 294 58
Width: 700
VWidth: 999
Flags: HW
HStem: -3 21<93 146 146 199 501 554 554 607> 321 42<187 513> 512 34<41 656> 628 20<93 146 146 199 501 554 554 607>
VStem: 103 86<2.67992 642.32> 511 86<2.67992 642.32>
LayerCount: 2
Fore
SplineSet
588.158 363 m 1
 605.588 445 l 2
 610.477 468 615.038 490.4 619.129 512 c 1
 298.529 512 l 1
 293.396 490.2 288.434 467.8 283.588 445 c 2
 266.158 363 l 1
 588.158 363 l 1
579.23 321 m 1
 257.23 321 l 1
 231.512 200 l 2
 215.569 125 203.115 57 199 0 c 1
 196.362 -3 l 1
 196.362 -3 180 0 146 0 c 0
 111 0 93.3623 -3 93.3623 -3 c 1
 93 0 l 1
 112.479 54 129.569 125 145.512 200 c 2
 197.588 445 l 2
 202.477 468 207.038 490.4 211.129 512 c 1
 149.829 512 l 1
 157.056 546 l 1
 217.256 546 l 1
 223.344 581.7 227.901 614.9 230.099 645 c 1
 232.736 648 l 1
 232.736 648 249.099 645 283.099 645 c 0
 318.099 645 335.736 648 335.736 648 c 1
 336.099 645 l 1
 325.763 616.6 316.078 582.8 306.756 546 c 1
 625.256 546 l 1
 631.344 581.7 635.901 614.9 638.099 645 c 1
 640.736 648 l 1
 640.736 648 657.099 645 691.099 645 c 0
 726.099 645 743.736 648 743.736 648 c 1
 744.099 645 l 1
 733.763 616.6 724.078 582.8 714.756 546 c 1
 772.056 546 l 1
 764.829 512 l 1
 706.529 512 l 1
 701.396 490.2 696.434 467.8 691.588 445 c 2
 639.512 200 l 2
 623.569 125 611.115 57 607 0 c 1
 604.362 -3 l 1
 604.362 -3 588 0 554 0 c 0
 519 0 501.362 -3 501.362 -3 c 1
 501 0 l 1
 520.479 54 537.569 125 553.512 200 c 2
 579.23 321 l 1
EndSplineSet
Position2: "'cpsp' Versalabstaende 1" dx=2 dy=0 dh=5 dv=0
Colour: ff80cc
EndChar

StartChar: hbar
Encoding: 295 295 59
Width: 520
VWidth: 999
Flags: HW
HStem: -3 21<73 123 123 173 348 398 398 448> 382 57<239.694 343.936> 530 39<26 341> 678 20<151.465 167.167>
VStem: 83 80<2.66453 327.568 360 667.98> 358 80<2.66453 368.709>
LayerCount: 2
Fore
SplineSet
396.26 180 m 2
 418.578 285 l 2
 435.796 366 420.196 382 364.196 382 c 0
 335.196 382 286.67 356 228.68 309 c 1
 201.26 180 l 2
 185.063 103.8 176.615 57 173 0 c 1
 170.362 -3 l 1
 170.362 -3 157.3 0 123 0 c 0
 88 0 73.3623 -3 73.3623 -3 c 1
 73 0 l 1
 92.8721 53.5 105.425 105.5 121.26 180 c 2
 185.239 481 l 2
 188.789 497.7 192.176 514.1 195.255 530 c 1
 138.655 530 l 1
 146.944 569 l 1
 202.645 569 l 1
 209.832 609.4 214.614 644.6 215.413 670 c 1
 218.051 673 l 1
 259.188 676 285.139 688 312.364 698 c 1
 318.664 698 320.727 695 319.239 688 c 0
 305.467 647.2 295.008 610.7 284.845 569 c 1
 461.944 569 l 1
 453.655 530 l 1
 275.755 530 l 1
 273.678 520.7 271.638 511.1 269.491 501 c 2
 239.521 360 l 1
 320.762 427 382.312 439 421.312 439 c 0
 493.312 439 520.26 387 498.366 284 c 2
 476.26 180 l 2
 460.063 103.8 451.615 57 448 0 c 1
 445.362 -3 l 1
 445.362 -3 432.3 0 398 0 c 0
 363 0 348.362 -3 348.362 -3 c 1
 348 0 l 1
 367.872 53.5 380.425 105.5 396.26 180 c 2
EndSplineSet
Colour: ff80cc
EndChar

StartChar: Itilde
Encoding: 296 296 60
Width: 293
VWidth: 999
Flags: HW
HStem: -3 21<96 149 149 202> 628 20<96 149 149 202> 697 44<162 249> 745 46<44 135> 784 10
VStem: 106 86<2.67992 642.32>
LayerCount: 2
Fore
SplineSet
370.504 741 m 0
 392.504 741 408.63 751 431.558 793 c 1
 454.282 787 l 1
 429.528 727 394.152 697 348.152 697 c 0
 326.152 697 307.702 709 289.679 723 c 0
 274.017 734 257.354 745 240.354 745 c 0
 214.354 745 198.166 730 181.152 697 c 1
 158.215 702 l 1
 184.756 761 214.132 791 257.132 791 c 0
 287.132 791 306.156 777 323.181 763 c 0
 336.63 751 351.504 741 370.504 741 c 0
200.588 445 m 2
 216.529 520 228.983 588 233.099 645 c 1
 235.736 648 l 1
 235.736 648 252.099 645 286.099 645 c 0
 321.099 645 338.736 648 338.736 648 c 1
 339.099 645 l 1
 319.834 592 302.529 520 286.588 445 c 2
 234.512 200 l 2
 218.569 125 206.115 57 202 0 c 1
 199.362 -3 l 1
 199.362 -3 183 0 149 0 c 0
 114 0 96.3623 -3 96.3623 -3 c 1
 96 0 l 1
 115.479 54 132.569 125 148.512 200 c 2
 200.588 445 l 2
EndSplineSet
Position2: "'cpsp' Versalabstaende 1" dx=2 dy=0 dh=5 dv=0
Colour: ff00ff
EndChar

StartChar: itilde
Encoding: 297 297 61
Width: 268
VWidth: 999
Flags: HW
HStem: -3 21<84 134 134 184> 419 20<162.5 178> 526 44<149.2 227.5> 574 46<43 124.9> 613 10
VStem: 94 80<2.6647 408.973>
LayerCount: 2
Fore
SplineSet
316.257 570 m 0
 336.058 570 350.783 580 372.311 622 c 1
 392.635 616 l 1
 369.081 556 336.604 526 295.205 526 c 0
 275.404 526 259.056 538 243.131 552 c 0
 229.27 563 214.508 574 199.207 574 c 0
 175.808 574 160.919 559 144.904 526 c 1
 124.367 531 l 1
 149.509 590 176.585 620 215.285 620 c 0
 242.285 620 259.109 606 274.134 592 c 0
 285.982 580 299.157 570 316.257 570 c 0
143.951 235 m 2
 159.893 310 170.221 368 171.36 411 c 1
 173.998 414 l 1
 214.636 417 241.187 429 268.312 439 c 1
 274.312 439 276.675 436 275.187 429 c 0
 254.221 368 243.293 326 227.352 251 c 2
 212.26 180 l 2
 196.105 104 188.115 57 184 0 c 1
 181.362 -3 l 1
 181.362 -3 168 0 134 0 c 0
 99 0 84.3623 -3 84.3623 -3 c 1
 84 0 l 1
 103.479 54 116.318 105 132.26 180 c 2
 143.951 235 l 2
EndSplineSet
Colour: ff00ff
EndChar

StartChar: Imacron
Encoding: 298 298 62
Width: 293
VWidth: 999
Flags: HW
HStem: -3 21<96 149 149 202> 628 20<96 149 149 202> 733 44<9.0876 287.515>
VStem: 8 281<733.205 777> 106 86<2.67992 642.32>
LayerCount: 2
Fore
SplineSet
420.804 733 m 2
 176.804 733 l 2
 167.804 733 165.505 741 166.992 748 c 0
 169.543 760 184.156 777 195.156 777 c 2
 440.156 777 l 2
 450.156 777 452.456 769 451.181 763 c 0
 448.63 751 433.804 733 420.804 733 c 2
200.588 445 m 2
 216.529 520 228.983 588 233.099 645 c 1
 235.736 648 l 1
 235.736 648 252.099 645 286.099 645 c 0
 321.099 645 338.736 648 338.736 648 c 1
 339.099 645 l 1
 319.834 592 302.529 520 286.588 445 c 2
 234.512 200 l 2
 218.569 125 206.115 57 202 0 c 1
 199.362 -3 l 1
 199.362 -3 183 0 149 0 c 0
 114 0 96.3623 -3 96.3623 -3 c 1
 96 0 l 1
 115.479 54 132.569 125 148.512 200 c 2
 200.588 445 l 2
EndSplineSet
Position2: "'cpsp' Versalabstaende 1" dx=2 dy=0 dh=5 dv=0
Colour: ff00ff
EndChar

StartChar: imacron
Encoding: 299 299 63
Width: 268
VWidth: 999
Flags: HW
HStem: -3 21<84 134 134 184> 419 20<162.5 178> 538 44<9.57884 260.164>
VStem: 8.6 252.9<538.205 582> 94 80<2.6647 408.973>
LayerCount: 2
Fore
SplineSet
354.256 538 m 2
 134.655 538 l 2
 126.556 538 124.656 546 126.144 553 c 0
 128.694 565 142.208 582 152.107 582 c 2
 372.607 582 l 2
 381.607 582 383.508 574 382.232 568 c 0
 379.682 556 365.955 538 354.256 538 c 2
143.951 235 m 2
 159.893 310 170.221 368 171.36 411 c 1
 173.998 414 l 1
 214.636 417 241.187 429 268.312 439 c 1
 274.312 439 276.675 436 275.187 429 c 0
 254.221 368 243.293 326 227.352 251 c 2
 212.26 180 l 2
 196.105 104 188.115 57 184 0 c 1
 181.362 -3 l 1
 181.362 -3 168 0 134 0 c 0
 99 0 84.3623 -3 84.3623 -3 c 1
 84 0 l 1
 103.479 54 116.318 105 132.26 180 c 2
 143.951 235 l 2
EndSplineSet
Colour: ff00ff
EndChar

StartChar: Ibreve
Encoding: 300 300 64
Width: 293
VWidth: 999
Flags: HW
HStem: -3 21<96 149 149 202> 628 20<96 149 149 202> 692 52<70 226>
VStem: 13 28<765 803> 106 86<2.67992 642.32> 257 27<767 805>
LayerCount: 2
Fore
SplineSet
456.108 805 m 1
 435.017 734 362.089 692 296.089 692 c 0
 223.089 692 174.229 735 184.108 805 c 1
 212.108 805 l 1
 211.818 766 254.142 744 307.143 744 c 0
 356.143 744 412.818 766 428.108 805 c 1
 456.108 805 l 1
200.588 445 m 2
 216.529 520 228.983 588 233.099 645 c 1
 235.736 648 l 1
 235.736 648 252.099 645 286.099 645 c 0
 321.099 645 338.736 648 338.736 648 c 1
 339.099 645 l 1
 319.834 592 302.529 520 286.588 445 c 2
 234.512 200 l 2
 218.569 125 206.115 57 202 0 c 1
 199.362 -3 l 1
 199.362 -3 183 0 149 0 c 0
 114 0 96.3623 -3 96.3623 -3 c 1
 96 0 l 1
 115.479 54 132.569 125 148.512 200 c 2
 200.588 445 l 2
EndSplineSet
Position2: "'cpsp' Versalabstaende 1" dx=2 dy=0 dh=5 dv=0
Colour: ff00ff
EndChar

StartChar: ibreve
Encoding: 301 301 65
Width: 268
VWidth: 999
Flags: HW
HStem: -3 21<84 134 134 184> 419 20<162.5 178> 503 57<74.2712 197.508>
VStem: 14.9 23.4<609.805 641.769> 94 80<2.6647 408.973> 233.6 24.3<611.333 641.63>
LayerCount: 2
Fore
SplineSet
177.361 650 m 1
 175.996 597 206.832 560 255.432 560 c 0
 302.231 560 350.434 592 371.762 650 c 1
 393.511 638 l 1
 364.432 552 296.416 503 243.316 503 c 0
 180.316 503 145.044 553 150.511 638 c 1
 177.361 650 l 1
143.951 235 m 2
 159.893 310 170.221 368 171.36 411 c 1
 173.998 414 l 1
 214.636 417 241.187 429 268.312 439 c 1
 274.312 439 276.675 436 275.187 429 c 0
 254.221 368 243.293 326 227.352 251 c 2
 212.26 180 l 2
 196.105 104 188.115 57 184 0 c 1
 181.362 -3 l 1
 181.362 -3 168 0 134 0 c 0
 99 0 84.3623 -3 84.3623 -3 c 1
 84 0 l 1
 103.479 54 116.318 105 132.26 180 c 2
 143.951 235 l 2
EndSplineSet
Colour: ff00ff
EndChar

StartChar: Iogonek
Encoding: 302 302 66
Width: 293
VWidth: 999
Flags: HW
HStem: -225 39<73.1814 157.134> -3 21<96 149 149 202> -1 25<142.256 178.88> 628 20<96 149 149 202>
VStem: -1 60<-174.091 -75.5789> 106 86<2.67992 642.32>
LayerCount: 2
Fore
SplineSet
44.1748 -225 m 0
 -8.8252 -225 -42.2363 -194 -30.7578 -140 c 0
 -20.8105 -93.2002 30.3477 -36 96.29 -2.40039 c 1
 96 0 l 1
 115.479 54 132.569 125 148.512 200 c 2
 200.588 445 l 2
 216.529 520 228.983 588 233.099 645 c 1
 235.736 648 l 1
 235.736 648 252.099 645 286.099 645 c 0
 321.099 645 338.736 648 338.736 648 c 1
 339.099 645 l 1
 319.834 592 302.529 520 286.588 445 c 2
 234.512 200 l 2
 218.569 125 206.115 57 202 0 c 1
 199.362 -3 l 1
 199.362 -3 194.653 -2.09961 184.823 -1.2998 c 1
 108.597 -6.59961 42.4414 -77.9004 32.0049 -127 c 0
 25.2031 -159 41.4648 -186 77.4648 -186 c 0
 107.465 -186 131.652 -171 155.116 -150 c 1
 168.416 -158 l 1
 134.426 -205 80.1748 -225 44.1748 -225 c 0
EndSplineSet
Position2: "'cpsp' Versalabstaende 1" dx=2 dy=0 dh=5 dv=0
Colour: ff80cc
EndChar

StartChar: iogonek
Encoding: 303 303 67
Width: 268
VWidth: 999
Flags: HW
HStem: -225 39<52.2133 135.045> -3 21<84 134 134 184> -1 25<119.395 156.6> 419 20<162.5 178> 518 104<92.248 175.458>
VStem: -23 60<-174.091 -75.5789> 82 104<528.542 611.752> 94 80<2.6647 408.973>
LayerCount: 2
Fore
SplineSet
22.1748 -225 m 0
 -31.8252 -225 -64.2363 -194 -52.7578 -140 c 0
 -42.2363 -90.5 13.5508 -29.4004 85.0586 3.09961 c 1
 103.903 56 116.616 106.4 132.26 180 c 2
 143.951 235 l 2
 159.893 310 170.221 368 171.36 411 c 1
 173.998 414 l 1
 214.636 417 241.187 429 268.312 439 c 1
 274.312 439 276.675 436 275.187 429 c 0
 254.221 368 243.293 326 227.352 251 c 2
 212.26 180 l 2
 196.105 104 188.115 57 184 0 c 1
 181.362 -3 l 1
 181.362 -3 176.675 -2 165.866 -1.09961 c 1
 87.9287 -4.09961 20.6123 -77.0996 10.0049 -127 c 0
 3.20312 -159 19.4648 -186 55.4648 -186 c 0
 84.4648 -186 108.652 -171 132.116 -150 c 1
 146.416 -158 l 1
 112.426 -205 57.1748 -225 22.1748 -225 c 0
204.157 570 m 0
 209.896 597 238.998 621 265.998 621 c 0
 292.998 621 311.896 597 306.157 570 c 0
 300.418 543 271.316 519 244.316 519 c 0
 217.316 519 198.418 543 204.157 570 c 0
EndSplineSet
Colour: ff80cc
EndChar

StartChar: Idotaccent
Encoding: 304 304 68
Width: 293
VWidth: 999
Flags: HW
HStem: -3 21<96 149 149 202> 628 20<96 149 149 202> 698 104<104.248 187.458>
VStem: 94 104<708.542 791.752> 106 86<2.67992 642.32>
LayerCount: 2
Fore
SplineSet
254.417 750 m 0
 260.156 777 289.258 801 316.258 801 c 0
 343.258 801 362.156 777 356.417 750 c 0
 350.679 723 321.577 699 294.577 699 c 0
 267.577 699 248.679 723 254.417 750 c 0
200.588 445 m 2
 216.529 520 228.983 588 233.099 645 c 1
 235.736 648 l 1
 235.736 648 252.099 645 286.099 645 c 0
 321.099 645 338.736 648 338.736 648 c 1
 339.099 645 l 1
 319.834 592 302.529 520 286.588 445 c 2
 234.512 200 l 2
 218.569 125 206.115 57 202 0 c 1
 199.362 -3 l 1
 199.362 -3 183 0 149 0 c 0
 114 0 96.3623 -3 96.3623 -3 c 1
 96 0 l 1
 115.479 54 132.569 125 148.512 200 c 2
 200.588 445 l 2
EndSplineSet
Substitution2: "'c2sc' Versale nach Kapitaelchen 1" idotaccent.sc
Position2: "'cpsp' Versalabstaende 1" dx=2 dy=0 dh=5 dv=0
Colour: ff00ff
EndChar

StartChar: afii10057
Encoding: 1032 1032 69
Width: 385
VWidth: 999
Flags: HW
HStem: -10 60<57.8935 169.935> 628 20G<200 253 253 306>
VStem: 210 86<132.814 642.32>
AnchorPoint: "top_akzent" 423.32 806 basechar 0
AnchorPoint: "top_punkt" 404.679 723 basechar 0
LayerCount: 2
Fore
SplineSet
264.84 258 m 2
 304.588 445 l 2
 320.529 520 332.983 588 337.099 645 c 1
 339.736 648 l 1
 339.736 648 356.099 645 390.099 645 c 0
 425.099 645 442.736 648 442.736 648 c 1
 443.099 645 l 1
 423.834 592 406.529 520 390.588 445 c 2
 355.516 280 l 2
 331.178 165.5 314.517 135.1 247.028 66 c 0
 194.372 12.0996 135.874 -10 72.874 -10 c 0
 53.874 -10 36.7246 -6 29.7871 -1 c 1
 29.4248 2 l 1
 44.4639 21 62.1152 57 74.8545 84 c 1
 86.0674 85 l 1
 92.8164 65 107.628 50 136.628 50 c 0
 215.628 50 246.135 170 264.84 258 c 2
EndSplineSet
EndChar

StartChar: afii10061
Encoding: 1036 1036 70
Width: 632
VWidth: 999
Flags: HW
HStem: -3 21<96 149 149 202> -2 29<566 583> 323 43<187 280.713> 590 61<426.699 532.056> 628 20<96 149 149 202> 698 122
VStem: 106 86<2.67992 642.32> 288 201
LayerCount: 2
Fore
SplineSet
601.297 820 m 1
 627.069 806.7 644.071 789.3 652.243 768 c 1
 495.915 710 l 2
 473.002 701 460.364 698 451.364 698 c 0
 442.364 698 437.853 705 439.553 713 c 0
 441.041 720 444.104 725 459.017 734 c 2
 601.297 820 l 1
200.588 445 m 2
 216.529 520 228.983 588 233.099 645 c 1
 235.736 648 l 1
 235.736 648 252.099 645 286.099 645 c 0
 321.099 645 338.736 648 338.736 648 c 1
 339.099 645 l 1
 319.834 592 302.529 520 286.588 445 c 2
 267.904 357.1 l 1
 357.741 360.1 380.39 443.6 459.867 531 c 0
 516.367 593.1 588.862 658 666.862 658 c 0
 693.862 658 697.225 655 721.736 648 c 1
 725.461 642 l 1
 677.119 551 l 1
 664.481 548 l 1
 647.457 562 631.944 569 603.944 569 c 0
 580.944 569 540.906 550 494.703 502 c 0
 437.72 442.8 404.521 360 357.27 340 c 1
 356.632 337 l 1
 426.081 325 439.908 296.9 479.376 237 c 0
 543.415 139.8 530.918 89 596 0 c 1
 592.149 -4 l 1
 579.575 -2 541 0 516 0 c 0
 490 0 489.575 -2 466.149 -4 c 1
 434.517 73 423.869 117 406.922 169 c 0
 381.847 245.8 364.347 303.2 258.232 311.6 c 1
 234.512 200 l 2
 218.569 125 206.115 57 202 0 c 1
 199.362 -3 l 1
 199.362 -3 183 0 149 0 c 0
 114 0 96.3623 -3 96.3623 -3 c 1
 96 0 l 1
 115.479 54 132.569 125 148.512 200 c 2
 200.588 445 l 2
EndSplineSet
LCarets2: 1 0 
Colour: ff00ff
EndChar

StartChar: uni040D
Encoding: 1037 1037 71
Width: 700
VWidth: 999
Flags: HW
HStem: -2 29<20 52 242 274 427 459 649 682> 618 28<20 52 242 274 426 459 649 681>
VStem: 106 81<35.9534 78 134 609.354> 514 81<36.3852 505 561 608.905>
DStem2: 187 134 187 78 0.608002 0.793935<0 493.367>
LayerCount: 2
Fore
SplineSet
472.871 818 m 1
 576.017 734 l 2
 585.316 726 588.041 720 586.553 713 c 0
 584.853 705 576.364 698 568.364 698 c 0
 560.364 698 547.002 701 527.915 710 c 2
 387.307 773 l 1
 409.368 790.7 436.206 806.4 472.871 818 c 1
200.588 445 m 2
 216.529 520 228.983 588 233.099 645 c 1
 235.736 648 l 1
 235.736 648 252.099 645 286.099 645 c 0
 321.099 645 338.736 648 338.736 648 c 1
 339.099 645 l 1
 319.834 592 302.529 520 286.588 445 c 2
 234.512 200 l 2
 230.239 179.9 226.151 160.2 222.513 141.2 c 1
 627.875 555.5 l 1
 633.198 587.6 637.075 617.6 639.099 645 c 1
 641.736 648 l 1
 641.736 648 658.099 645 692.099 645 c 0
 727.099 645 744.736 648 744.736 648 c 1
 745.099 645 l 1
 725.834 592 708.529 520 692.588 445 c 2
 640.512 200 l 2
 624.569 125 612.115 57 608 0 c 1
 605.362 -3 l 1
 605.362 -3 589 0 555 0 c 0
 520 0 502.362 -3 502.362 -3 c 1
 502 0 l 1
 521.479 54 538.569 125 554.512 200 c 2
 606.588 445 l 2
 610.711 464.4 614.55 483.4 618.161 501.8 c 1
 212.898 87.5 l 1
 207.746 56.2002 203.918 26.9004 202 0 c 1
 199.362 -3 l 1
 199.362 -3 183 0 149 0 c 0
 114 0 96.3623 -3 96.3623 -3 c 1
 96 0 l 1
 115.479 54 132.569 125 148.512 200 c 2
 200.588 445 l 2
EndSplineSet
LCarets2: 1 0 
Colour: ff00ff
EndChar

StartChar: afii10062
Encoding: 1038 1038 72
Width: 580
VWidth: 999
Flags: HW
HStem: -22 62<133 229.447> 618 28<1 51.985 192 235 391 425 520.846 579> 697 31<266.536 357.309>
VStem: 187 70<735.681 802.162> 366 70<734.774 802.125>
DStem2: 170 575 88 559 0.41865 -0.908148<-32.5036 379.947> 283 136 342 161 0.370296 0.928914<-102.293 0 103.423 504.868>
LayerCount: 2
Fore
SplineSet
466.741 728 m 0
 499.741 728 526.354 745 529.968 762 c 0
 531.031 767 531.307 773 531.731 775 c 0
 534.92 790 548.108 805 571.108 805 c 0
 598.108 805 605.132 791 601.094 772 c 0
 590.041 720 526.152 697 460.152 697 c 0
 394.152 697 340.041 720 351.094 772 c 0
 355.132 791 368.108 805 395.108 805 c 0
 418.108 805 424.92 790 421.731 775 c 0
 421.307 773 419.031 767 417.968 762 c 0
 414.354 745 433.741 728 466.741 728 c 0
376.222 161 m 2
 305.399 54.0996 239.324 -22 149.324 -22 c 0
 107.324 -22 66.2129 1 73.0146 33 c 0
 78.9658 61 98.8545 84 130.854 84 c 0
 144.854 84 165.367 77 172.816 65 c 0
 177.903 56 190.565 45 204.565 45 c 0
 247.265 45 271.139 81.0996 307.996 138.3 c 1
 264.548 339.9 206.39 567.8 183.736 648 c 1
 200.099 645 226.099 645 243.099 645 c 0
 260.099 645 281.099 645 298.736 648 c 1
 300.96 618 324.022 470.1 374.745 242.5 c 1
 466.638 386.9 564.941 546.4 613.736 648 c 1
 625.099 645 652.099 645 663.099 645 c 0
 674.099 645 686.099 645 698.736 648 c 1
 376.222 161 l 2
EndSplineSet
LCarets2: 1 0 
Colour: ff00ff
EndChar

StartChar: afii10020
Encoding: 1043 1043 73
Width: 481
VWidth: 999
Flags: HW
HStem: -2 29<14 47 238 270> 605 40<184.437 406.492> 618 28<14 50>
VStem: 102 81<36.3415 603.635> 457 29<488.793 527.352>
LayerCount: 2
Fore
SplineSet
279.588 445 m 2
 227.512 200 l 2
 211.569 125 198.266 53 195 0 c 1
 193.362 -3 l 1
 193.362 -3 177 0 142 0 c 0
 108 0 89.3623 -3 89.3623 -3 c 1
 88 0 l 1
 108.115 57 125.569 125 141.512 200 c 2
 193.588 445 l 2
 209.529 520 222.621 591 226.099 645 c 1
 227.736 648 l 1
 227.736 648 245.099 645 279.099 645 c 2
 552.099 645 l 2
 573.099 645 596.312 646 612.736 648 c 1
 614.099 645 l 1
 610.123 631 608.061 626 605.935 616 c 0
 603.81 606 601.621 591 600.921 583 c 1
 598.07 579 l 1
 598.07 579 452.621 591 318.621 591 c 1
 306.52 567 283.201 462 279.588 445 c 2
EndSplineSet
Colour: ff00ff
EndChar

StartChar: afii10021
Encoding: 1044 1044 74
Width: 708
VWidth: 999
Flags: HW
HStem: 0 44<630 903> 601 44<632 819> 618 28<898 936>
VStem: 1024 27<-140 -94> 538 86<47 587> 479 36<-138 -60>
LayerCount: 2
Fore
SplineSet
434.353 44 m 2
 452.353 44 460.628 50 465.541 59 c 0
 477.643 83 499.897 183 503.512 200 c 2
 555.588 445 l 2
 559.201 462 579.882 564 577.983 588 c 1
 572.896 597 569.746 601 554.746 601 c 2
 440.746 601 l 2
 413.746 601 401.621 591 394.307 566 c 0
 364.739 465 327.732 361 301.279 293 c 0
 254.41 176 208.367 77 203.903 56 c 0
 201.353 44 214.353 44 228.353 44 c 2
 434.353 44 l 2
178 0 m 2
 98 0 72.1836 -65 45.667 -138 c 1
 43.0293 -141 l 1
 11.0293 -141 l 1
 9.66699 -138 l 1
 29.3379 11 l 2
 31.4639 21 38.1641 29 63.8018 32 c 0
 84.4121 34.4004 104.802 32 121.99 47 c 0
 153.517 73 186.82 145 251.979 301 c 1
 298.211 415 332.104 518 345.495 581 c 0
 350.172 603 351.848 625 353.099 645 c 1
 354.736 648 l 1
 354.736 648 381.099 645 415.099 645 c 2
 641.099 645 l 2
 675.099 645 693.736 648 693.736 648 c 1
 694.099 645 l 1
 674.621 591 657.529 520 641.588 445 c 2
 589.512 200 l 2
 566.13 90 561.439 35 594.802 32 c 0
 619.334 29.7998 622.464 21 620.338 11 c 2
 576.667 -138 l 1
 574.029 -141 l 1
 542.029 -141 l 1
 540.667 -138 l 1
 545.184 -65 547 0 467 0 c 2
 178 0 l 2
EndSplineSet
EndChar

StartChar: afii10024
Encoding: 1046 1046 75
Width: 924
VWidth: 999
Flags: HW
HStem: -4 21G<35 44 147 181 743 777 880 889> -3 21<412 462 462 512> 312 45<364 424 500 560> 569 89<70 172 752 854> 628 20<412 462 462 512>
VStem: 421 82<3 642>
LayerCount: 2
Fore
SplineSet
284.922 169 m 0
 247.869 117 219.517 73 157.149 -4 c 1
 135.575 -2 136 0 111 0 c 0
 88 0 50.5752 -2 37.1494 -4 c 1
 35 0 l 1
 133.918 89 142.758 140 244.376 237 c 0
 307.129 297 331.081 325 402.632 337 c 1
 403.27 340 l 1
 366.521 360 369.062 443 339.703 502 c 0
 315.806 550 285.944 569 263.944 569 c 0
 236.944 569 219.457 562 197.481 548 c 1
 187.119 551 l 1
 178.461 642 l 1
 184.736 648 l 1
 211.225 655 214.862 658 240.862 658 c 0
 314.862 658 356.946 593 384.867 531 c 0
 424.211 443.7 411.384 360.3 494.904 357.1 c 1
 513.588 445 l 2
 529.529 520 541.983 588 546.099 645 c 1
 548.736 648 l 1
 548.736 648 565.099 645 599.099 645 c 0
 634.099 645 651.736 648 651.736 648 c 1
 652.099 645 l 1
 632.834 592 615.529 520 599.588 445 c 2
 580.904 357.1 l 1
 665.784 360.3 688.411 443.7 764.867 531 c 0
 819.146 593 888.862 658 962.862 658 c 0
 988.862 658 991.225 655 1014.74 648 c 1
 1018.46 642 l 1
 971.119 551 l 1
 959.481 548 l 1
 943.457 562 928.944 569 901.944 569 c 0
 879.944 569 842.006 550 797.703 502 c 0
 743.263 443 710.521 360 665.27 340 c 1
 664.632 337 l 1
 731.081 325 743.129 297 780.376 237 c 0
 840.758 140 827.918 89 889 0 c 1
 885.149 -4 l 1
 872.575 -2 836 0 813 0 c 0
 788 0 787.575 -2 765.149 -4 c 1
 735.517 73 725.869 117 710.922 169 c 0
 687.847 245.8 671.326 303.1 571.232 311.6 c 1
 547.512 200 l 2
 531.569 125 519.115 57 515 0 c 1
 512.362 -3 l 1
 512.362 -3 496 0 462 0 c 0
 427 0 409.362 -3 409.362 -3 c 1
 409 0 l 1
 428.479 54 445.569 125 461.512 200 c 2
 485.232 311.6 l 1
 381.526 303.1 340.646 245.8 284.922 169 c 0
EndSplineSet
Colour: ff80cc
EndChar

StartChar: afii10025
Encoding: 1047 1047 76
Width: 542
VWidth: 999
Flags: HW
HStem: -12 37<172.536 324.196> 336 37<158.005 306.843> 469 21G<49 91> 624 34<165.85 309.892>
VStem: 49 30<470.533 513.383> 375 80<432.684 569.184> 405 92<100.605 254.446>
LayerCount: 2
Fore
SplineSet
253.313 25 m 0
 323.313 25 419.454 68 442.41 176 c 0
 453.25 227 437.419 336 320.419 336 c 2
 247.419 336 l 2
 236.419 336 230.907 343 233.245 354 c 0
 235.583 365 244.283 373 255.283 373 c 2
 302.283 373 l 2
 421.283 373 470.863 451 482.554 506 c 0
 496.795 573 443.636 624 381.636 624 c 0
 258.636 624 219.906 550 178.689 469 c 1
 149.114 471 l 1
 206.312 646 l 1
 293.312 646 330.862 658 390.862 658 c 0
 483.862 658 584.872 611 564.68 516 c 0
 547.887 437 494.26 387 416.521 360 c 1
 483.27 340 560.555 299 537.811 192 c 0
 505.715 41 360.449 -12 242.449 -12 c 0
 161.449 -12 119.039 19 93.1396 43 c 0
 70.6035 64 55.3428 91 61.082 118 c 0
 66.6084 144 82.0723 165 105.072 165 c 0
 133.072 165 140.309 152 144.507 120 c 0
 152.541 59 177.313 25 253.313 25 c 0
EndSplineSet
EndChar

StartChar: afii10026
Encoding: 1048 1048 77
Width: 700
VWidth: 999
Flags: HW
HStem: -3 21<96 149 149 202 502 555 555 608> 628 20<96 149 149 202 502 555 555 608>
VStem: 106 86<2.67992 642.32> 512 86<2.67992 642.32>
DStem2: 187 134 187 78 0.608002 0.793935<0 493.367>
LayerCount: 2
Fore
SplineSet
200.588 445 m 2
 216.529 520 228.983 588 233.099 645 c 1
 235.736 648 l 1
 235.736 648 252.099 645 286.099 645 c 0
 321.099 645 338.736 648 338.736 648 c 1
 339.099 645 l 1
 319.834 592 302.529 520 286.588 445 c 2
 234.512 200 l 2
 230.239 179.9 226.151 160.2 222.513 141.2 c 1
 627.875 555.5 l 1
 633.198 587.6 637.075 617.6 639.099 645 c 1
 641.736 648 l 1
 641.736 648 658.099 645 692.099 645 c 0
 727.099 645 744.736 648 744.736 648 c 1
 745.099 645 l 1
 725.834 592 708.529 520 692.588 445 c 2
 640.512 200 l 2
 624.569 125 612.115 57 608 0 c 1
 605.362 -3 l 1
 605.362 -3 589 0 555 0 c 0
 520 0 502.362 -3 502.362 -3 c 1
 502 0 l 1
 521.479 54 538.569 125 554.512 200 c 2
 606.588 445 l 2
 610.711 464.4 614.55 483.4 618.161 501.8 c 1
 212.898 87.5 l 1
 207.746 56.2002 203.918 26.9004 202 0 c 1
 199.362 -3 l 1
 199.362 -3 183 0 149 0 c 0
 114 0 96.3623 -3 96.3623 -3 c 1
 96 0 l 1
 115.479 54 132.569 125 148.512 200 c 2
 200.588 445 l 2
EndSplineSet
EndChar

StartChar: afii10027
Encoding: 1049 1049 78
Width: 700
VWidth: 999
Flags: HW
HStem: -2 29<20 52 242 274 427 459 649 682> 618 28<20 52 242 274 426 459 649 681> 697 31<305.536 396.309>
VStem: 106 81<35.9534 78 134 609.354> 226 70<735.681 802.162> 405 70<734.774 802.125> 514 81<36.3852 505 561 608.905>
DStem2: 187 134 187 78 0.608002 0.793935<0 493.367>
LayerCount: 2
Fore
SplineSet
505.741 728 m 0
 538.741 728 565.354 745 568.968 762 c 0
 570.031 767 570.307 773 570.731 775 c 0
 573.92 790 587.108 805 610.108 805 c 0
 637.108 805 644.132 791 640.094 772 c 0
 629.041 720 565.152 697 499.152 697 c 0
 433.152 697 379.041 720 390.094 772 c 0
 394.132 791 407.108 805 434.108 805 c 0
 457.108 805 463.92 790 460.731 775 c 0
 460.307 773 458.031 767 456.968 762 c 0
 453.354 745 472.741 728 505.741 728 c 0
200.588 445 m 2
 216.529 520 228.983 588 233.099 645 c 1
 235.736 648 l 1
 235.736 648 252.099 645 286.099 645 c 0
 321.099 645 338.736 648 338.736 648 c 1
 339.099 645 l 1
 319.834 592 302.529 520 286.588 445 c 2
 234.512 200 l 2
 230.239 179.9 226.151 160.2 222.513 141.2 c 1
 627.875 555.5 l 1
 633.198 587.6 637.075 617.6 639.099 645 c 1
 641.736 648 l 1
 641.736 648 658.099 645 692.099 645 c 0
 727.099 645 744.736 648 744.736 648 c 1
 745.099 645 l 1
 725.834 592 708.529 520 692.588 445 c 2
 640.512 200 l 2
 624.569 125 612.115 57 608 0 c 1
 605.362 -3 l 1
 605.362 -3 589 0 555 0 c 0
 520 0 502.362 -3 502.362 -3 c 1
 502 0 l 1
 521.479 54 538.569 125 554.512 200 c 2
 606.588 445 l 2
 610.711 464.4 614.55 483.4 618.161 501.8 c 1
 212.898 87.5 l 1
 207.746 56.2002 203.918 26.9004 202 0 c 1
 199.362 -3 l 1
 199.362 -3 183 0 149 0 c 0
 114 0 96.3623 -3 96.3623 -3 c 1
 96 0 l 1
 115.479 54 132.569 125 148.512 200 c 2
 200.588 445 l 2
EndSplineSet
LCarets2: 1 0 
Colour: ff00ff
EndChar

StartChar: afii10033
Encoding: 1055 1055 79
Width: 708
VWidth: 999
Flags: HW
HStem: -3 21<90 144 144 197 511 564 564 618> 601 44<195.326 512.674>
VStem: 101 86<2.67992 586.818> 521 86<2.67992 586.818>
LayerCount: 2
Fore
SplineSet
701.099 645 m 2
 735.099 645 753.736 648 753.736 648 c 1
 754.099 645 l 1
 734.621 591 717.529 520 701.588 445 c 2
 649.512 200 l 2
 633.569 125 622.115 57 618 0 c 1
 615.362 -3 l 1
 615.362 -3 598 0 564 0 c 0
 529 0 511.362 -3 511.362 -3 c 1
 511 0 l 1
 530.266 53 547.569 125 563.512 200 c 2
 615.588 445 l 2
 619.201 462 639.882 564 637.983 588 c 1
 632.896 597 629.746 601 614.746 601 c 2
 348.746 601 l 2
 333.746 601 328.896 597 319.983 588 c 1
 307.882 564 285.201 462 281.588 445 c 2
 229.512 200 l 2
 213.569 125 200.266 53 197 0 c 1
 195.362 -3 l 1
 195.362 -3 179 0 144 0 c 0
 110 0 91.3623 -3 91.3623 -3 c 1
 90 0 l 1
 110.115 57 127.569 125 143.512 200 c 2
 195.588 445 l 2
 211.529 520 224.621 591 228.099 645 c 1
 229.736 648 l 1
 229.736 648 247.099 645 281.099 645 c 2
 701.099 645 l 2
EndSplineSet
Colour: ff00ff
EndChar

StartChar: afii10034
Encoding: 1056 1056 80
Width: 522
VWidth: 999
Flags: HW
HStem: -3 21<93 146 146 199> 282 34<189.825 339.655> 618 34<171.719 345.938>
VStem: 103 86<2.67992 292 319.76 608.938> 401 97<393.808 563.368>
LayerCount: 2
Fore
SplineSet
311.008 574 m 2
 258.293 326 l 1
 269.806 319 300.168 316 325.168 316 c 0
 422.168 316 477.521 360 500.477 468 c 0
 527.471 595 469.36 618 400.36 618 c 0
 328.36 618 317.172 603 311.008 574 c 2
197.588 445 m 2
 213.529 520 225.983 588 230.099 645 c 1
 232.736 648 l 1
 232.736 648 249.099 645 283.099 645 c 0
 313.099 645 388.587 652 414.587 652 c 0
 599.587 652 613.844 545 601.303 486 c 0
 583.235 401 504.941 282 322.941 282 c 0
 287.941 282 271.578 285 251.066 292 c 1
 231.512 200 l 2
 215.569 125 203.115 57 199 0 c 1
 196.362 -3 l 1
 196.362 -3 180 0 146 0 c 0
 111 0 93.3623 -3 93.3623 -3 c 1
 93 0 l 1
 112.479 54 129.569 125 145.512 200 c 2
 197.588 445 l 2
EndSplineSet
Colour: ff00ff
EndChar

StartChar: afii10035
Encoding: 1057 1057 81
Width: 650
VWidth: 999
Flags: HW
HStem: -10 51<269.467 470.143> 611 47<271.061 460.844>
VStem: 37 103<195.742 435.455>
LayerCount: 2
Fore
SplineSet
504.862 658 m 0
 626.862 658 713.297 613 713.297 613 c 1
 714.659 610 l 1
 692.381 560.7 685.506 550 671.065 499 c 1
 660.854 498 l 1
 637.283 580 570.872 611 480.872 611 c 0
 398.872 611 254.143 537 210.994 334 c 0
 179.961 188 213.715 41 368.715 41 c 0
 461.715 41 534.179 62 621.758 140 c 1
 641.569 125 l 1
 554.652 36 445.874 -10 348.874 -10 c 0
 133.874 -10 69.7334 154 103.955 315 c 0
 145.829 512 335.862 658 504.862 658 c 0
EndSplineSet
Colour: ff00ff
EndChar

StartChar: afii10036
Encoding: 1058 1058 82
Width: 540
VWidth: 999
Flags: HW
HStem: -3 21<217 270 270 323> 574 21<15 219 321 525> 586 59<17.7578 222.336 317.664 522.242>
VStem: 227 86<2.67992 584.82>
LayerCount: 2
Fore
SplineSet
321.588 445 m 2
 325.201 462 345.457 562 343.559 586 c 1
 209.559 586 139.008 574 139.008 574 c 1
 137.857 578 l 1
 143.046 593 148.147 617 152.099 645 c 1
 154.736 648 l 1
 170.312 646 193.099 645 214.099 645 c 2
 600.099 645 l 2
 621.099 645 644.312 646 660.736 648 c 1
 662.099 645 l 1
 654.147 617 649.046 593 647.857 578 c 1
 645.008 574 l 1
 645.008 574 579.559 586 445.559 586 c 1
 433.457 562 411.201 462 407.588 445 c 2
 355.512 200 l 2
 339.569 125 327.115 57 323 0 c 1
 320.362 -3 l 1
 320.362 -3 304 0 270 0 c 0
 235 0 217.362 -3 217.362 -3 c 1
 217 0 l 1
 236.479 54 253.569 125 269.512 200 c 2
 321.588 445 l 2
EndSplineSet
Colour: ff00ff
EndChar

StartChar: afii10037
Encoding: 1059 1059 83
Width: 580
VWidth: 999
Flags: HW
HStem: -22 67<133 228.079> 628 20G<54.5 65.8588 152.5 165.28 462.421 482 552.006 555>
DStem2: 278.595 138.281 342 161 0.410131 0.912027<-105.377 13.9628 113.393 328.053>
LayerCount: 2
Fore
SplineSet
376.222 161 m 2
 305.399 54.0996 239.324 -22 149.324 -22 c 0
 107.324 -22 66.2129 1 73.0146 33 c 0
 78.9658 61 98.8545 84 130.854 84 c 0
 144.854 84 165.367 77 172.816 65 c 0
 177.903 56 190.565 45 204.565 45 c 0
 247.265 45 271.139 81.0996 307.996 138.3 c 1
 264.548 339.9 206.39 567.8 183.736 648 c 1
 200.099 645 226.099 645 243.099 645 c 0
 260.099 645 281.099 645 298.736 648 c 1
 300.96 618 324.022 470.1 374.745 242.5 c 1
 466.638 386.9 564.941 546.4 613.736 648 c 1
 625.099 645 652.099 645 663.099 645 c 0
 674.099 645 686.099 645 698.736 648 c 1
 376.222 161 l 2
EndSplineSet
EndChar

StartChar: afii10039
Encoding: 1061 1061 84
Width: 571
VWidth: 999
Flags: HW
HStem: -2 28<4 61 169 190 398 420 570 617> 586 27<411 444 538 597>
DStem2: 122 99 155 73 0.593199 0.805056<-35.2356 230.04 328.87 586.289> 191 543 249 326 0.578967 -0.815351<-35.4928 216.477 291.97 559.314>
LayerCount: 2
Fore
SplineSet
553.362 -3 m 1
 536 0 514 0 496 0 c 0
 478 0 456 0 437.362 -3 c 1
 405.577 100.1 378.213 182.6 339.59 282.7 c 1
 263.027 194.9 182.651 98.0996 106.362 -3 c 1
 96 0 77 0 65 0 c 0
 54 0 34 0 22.3623 -3 c 1
 320.792 330.7 l 1
 185.736 648 l 1
 202.099 645 224.099 645 241.099 645 c 0
 258.099 645 280.099 645 298.736 648 c 1
 314.466 589.8 341.238 519.1 387.479 404.5 c 1
 487.003 514.7 519.167 551.7 591.736 648 c 1
 602.099 645 622.099 645 633.099 645 c 0
 644.099 645 664.099 645 675.736 648 c 1
 406.316 358.1 l 1
 553.362 -3 l 1
EndSplineSet
Colour: ff00ff
EndChar

StartChar: afii10040
Encoding: 1062 1062 85
Width: 639
VWidth: 999
Flags: HW
HStem: 0 44<183.144 451.533> 628 20G<78 132 132 185 448 501 501 555>
VStem: 89 86<60.1801 642.32> 458 86<46.9378 642.32> 566 36<-138 -59.6869>
LayerCount: 2
Fore
SplineSet
586.512 200 m 2
 563.13 90 557.64 35 590.802 32 c 0
 615.234 29.7998 618.4 20.7002 616.338 11 c 2
 572.667 -138 l 1
 570.029 -141 l 1
 538.029 -141 l 1
 536.667 -138 l 1
 541.199 -65.4004 542.7 0 463 0 c 2
 132 0 l 2
 98 0 79.3623 -3 79.3623 -3 c 1
 79 0 l 1
 98.4785 54 115.569 125 131.512 200 c 2
 183.588 445 l 2
 199.529 520 210.983 588 215.099 645 c 1
 217.736 648 l 1
 217.736 648 235.099 645 269.099 645 c 0
 304.099 645 321.736 648 321.736 648 c 1
 322.099 645 l 1
 302.834 592 285.529 520 269.588 445 c 2
 217.512 200 l 2
 213.897 183 193.643 83 195.541 59 c 0
 196.628 50 202.353 44 220.353 44 c 2
 431.353 44 l 2
 449.353 44 457.628 50 462.541 59 c 0
 474.643 83 496.897 183 500.512 200 c 2
 552.588 445 l 2
 568.529 520 581.834 592 585.099 645 c 1
 586.736 648 l 1
 586.736 648 603.099 645 638.099 645 c 0
 672.099 645 690.736 648 690.736 648 c 1
 692.099 645 l 1
 671.983 588 654.529 520 638.588 445 c 2
 586.512 200 l 2
EndSplineSet
EndChar

StartChar: afii10041
Encoding: 1063 1063 86
Width: 633
VWidth: 999
Flags: HW
HStem: -3 21<436 489 489 542> 244 64<213.903 364.049> 628 20G<84 137 137 190 436 489 489 542>
VStem: 94 86<340.66 642.32> 446 86<2.67992 642.32>
LayerCount: 2
Fore
SplineSet
274.588 445 m 2
 268.636 417 l 2
 251.206 335 285.468 308 357.468 308 c 0
 385.968 308 449.297 311.9 521.032 353 c 1
 540.588 445 l 2
 556.529 520 568.983 588 573.099 645 c 1
 575.736 648 l 1
 575.736 648 592.099 645 626.099 645 c 0
 661.099 645 678.736 648 678.736 648 c 1
 679.099 645 l 1
 659.834 592 642.529 520 626.588 445 c 2
 574.512 200 l 2
 558.569 125 546.115 57 542 0 c 1
 539.362 -3 l 1
 539.362 -3 523 0 489 0 c 0
 454 0 436.362 -3 436.362 -3 c 1
 436 0 l 1
 455.479 54 472.569 125 488.512 200 c 2
 511.659 308.9 l 1
 429.259 259.5 359.063 244 301.864 244 c 0
 187.864 244 162.656 323 183.699 422 c 2
 188.588 445 l 2
 204.529 520 216.983 588 221.099 645 c 1
 223.736 648 l 1
 223.736 648 240.099 645 274.099 645 c 0
 309.099 645 326.736 648 326.736 648 c 1
 327.099 645 l 1
 307.834 592 290.529 520 274.588 445 c 2
EndSplineSet
EndChar

StartChar: afii10042
Encoding: 1064 1064 87
Width: 960
VWidth: 999
Flags: HW
HStem: 0 44<197.144 430.533 531.144 766.533> 628 20G<92 146 146 199 426 480 480 533 763 816 816 870>
VStem: 103 86<60.1801 642.32> 437 86<60.1801 642.32> 773 86<47.6754 642.32>
LayerCount: 2
Fore
SplineSet
901.512 200 m 2
 885.869 125 873.115 57 869 0 c 1
 866.362 -3 l 1
 866.362 -3 850 0 816 0 c 2
 147 0 l 2
 112 0 93.3623 -3 93.3623 -3 c 1
 93 0 l 1
 112.479 54 129.569 125 145.512 200 c 2
 197.588 445 l 2
 213.529 520 224.983 588 229.099 645 c 1
 231.736 648 l 1
 231.736 648 249.099 645 283.099 645 c 0
 318.099 645 335.736 648 335.736 648 c 1
 336.099 645 l 1
 316.834 592 299.529 520 283.588 445 c 2
 231.512 200 l 2
 227.897 183 207.643 83 209.541 59 c 0
 210.628 50 216.353 44 234.353 44 c 2
 410.353 44 l 2
 428.353 44 436.628 50 441.541 59 c 0
 453.643 83 475.897 183 479.512 200 c 2
 531.588 445 l 2
 547.529 520 558.983 588 563.099 645 c 1
 565.736 648 l 1
 565.736 648 583.099 645 617.099 645 c 0
 652.099 645 669.736 648 669.736 648 c 1
 670.099 645 l 1
 650.834 592 633.529 520 617.588 445 c 2
 565.512 200 l 2
 561.897 183 541.643 83 543.541 59 c 0
 544.628 50 550.353 44 568.353 44 c 2
 746.353 44 l 2
 764.353 44 772.628 50 777.541 59 c 0
 789.643 83 811.897 183 815.512 200 c 2
 867.588 445 l 2
 883.529 520 896.834 592 900.099 645 c 1
 901.736 648 l 1
 901.736 648 918.099 645 953.099 645 c 0
 987.099 645 1005.74 648 1005.74 648 c 1
 1007.1 645 l 1
 986.983 588 969.529 520 953.588 445 c 2
 901.512 200 l 2
EndSplineSet
EndChar

StartChar: afii10043
Encoding: 1065 1065 88
Width: 948
VWidth: 999
Flags: HW
HStem: 0 44<197.144 430.533 531.144 766.533> 628 20G<92 146 146 199 426 480 480 533 763 816 816 870>
VStem: 103 86<60.1801 642.32> 437 86<60.1801 642.32> 773 86<46.9378 642.32> 881 36<-138 -59.6869>
LayerCount: 2
Fore
SplineSet
147 0 m 2
 112 0 93.3623 -3 93.3623 -3 c 1
 93 0 l 1
 112.479 54 129.569 125 145.512 200 c 2
 197.588 445 l 2
 213.529 520 224.983 588 229.099 645 c 1
 231.736 648 l 1
 231.736 648 249.099 645 283.099 645 c 0
 318.099 645 335.736 648 335.736 648 c 1
 336.099 645 l 1
 316.834 592 299.529 520 283.588 445 c 2
 231.512 200 l 2
 227.897 183 207.643 83 209.541 59 c 0
 210.628 50 216.353 44 234.353 44 c 2
 410.353 44 l 2
 428.353 44 436.628 50 441.541 59 c 0
 453.643 83 475.897 183 479.512 200 c 2
 531.588 445 l 2
 547.529 520 558.983 588 563.099 645 c 1
 565.736 648 l 1
 565.736 648 583.099 645 617.099 645 c 0
 652.099 645 669.736 648 669.736 648 c 1
 670.099 645 l 1
 650.834 592 633.529 520 617.588 445 c 2
 565.512 200 l 2
 561.897 183 541.643 83 543.541 59 c 0
 544.628 50 550.353 44 568.353 44 c 2
 746.353 44 l 2
 764.353 44 772.628 50 777.541 59 c 0
 789.643 83 811.897 183 815.512 200 c 2
 867.588 445 l 2
 883.529 520 896.834 592 900.099 645 c 1
 901.736 648 l 1
 901.736 648 918.099 645 953.099 645 c 0
 987.099 645 1005.74 648 1005.74 648 c 1
 1007.1 645 l 1
 986.983 588 969.529 520 953.588 445 c 2
 901.512 200 l 2
 878.13 90 872.739 35 905.802 32 c 0
 930.234 29.7998 933.4 20.7002 931.338 11 c 2
 887.667 -138 l 1
 885.029 -141 l 1
 853.029 -141 l 1
 851.667 -138 l 1
 856.199 -65.4004 857.7 0 778 0 c 2
 147 0 l 2
EndSplineSet
EndChar

StartChar: afii10044
Encoding: 1066 1066 89
Width: 717
VWidth: 999
Flags: HW
HStem: -2 35<330.629 502.725> 329 44<348 522.728> 569 21G<50 254> 581 64<52.7551 257.32>
VStem: 262 86<37.7419 329 373 578.197> 587 94<103.061 266.903>
LayerCount: 2
Fore
SplineSet
417.931 329 m 1
 365.854 84 l 2
 358.841 51 357.015 33 412.015 33 c 0
 564.015 33 612.72 121 625.897 183 c 0
 638.651 243 630.931 329 502.931 329 c 2
 417.931 329 l 1
439.099 645 m 2
 477.099 645 494.736 648 494.736 648 c 1
 495.099 645 l 1
 475.834 592 460.63 520 442.588 445 c 1
 427.283 373 l 1
 485.283 373 l 2
 731.283 373 738.815 272 719.897 183 c 0
 684.4 16 523.575 -2 402.575 -2 c 0
 366.575 -2 336 0 307 0 c 0
 273 0 252.362 -3 252.362 -3 c 1
 252 0 l 1
 271.479 54 288.569 125 304.512 200 c 2
 356.588 445 l 2
 360.001 462 379.394 557 377.495 581 c 1
 243.495 581 172.944 569 172.944 569 c 1
 171.795 573 l 1
 176.983 588 183.147 617 187.099 645 c 1
 189.736 648 l 1
 205.312 646 228.099 645 249.099 645 c 2
 439.099 645 l 2
EndSplineSet
EndChar

StartChar: afii10045
Encoding: 1067 1067 90
Width: 786
VWidth: 999
Flags: HW
HStem: -2 21<588 641 641 694> -2 30<19 51 194.478 332.526> 333 40<187 355.567> 618 28<19 51 241 274> 629 20<588 641 641 694>
VStem: 106 81<36.1947 333 373 608.615> 433 89<103.729 266.225> 598 86<3.67992 643.32>
LayerCount: 2
Fore
SplineSet
692.8 446 m 2
 708.742 521 721.195 589 725.312 646 c 1
 727.949 649 l 1
 727.949 649 744.312 646 778.312 646 c 0
 813.312 646 830.949 649 830.949 649 c 1
 831.312 646 l 1
 812.046 593 794.742 521 778.8 446 c 2
 726.724 201 l 2
 710.782 126 698.328 58 694.213 1 c 1
 691.575 -2 l 1
 691.575 -2 675.213 1 641.213 1 c 0
 606.213 1 588.575 -2 588.575 -2 c 1
 588.213 1 l 1
 607.69 55 624.782 126 640.724 201 c 2
 692.8 446 l 2
148 0 m 0
 114 0 93.3623 -3 93.3623 -3 c 1
 93 0 l 1
 112.479 54 129.569 125 145.512 200 c 2
 197.588 445 l 2
 213.529 520 224.983 588 229.099 645 c 1
 231.736 648 l 1
 231.736 648 249.099 645 283.099 645 c 0
 318.099 645 335.736 648 335.736 648 c 1
 336.099 645 l 1
 316.834 592 299.529 520 283.588 445 c 2
 268.283 373 l 1
 326.283 373 l 2
 572.283 373 579.815 272 560.897 183 c 0
 525.4 16 364.575 -2 243.575 -2 c 0
 207.575 -2 177 0 148 0 c 0
258.931 329 m 1
 206.854 84 l 2
 199.841 51 198.015 33 253.015 33 c 0
 405.015 33 453.72 121 466.897 183 c 0
 479.651 243 471.931 329 343.931 329 c 2
 258.931 329 l 1
EndSplineSet
Colour: ff00ff
EndChar

StartChar: afii10046
Encoding: 1068 1068 91
Width: 558
VWidth: 999
Flags: HW
HStem: -2 35<171.629 343.725> 329 44<189 363.728> 628 20G<92 146 146 199>
VStem: 103 86<37.7419 329 373 642.32> 428 94<103.061 266.903>
LayerCount: 2
Fore
SplineSet
148 0 m 0
 114 0 93.3623 -3 93.3623 -3 c 1
 93 0 l 1
 112.479 54 129.569 125 145.512 200 c 2
 197.588 445 l 2
 213.529 520 224.983 588 229.099 645 c 1
 231.736 648 l 1
 231.736 648 249.099 645 283.099 645 c 0
 318.099 645 335.736 648 335.736 648 c 1
 336.099 645 l 1
 316.834 592 299.529 520 283.588 445 c 2
 268.283 373 l 1
 326.283 373 l 2
 572.283 373 579.815 272 560.897 183 c 0
 525.4 16 364.575 -2 243.575 -2 c 0
 207.575 -2 177 0 148 0 c 0
258.931 329 m 1
 206.854 84 l 2
 199.841 51 198.015 33 253.015 33 c 0
 405.015 33 453.72 121 466.897 183 c 0
 479.651 243 471.931 329 343.931 329 c 2
 258.931 329 l 1
EndSplineSet
EndChar

StartChar: afii10047
Encoding: 1069 1069 92
Width: 604
VWidth: 999
Flags: HMW
HStem: -12 34<194 359> 273 56<309 422> 311 49<155 284> 621 37<189 346>
VStem: 472 89<186 307 344 460>
LayerCount: 2
Fore
SplineSet
537.255 307 m 1
 475.028 273 431.028 273 418.028 273 c 0
 356.028 273 321.105 311 262.105 311 c 0
 224.105 311 204.704 295 196.704 295 c 0
 192.704 295 188.342 298 190.255 307 c 0
 195.568 332 264.521 360 323.521 360 c 0
 389.521 360 411.931 329 469.931 329 c 0
 498.931 329 523.206 335 544.119 344 c 1
 577.906 550 483.998 621 402.998 621 c 0
 307.998 621 212.78 540 168.501 454 c 1
 139.351 458 l 1
 161.616 511 179.606 558 193.297 613 c 1
 251.935 616 313.862 658 418.862 658 c 0
 583.862 658 677.906 550 631.781 333 c 0
 585.019 113 442.449 -12 272.449 -12 c 0
 186.449 -12 137.039 19 111.14 43 c 0
 88.6035 64 74.1934 95 79.9316 122 c 0
 85.458 148 101.072 165 119.072 165 c 0
 148.072 165 157.309 152 160.507 120 c 0
 169.203 48 218.464 21 290.464 21 c 0
 417.464 21 506.922 169 537.255 307 c 1
EndSplineSet
EndChar

StartChar: afii10048
Encoding: 1070 1070 93
Width: 905
VWidth: 999
Flags: HW
HStem: -12 39<517.224 661.561> -3 21<96 149 149 202> 302 44<187 285> 619 39<495.321 644.165> 628 20<96 149 149 202>
VStem: 106 86<2.67992 642.32> 285 96<193.326 302 346 446.919> 770 96<190.805 458.298>
LayerCount: 2
Fore
SplineSet
693.572 619 m 0
 609.572 619 495.143 537 450.506 327 c 0
 409.695 135 489.739 27 597.739 27 c 0
 700.739 27 797.845 131 835.893 310 c 0
 880.104 518 818.572 619 693.572 619 c 0
200.588 445 m 2
 216.529 520 228.983 588 233.099 645 c 1
 235.736 648 l 1
 235.736 648 252.099 645 286.099 645 c 0
 321.099 645 338.736 648 338.736 648 c 1
 339.099 645 l 1
 319.834 592 302.529 520 286.588 445 c 2
 265.545 346 l 1
 359.545 346 l 1
 410.592 525 556.862 658 712.862 658 c 0
 880.862 658 978.018 527 935.931 329 c 0
 893.42 129 749.449 -12 571.449 -12 c 0
 413.449 -12 309.956 108 349.192 302 c 1
 256.192 302 l 1
 234.512 200 l 2
 218.569 125 206.115 57 202 0 c 1
 199.362 -3 l 1
 199.362 -3 183 0 149 0 c 0
 114 0 96.3623 -3 96.3623 -3 c 1
 96 0 l 1
 115.479 54 132.569 125 148.512 200 c 2
 200.588 445 l 2
EndSplineSet
EndChar

StartChar: afii10049
Encoding: 1071 1071 94
Width: 561
VWidth: 999
Flags: HW
HStem: -3 21G<0 11.833 112.333 127.333 369.833 422.833 422.833 475.833> 286 44<272.871 379.833> 613 39<216.489 397.534>
VStem: 70.8 97<391.208 564.52> 379.8 86<2.67992 286 330 603.161>
LayerCount: 2
Fore
SplineSet
427.297 613 m 0
 366.297 613 294.684 596 269.602 478 c 0
 243.032 353 305.144 330 402.144 330 c 2
 450.144 330 l 1
 500.944 569 l 2
 507.108 598 498.297 613 427.297 613 c 0
282.967 300 m 1
 263.851 305.1 250.269 311.3 238.593 318 c 0
 190.332 345 155.385 397 172.814 479 c 0
 183.442 529 209.157 570 252.384 604 c 0
 309.949 649 373.587 652 436.587 652 c 0
 461.587 652 530.099 645 560.099 645 c 0
 594.099 645 611.736 648 611.736 648 c 1
 613.099 645 l 1
 592.983 588 576.529 520 560.588 445 c 2
 508.512 200 l 2
 492.569 125 479.479 54 476 0 c 1
 474.362 -3 l 1
 474.362 -3 458 0 423 0 c 0
 389 0 371.362 -3 371.362 -3 c 1
 370 0 l 1
 390.115 57 406.569 125 422.512 200 c 2
 440.791 286 l 1
 415.892 286 394.119 286.6 375.031 287.6 c 1
 339.538 254.7 302.179 214.9 266.41 176 c 0
 200.185 103.9 139.589 31 121.362 -3 c 1
 103 0 73 0 54 0 c 0
 34 0 22 0 1.3623 -3 c 1
 0 0 l 1
 62.1523 56.7002 201.291 215.9 282.967 300 c 1
EndSplineSet
EndChar

StartChar: afii10089
Encoding: 1095 1095 95
Width: 510
VWidth: 999
Flags: HW
HStem: -3 21<323 373 373 423> 137 44<162.252 301.419> 412 20G<57 107 107 157 323 373 373 423>
VStem: 68 80<195.691 426.366> 333 80<2.66468 426.335>
LayerCount: 2
Fore
SplineSet
129.854 291 m 0
 145.902 366.5 144.921 376 148.187 429 c 1
 149.824 432 l 1
 149.824 432 163.187 429 198.187 429 c 0
 232.187 429 246.824 432 246.824 432 c 1
 248.187 429 l 1
 228.071 372 226.221 368 210.279 293 c 0
 193.699 215 193.473 181 255.473 181 c 0
 303.473 181 342.417 192.5 380.4 223 c 1
 386.139 250 l 2
 401.23 321 411.709 375 414.187 429 c 1
 415.824 432 l 1
 415.824 432 429.187 429 464.187 429 c 0
 498.187 429 512.824 432 512.824 432 c 1
 514.187 429 l 1
 493.071 372 483.081 325 466.139 250 c 1
 451.048 179 l 2
 435.105 104 426.115 57 423 0 c 1
 420.362 -3 l 1
 420.362 -3 407 0 373 0 c 0
 338 0 323.362 -3 323.362 -3 c 1
 323 0 l 1
 343.457 53.9004 355.276 104.8 370.941 178.5 c 1
 326.89 150.5 292.12 137 233.12 137 c 0
 135.12 137 107.323 185 129.854 291 c 0
EndSplineSet
EndChar

StartChar: afii10090
Encoding: 1096 1096 96
Width: 807
VWidth: 999
Flags: HW
HStem: 0 41<185.326 354.674 451.326 622.533> 412 20G<87 137 137 187 353 403 403 453 619 670 670 720>
VStem: 97 80<55.1837 426.335> 363 80<55.1837 426.335> 629 80<43.5547 426.335>
CounterMasks: 1 38
LayerCount: 2
Fore
SplineSet
751.512 200 m 2
 735.676 125.5 722.479 54 719 0 c 1
 717.362 -3 l 1
 717.362 -3 700 0 666 0 c 2
 140 0 l 2
 106 0 87.3623 -3 87.3623 -3 c 1
 87 0 l 1
 106.479 54 123.569 125 139.512 200 c 2
 150.139 250 l 2
 166.081 325 175.071 372 178.187 429 c 1
 180.824 432 l 1
 180.824 432 194.187 429 228.187 429 c 0
 263.187 429 277.824 432 277.824 432 c 1
 278.187 429 l 1
 257.709 375 245.868 324 230.139 250 c 2
 219.512 200 l 2
 215.897 183 194.579 78 196.479 54 c 1
 201.565 45 204.715 41 219.715 41 c 2
 337.715 41 l 2
 352.715 41 357.565 45 366.479 54 c 1
 378.579 78 401.897 183 405.512 200 c 2
 416.139 250 l 2
 432.081 325 441.071 372 444.187 429 c 1
 446.824 432 l 1
 446.824 432 460.187 429 494.187 429 c 0
 529.187 429 543.824 432 543.824 432 c 1
 544.187 429 l 1
 523.709 375 511.868 324 496.139 250 c 2
 485.512 200 l 2
 481.897 183 460.579 78 462.479 54 c 1
 467.565 45 470.715 41 485.715 41 c 2
 617.715 41 l 2
 632.715 41 623.565 45 632.479 54 c 1
 644.579 78 667.897 183 671.512 200 c 2
 681.927 249 l 2
 698.081 325 706.571 372 710.187 429 c 1
 712.824 432 l 1
 712.824 432 726.887 429 761.187 429 c 0
 796.187 429 810.824 432 810.824 432 c 1
 811.187 429 l 1
 791.315 375.5 777.89 324.1 761.927 249 c 2
 751.512 200 l 2
EndSplineSet
EndChar

StartChar: afii10091
Encoding: 1097 1097 97
Width: 813
VWidth: 999
Flags: HW
HStem: 0 41<185.326 354.674 451.326 622.533> 412 20G<87 137 137 187 353 403 403 453 619 670 670 720>
VStem: 97 80<55.1837 426.335> 363 80<55.1837 426.335> 629 80<41.465 426.335> 731 36<-125 -51.0881>
LayerCount: 2
Fore
SplineSet
140 0 m 2
 106 0 87.3623 -3 87.3623 -3 c 1
 87 0 l 1
 106.479 54 123.569 125 139.512 200 c 2
 150.139 250 l 2
 166.081 325 175.071 372 178.187 429 c 1
 180.824 432 l 1
 180.824 432 194.187 429 228.187 429 c 0
 263.187 429 277.824 432 277.824 432 c 1
 278.187 429 l 1
 257.709 375 245.868 324 230.139 250 c 2
 219.512 200 l 2
 215.897 183 194.579 78 196.479 54 c 1
 201.565 45 204.715 41 219.715 41 c 2
 337.715 41 l 2
 352.715 41 357.565 45 366.479 54 c 1
 378.579 78 401.897 183 405.512 200 c 2
 416.139 250 l 2
 432.081 325 441.071 372 444.187 429 c 1
 446.824 432 l 1
 446.824 432 460.187 429 494.187 429 c 0
 529.187 429 543.824 432 543.824 432 c 1
 544.187 429 l 1
 523.709 375 511.868 324 496.139 250 c 2
 485.512 200 l 2
 481.897 183 460.579 78 462.479 54 c 1
 467.565 45 470.715 41 485.715 41 c 2
 617.715 41 l 2
 632.715 41 623.565 45 632.479 54 c 1
 644.579 78 667.897 183 671.512 200 c 2
 681.927 249 l 2
 698.081 325 706.571 372 710.187 429 c 1
 712.824 432 l 1
 712.824 432 726.887 429 761.187 429 c 0
 796.187 429 810.824 432 810.824 432 c 1
 811.187 429 l 1
 791.315 375.5 777.89 324.1 761.927 249 c 2
 751.512 200 l 2
 728.13 90 722.739 35 755.802 32 c 0
 780.234 29.7998 783.4 20.7002 781.338 11 c 2
 740.431 -125 l 1
 737.793 -128 l 1
 705.793 -128 l 1
 704.431 -125 l 1
 708.962 -52.4004 707.7 0 628 0 c 2
 140 0 l 2
EndSplineSet
EndChar

StartChar: afii10092
Encoding: 1098 1098 98
Width: 539
VWidth: 999
Flags: HW
HStem: -2 36<257.183 402.245> 219 37<273 402.262> 374 55<34.7075 190>
VStem: 193 80<40.3429 219 256 372.311> 428 80<60.92 197.087>
LayerCount: 2
Fore
SplineSet
454.782 126 m 0
 466.048 179 457.55 219 386.55 219 c 2
 319.55 219 l 1
 289.792 79 l 2
 282.353 44 297.227 34 343.227 34 c 0
 393.227 34 437.353 44 454.782 126 c 0
246.139 250 m 2
 261.23 321 269.496 374 269.496 374 c 1
 144.496 374 111.158 363 111.158 363 c 1
 109.796 366 l 1
 114.771 380 119.66 403 123.187 429 c 1
 125.612 431 l 1
 140.399 430 161.187 429 180.187 429 c 2
 324.187 429 l 2
 358.187 429 372.824 432 372.824 432 c 1
 374.187 429 l 1
 353.071 372 343.994 334 328.052 259 c 2
 327.414 256 l 1
 384.414 256 l 2
 480.414 256 556.888 230 536.908 136 c 0
 519.053 52 445.575 -2 334.575 -2 c 0
 294.775 -2 272.8 0 233 0 c 0
 198 0 183.362 -3 183.362 -3 c 1
 183 0 l 1
 203.479 54 215.318 105 231.048 179 c 2
 246.139 250 l 2
EndSplineSet
EndChar

StartChar: afii10093
Encoding: 1099 1099 99
Width: 681
VWidth: 999
Flags: HW
HStem: -3 21<496 546 546 596> -2 36<165.183 310.245> 219 37<181 310.262> 412 20<91 141 141 191 496 546 546 596>
VStem: 101 80<40.3429 219 256 426.342> 336 80<60.92 197.087> 506 80<2.66468 426.335>
LayerCount: 2
Fore
SplineSet
559.139 250 m 2
 574.23 321 584.709 375 587.187 429 c 1
 588.824 432 l 1
 588.824 432 602.187 429 637.187 429 c 0
 671.187 429 685.824 432 685.824 432 c 1
 687.187 429 l 1
 666.071 372 656.081 325 639.139 250 c 1
 624.048 179 l 2
 608.105 104 599.115 57 596 0 c 1
 593.362 -3 l 1
 593.362 -3 580 0 546 0 c 0
 511 0 496.362 -3 496.362 -3 c 1
 496 0 l 1
 516.479 54 528.318 105 544.048 179 c 2
 559.139 250 l 2
362.782 126 m 0
 374.048 179 365.55 219 294.55 219 c 2
 227.55 219 l 1
 197.792 79 l 2
 190.353 44 205.227 34 251.227 34 c 0
 301.227 34 345.353 44 362.782 126 c 0
236.052 259 m 2
 235.414 256 l 1
 292.414 256 l 2
 388.414 256 464.888 230 444.907 136 c 0
 427.053 52 353.575 -2 242.575 -2 c 0
 202.774 -2 180.8 0 141 0 c 0
 106 0 91.3623 -3 91.3623 -3 c 1
 91 0 l 1
 111.479 54 123.318 105 139.048 179 c 2
 154.139 250 l 2
 169.23 321 179.709 375 182.187 429 c 1
 183.824 432 l 1
 183.824 432 197.187 429 232.187 429 c 0
 266.187 429 280.824 432 280.824 432 c 1
 282.187 429 l 1
 261.071 372 251.994 334 236.052 259 c 2
EndSplineSet
Colour: ff00ff
EndChar

StartChar: afii10094
Encoding: 1100 1100 100
Width: 447
VWidth: 999
Flags: HW
HStem: -2 36<165.183 310.245> 219 37<181 310.262> 412 20G<91 141 141 191>
VStem: 101 80<40.3429 219 256 426.342> 336 80<60.92 197.087>
LayerCount: 2
Fore
SplineSet
362.782 126 m 0
 374.048 179 365.55 219 294.55 219 c 2
 227.55 219 l 1
 197.792 79 l 2
 190.353 44 205.227 34 251.227 34 c 0
 301.227 34 345.353 44 362.782 126 c 0
236.052 259 m 2
 235.414 256 l 1
 292.414 256 l 2
 388.414 256 464.888 230 444.907 136 c 0
 427.053 52 353.575 -2 242.575 -2 c 0
 202.774 -2 180.8 0 141 0 c 0
 106 0 91.3623 -3 91.3623 -3 c 1
 91 0 l 1
 111.479 54 123.318 105 139.048 179 c 2
 154.139 250 l 2
 169.23 321 179.709 375 182.187 429 c 1
 183.824 432 l 1
 183.824 432 197.187 429 232.187 429 c 0
 266.187 429 280.824 432 280.824 432 c 1
 282.187 429 l 1
 261.071 372 251.994 334 236.052 259 c 2
EndSplineSet
EndChar

StartChar: afii10095
Encoding: 1101 1101 101
Width: 434
VWidth: 999
Flags: HMW
HStem: -10 31<133.489 237.744> 180 49<160.832 302.074> 207 41<92.6331 188.46> 408 31<122.738 236.146>
VStem: 314 77<116.594 208 230.421 318.818>
LayerCount: 2
Fore
SplineSet
363.163 236 m 1
 371.68 309 358.723 408 268.723 408 c 0
 188.723 408 155.607 351 128.642 290 c 1
 102.491 294 l 1
 117.844 338 128.071 372 141.762 427 c 1
 211.762 427 214.312 439 285.312 439 c 0
 408.312 439 462.206 335 438.825 225 c 0
 405.454 68 281.874 -10 175.874 -10 c 0
 93.874 -10 44.2266 34 55.2803 86 c 0
 58.2559 100 73.4443 115 91.4443 115 c 0
 102.444 115 123.594 111 121.579 78 c 0
 120.353 44 146.464 21 189.464 21 c 0
 283.464 21 341.633 130 358.212 208 c 1
 333.661 196 297.26 180 266.26 180 c 0
 222.26 180 198.999 207 163.999 207 c 0
 151.999 207 140.937 202 132.937 202 c 0
 126.937 202 127.85 211 128.699 215 c 0
 131.888 230 180.714 248 223.714 248 c 0
 268.714 248 281.676 229 319.676 229 c 0
 335.676 229 350.101 231 363.163 236 c 1
EndSplineSet
EndChar

StartChar: afii10096
Encoding: 1102 1102 102
Width: 686
VWidth: 999
Flags: HW
HStem: -10 35<422.78 523.403> -2 29<29 54 214 240> 198 39<171 268> 402 29<29 54 214 240> 406 33<403.08 503.112>
VStem: 97 74<33.7976 198 237 394.785> 268 80<113.871 198 237 323.327> 569 80<107.111 329.997>
LayerCount: 2
Fore
SplineSet
534.235 401 m 0
 460.235 401 419.53 313 401.038 226 c 0
 384.671 149 387.377 30 481.377 30 c 0
 522.377 30 575.266 53 603.323 185 c 0
 634.356 331 612.235 401 534.235 401 c 0
146.139 250 m 2
 161.23 321 171.709 375 174.187 429 c 1
 175.824 432 l 1
 175.824 432 189.187 429 224.187 429 c 0
 258.187 429 272.824 432 272.824 432 c 1
 274.187 429 l 1
 253.071 372 243.081 325 226.139 250 c 1
 223.376 237 l 1
 319.376 237 l 1
 354.67 356 437.312 439 552.312 439 c 0
 696.312 439 717.23 321 695.125 217 c 0
 673.869 117 594.874 -10 455.874 -10 c 0
 327.874 -10 290.618 97 310.086 198 c 1
 215.086 198 l 1
 211.048 179 l 2
 195.105 104 186.115 57 183 0 c 1
 180.362 -3 l 1
 180.362 -3 167 0 133 0 c 0
 98 0 83.3623 -3 83.3623 -3 c 1
 83 0 l 1
 103.479 54 115.318 105 131.048 179 c 2
 146.139 250 l 2
EndSplineSet
EndChar

StartChar: afii10097
Encoding: 1103 1103 103
Width: 429
VWidth: 999
Flags: HW
HStem: -3 30<10 25> 195 35<206.934 268> 204 26<157.163 165> 402 30<151.259 285.062>
VStem: 38 85<253.842 371.816> 268 80<2.65817 195 230 398.777>
LayerCount: 2
Fore
SplineSet
316.888 230 m 1
 345.796 366 l 2
 352.598 398 338.447 402 299.447 402 c 0
 225.447 402 201.221 368 191.23 321 c 0
 180.603 271 194.888 230 251.888 230 c 2
 316.888 230 l 1
401.352 251 m 2
 385.835 178 l 2
 370.956 108 360.479 54 358 0 c 1
 356.362 -3 l 1
 356.362 -3 343 0 308 0 c 0
 274 0 259.362 -3 259.362 -3 c 1
 258 0 l 1
 279.115 57 288.193 95 303.922 169 c 2
 309.448 195 l 1
 284.448 195 l 2
 244.448 195 209.82 145 176.854 84 c 0
 154.14 43 118.213 1 83 0 c 2
 9.3623 -3 l 1
 7 0 l 1
 11.0391 19 l 2
 12.5264 26 18.7393 27 22.7393 27 c 2
 30.9512 28 l 2
 58.5889 31 106.83 98 128.907 136 c 0
 153.622 177 179.086 198 208.361 204 c 1
 153.361 204 88.8008 239 103.893 310 c 0
 110.057 339 147.824 432 308.824 432 c 0
 345.824 432 363.187 429 399.187 429 c 0
 434.187 429 448.824 432 448.824 432 c 1
 449.187 429 l 1
 428.709 375 416.868 324 401.352 251 c 2
EndSplineSet
EndChar

StartChar: uni04AE
Encoding: 1198 1198 104
Width: 591
VWidth: 999
Flags: HW
HStem: -3 21<242.42 247 334 339.566> 628 20<24.5 36 121.5 157.5 454.375 486 503.5 557.5>
LayerCount: 2
Fore
SplineSet
395.006 285.6 m 1
 374.842 186.5 347.443 44.9004 341.362 -3 c 1
 326 0 305 0 290 0 c 0
 275 0 255 0 238.362 -3 c 1
 255.859 52.5 283.528 177.5 304.475 275.1 c 1
 280.212 340.2 180.983 588 153.736 648 c 1
 170.099 645 193.099 645 210.099 645 c 0
 227.099 645 250.099 645 267.736 648 c 1
 299.033 542.6 337.374 448.7 377.512 340.2 c 1
 454.633 431.1 544.961 543.2 617.736 648 c 1
 629.099 645 646.099 645 659.099 645 c 0
 671.099 645 688.099 645 701.736 648 c 1
 541.82 463.5 452.989 365.5 395.006 285.6 c 1
EndSplineSet
Colour: ff00ff
EndChar

StartChar: uni04C0
Encoding: 1216 1216 105
Width: 293
VWidth: 999
Flags: HW
HStem: -3 21<96 149 149 202> 628 20<96 149 149 202>
VStem: 106 86<2.67992 642.32>
LayerCount: 2
Fore
SplineSet
200.588 445 m 2
 216.529 520 228.983 588 233.099 645 c 1
 235.736 648 l 1
 235.736 648 252.099 645 286.099 645 c 0
 321.099 645 338.736 648 338.736 648 c 1
 339.099 645 l 1
 319.834 592 302.529 520 286.588 445 c 2
 234.512 200 l 2
 218.569 125 206.115 57 202 0 c 1
 199.362 -3 l 1
 199.362 -3 183 0 149 0 c 0
 114 0 96.3623 -3 96.3623 -3 c 1
 96 0 l 1
 115.479 54 132.569 125 148.512 200 c 2
 200.588 445 l 2
EndSplineSet
Colour: ff00ff
EndChar

StartChar: uni04D0
Encoding: 1232 1232 106
Width: 633
VWidth: 999
Flags: HW
HStem: -3 21<24 68.5 92 115.444 500.087 513.5 590 606.5> 230 44<188.935 310> 638 20<265 387> 698 31<285.536 376.309>
VStem: 206 70<736.681 803.162> 385 70<735.774 803.125>
LayerCount: 2
Fore
SplineSet
485.954 729 m 0
 518.954 729 545.567 746 549.181 763 c 0
 550.243 768 550.519 774 550.944 776 c 0
 554.132 791 567.32 806 590.32 806 c 0
 617.32 806 624.345 792 620.307 773 c 0
 609.253 721 545.364 698 479.364 698 c 0
 413.364 698 359.253 721 370.307 773 c 0
 374.345 792 387.32 806 414.32 806 c 0
 437.32 806 444.132 791 440.944 776 c 0
 440.519 774 438.243 768 437.181 763 c 0
 433.567 746 452.954 729 485.954 729 c 0
229.526 228.3 m 1
 175.228 140.8 126.792 58.2998 97.3623 -3 c 1
 86 0 64 0 53 0 c 0
 42 0 30 0 17.3623 -3 c 1
 165.337 218 309.675 436 452.862 658 c 1
 480.862 658 l 1
 526.312 439 585.83 98 614.362 -3 c 1
 598 0 572 0 555 0 c 0
 538 0 522 0 504.362 -3 c 1
 502.981 19.2002 496.961 97.2002 475.826 228.3 c 1
 438.318 229.2 396.888 230 358.888 230 c 0
 324.388 230 267.718 229.2 229.526 228.3 c 1
467.859 275.5 m 1
 455.774 345.2 439.946 427.4 418.912 521.8 c 1
 416.912 521.8 l 1
 259.244 275.9 l 1
 290.859 275.5 334.341 274 363.24 274 c 0
 392.94 274 434.789 274.7 467.859 275.5 c 1
EndSplineSet
LCarets2: 1 0 
Colour: ff00ff
EndChar

StartChar: uni04D1
Encoding: 1233 1233 107
Width: 459
VWidth: 999
Flags: HW
HStem: -10 51<138.029 242.029 327.75 409.627> 394 45<147.355 264.803> 489 31<171.971 246.548>
VStem: 42 81<56.8026 162.817> 88 73<526.553 605.612> 257 73<526.548 606.379> 293 79.1<81.0426 223 264.049 363.451>
DStem2: 199 243 212 202 0.972687 0.232119<-72.5363 85.8176>
LayerCount: 2
Fore
SplineSet
452.646 577 m 0
 440.954 522 375.94 489 311.94 489 c 0
 246.94 489 198.954 522 210.433 576 c 0
 214.259 594 233.447 609 256.447 609 c 0
 278.447 609 287.471 595 284.07 579 c 0
 283.433 576 283.008 574 281.37 571 c 0
 279.732 568 279.095 565 278.669 563 c 0
 273.993 541 289.529 520 319.529 520 c 0
 348.529 520 373.78 540 378.457 562 c 0
 379.095 565 379.732 568 379.37 571 c 0
 378.795 573 379.22 575 379.857 578 c 0
 383.471 595 403.447 609 421.447 609 c 0
 445.447 609 456.684 596 452.646 577 c 0
339.4 223 m 1
 254.937 202 l 2
 176.913 182.6 154.246 147 144.681 102 c 0
 138.092 71 155.715 41 197.715 41 c 0
 225.715 41 262.391 63 292.854 84 c 0
 302.13 90 309.618 97 312.381 110 c 2
 339.4 223 l 1
384.154 76 m 0
 379.903 56 382.565 45 393.565 45 c 0
 407.565 45 423.541 59 434.028 66 c 1
 436.604 64 l 1
 448.14 43 l 1
 408.638 3 379.874 -10 348.874 -10 c 0
 301.874 -10 299.802 32 301.203 48 c 1
 299.203 48 l 1
 239.638 3 209.874 -10 157.874 -10 c 0
 87.874 -10 47.1016 24 62.8301 98 c 0
 77.2842 166 149.763 220 250.651 243 c 2
 343.115 264 l 2
 346.327 265 350.178 269 351.666 276 c 0
 375.685 389 320.747 394 286.747 394 c 0
 241.747 394 190.395 350 154.83 305 c 1
 142.042 306 l 1
 140.283 373 l 1
 144.134 377 l 1
 172.598 398 233.312 439 305.312 439 c 0
 377.312 439 459.573 412 430.878 277 c 0
 428.54 266 390.318 105 384.154 76 c 0
EndSplineSet
LCarets2: 1 0 
Colour: ff00ff
EndChar

StartChar: uni04D2
Encoding: 1234 1234 108
Width: 633
VWidth: 999
Flags: HW
HStem: -3 21<24 68.5 92 115.444 500.087 513.5 590 606.5> 230 44<188.935 310> 638 20<265 387> 712 92<210.347 287.653 370.347 447.653>
VStem: 203 92<719.347 796.653> 363 92<719.347 796.653>
LayerCount: 2
Fore
SplineSet
364.118 758 m 0
 369.432 783 394.896 804 419.896 804 c 0
 444.896 804 461.432 783 456.118 758 c 0
 450.804 733 425.34 712 400.34 712 c 0
 375.34 712 358.804 733 364.118 758 c 0
524.118 758 m 0
 529.432 783 554.896 804 579.896 804 c 0
 604.896 804 621.432 783 616.118 758 c 0
 610.804 733 585.34 712 560.34 712 c 0
 535.34 712 518.804 733 524.118 758 c 0
229.526 228.3 m 1
 175.228 140.8 126.792 58.2998 97.3623 -3 c 1
 86 0 64 0 53 0 c 0
 42 0 30 0 17.3623 -3 c 1
 165.337 218 309.675 436 452.862 658 c 1
 480.862 658 l 1
 526.312 439 585.83 98 614.362 -3 c 1
 598 0 572 0 555 0 c 0
 538 0 522 0 504.362 -3 c 1
 502.981 19.2002 496.961 97.2002 475.826 228.3 c 1
 438.318 229.2 396.888 230 358.888 230 c 0
 324.388 230 267.718 229.2 229.526 228.3 c 1
467.859 275.5 m 1
 455.774 345.2 439.946 427.4 418.912 521.8 c 1
 416.912 521.8 l 1
 259.244 275.9 l 1
 290.859 275.5 334.341 274 363.24 274 c 0
 392.94 274 434.789 274.7 467.859 275.5 c 1
EndSplineSet
LCarets2: 1 0 
Colour: ff00ff
EndChar

StartChar: uni04D3
Encoding: 1235 1235 109
Width: 459
VWidth: 999
Flags: HW
HStem: -10 51<138.029 242.029 327.75 409.627> 394 45<147.355 264.803> 527 92<94.3474 171.653 254.347 331.653>
VStem: 42 81<56.8026 162.817> 87 92<534.347 611.653> 247 92<534.347 611.653> 293 79.1<81.0426 223 264.049 363.451>
DStem2: 199 243 212 202 0.972687 0.232119<-72.5363 85.8176>
LayerCount: 2
Fore
SplineSet
208.795 573 m 0
 214.108 598 239.572 619 264.572 619 c 0
 289.572 619 306.108 598 300.795 573 c 0
 295.481 548 270.018 527 245.018 527 c 0
 220.018 527 203.481 548 208.795 573 c 0
368.795 573 m 0
 374.108 598 399.572 619 424.572 619 c 0
 449.572 619 466.108 598 460.795 573 c 0
 455.481 548 430.018 527 405.018 527 c 0
 380.018 527 363.481 548 368.795 573 c 0
339.4 223 m 1
 254.937 202 l 2
 176.913 182.6 154.246 147 144.681 102 c 0
 138.092 71 155.715 41 197.715 41 c 0
 225.715 41 262.391 63 292.854 84 c 0
 302.13 90 309.618 97 312.381 110 c 2
 339.4 223 l 1
384.154 76 m 0
 379.903 56 382.565 45 393.565 45 c 0
 407.565 45 423.541 59 434.028 66 c 1
 436.604 64 l 1
 448.14 43 l 1
 408.638 3 379.874 -10 348.874 -10 c 0
 301.874 -10 299.802 32 301.203 48 c 1
 299.203 48 l 1
 239.638 3 209.874 -10 157.874 -10 c 0
 87.874 -10 47.1016 24 62.8301 98 c 0
 77.2842 166 149.763 220 250.651 243 c 2
 343.115 264 l 2
 346.327 265 350.178 269 351.666 276 c 0
 375.685 389 320.747 394 286.747 394 c 0
 241.747 394 190.395 350 154.83 305 c 1
 142.042 306 l 1
 140.283 373 l 1
 144.134 377 l 1
 172.598 398 233.312 439 305.312 439 c 0
 377.312 439 459.573 412 430.878 277 c 0
 428.54 266 390.318 105 384.154 76 c 0
EndSplineSet
LCarets2: 1 0 
Colour: ff00ff
EndChar

StartChar: uni04D4
Encoding: 1236 1236 110
Width: 802
VWidth: 999
Flags: HW
HStem: -2 29<4 35 167 201 342 374> 0 39<514.23 740.226> 266 39<271 429> 329 34<512 654.005> 605 40<517.062 711.984> 618 28<296 333>
VStem: 429 83<40.8651 266 305 329 363 597.745> 671 33<247 312.081 407 445>
DStem2: 102.87 85 148 68 0.46188 0.886943<-25.6807 228.955 272.783 581.116>
LayerCount: 2
Fore
SplineSet
281.197 278.5 m 1
 207.117 171.8 140.188 69.0996 97.3623 -3 c 1
 86 0 64 0 53 0 c 0
 42 0 30 0 17.3623 -3 c 1
 166.512 200 308.148 410 503.248 645.7 c 1
 503.362 645.3 l 1
 505.736 648 l 1
 505.736 648 522.099 645 556.099 645 c 0
 586.099 645 769.099 645 769.099 645 c 2
 790.099 645 813.312 646 829.736 648 c 1
 831.099 645 l 1
 827.123 631 824.21 622 822.51 614 c 0
 820.597 605 819.684 596 818.983 588 c 1
 816.133 584 l 1
 816.133 584 741.022 594.3 635.322 594.3 c 0
 559.822 594.3 543.609 585.3 540.35 545.5 c 1
 539.586 475.1 540.133 402.4 541.481 333 c 1
 653.624 333.2 709.365 338.1 767.907 343 c 1
 770.27 340 l 1
 766.356 331 763.23 321 761.317 312 c 0
 759.404 303 758.279 293 758.366 284 c 1
 754.729 281 l 1
 694.746 287.2 597.105 290.3 542.333 290.9 c 1
 544.49 199.9 547.848 116.9 551.36 55.7998 c 1
 651.884 59.2002 766.028 66 766.028 66 c 2
 767.179 62 l 1
 764.479 54 760.29 39 758.164 29 c 0
 756.039 19 755.976 14 754 0 c 1
 751.362 -3 l 1
 735.787 -1 713 0 692 0 c 2
 555 0 l 1
 553.5 0 l 1
 500 0 l 2
 483 0 467 0 449.362 -3 c 1
 456.95 32.7002 461.533 117.3 465.288 279.4 c 1
 443.173 279.8 420.815 280 399.516 280 c 0
 368.216 280 318.667 279.3 281.197 278.5 c 1
466.217 324.7 m 1
 469.898 533.5 l 1
 467.898 533.5 l 1
 417.995 469.5 365.013 397.6 314.229 325.7 c 1
 343.702 325.1 379.068 324 403.868 324 c 0
 421.769 324 444.032 324.3 466.217 324.7 c 1
EndSplineSet
Colour: ff00ff
EndChar

StartChar: uni04D5
Encoding: 1237 1237 111
Width: 687
VWidth: 999
Flags: HW
HStem: -10 42<134.122 258.283> -10 49<441.951 572.545> 215 35<204.499 298 372 496.805> 409 30<145.729 252.328 445.807 530.397>
VStem: 39 72<54.272 157.224> 50 73<295.734 386.882> 298 73<118.361 215 253 332.285> 572 76<289.995 379.656>
LayerCount: 2
Fore
SplineSet
341.699 215 m 1
 206.149 203 154.371 157 143.531 106 c 0
 133.966 61 153.502 40 200.502 40 c 0
 236.502 40 283.966 61 306.256 100 c 0
 316.46 117.9 331.072 165 341.699 215 c 1
429.84 258 m 1
 571.54 266 614.076 245 627.042 306 c 0
 633.844 338 620.747 394 572.747 394 c 0
 509.747 394 455.907 343 429.84 258 c 1
285.747 394 m 0
 241.247 394 189.395 350 153.83 305 c 1
 141.042 306 l 1
 139.283 373 l 1
 143.134 377 l 1
 171.991 397.5 231.812 439 304.312 439 c 0
 328.312 439 403.675 436 426.434 369 c 1
 468.998 414 526.312 439 583.312 439 c 0
 697.312 439 718.907 343 711.68 309 c 0
 705.112 278.1 693.989 254 670.376 237 c 1
 630.488 217.3 557.41 225.4 420.337 218 c 1
 397.807 112 432.353 44 507.353 44 c 0
 561.353 44 607.367 77 644.807 112 c 1
 658.854 84 l 1
 618.377 30 547.874 -10 481.874 -10 c 0
 390.874 -10 367.227 34 352.541 59 c 1
 297.188 15 242.874 -10 187.874 -10 c 0
 82.874 -10 46.0146 33 60.4678 101 c 0
 78.1104 184 177.651 243 350.202 255 c 1
 368.897 348.6 358.547 394 285.747 394 c 0
EndSplineSet
Colour: ff00ff
EndChar

StartChar: uni04D6
Encoding: 1238 1238 112
Width: 522
VWidth: 999
Flags: HW
HStem: 0 54<186.656 409.594> 321 42<182 388.188> 596 49<186.656 403.188> 698 31<228.531 319.312>
VStem: 96 86<55.2087 321 363 594.385> 149 70<736.681 803.162> 328 70<735.774 803.125>
LayerCount: 2
Fore
SplineSet
428.954 729 m 0
 461.954 729 488.567 746 492.181 763 c 0
 493.243 768 493.519 774 493.944 776 c 0
 497.132 791 510.32 806 533.32 806 c 0
 560.32 806 567.345 792 563.307 773 c 0
 552.253 721 488.364 698 422.364 698 c 0
 356.364 698 302.253 721 313.307 773 c 0
 317.345 792 330.32 806 357.32 806 c 0
 380.32 806 387.132 791 383.944 776 c 0
 383.519 774 381.243 768 380.181 763 c 0
 376.567 746 395.954 729 428.954 729 c 0
224.512 200 m 2
 220.897 183 199.579 78 201.479 54 c 1
 335.479 54 486.028 66 486.028 66 c 1
 487.179 62 l 1
 484.479 54 480.29 39 478.164 29 c 0
 476.039 19 475.976 14 474 0 c 1
 471.362 -3 l 1
 455.787 -1 433 0 412 0 c 2
 139 0 l 2
 104 0 86.3623 -3 86.3623 -3 c 1
 86 0 l 1
 105.479 54 122.569 125 138.512 200 c 2
 190.588 445 l 2
 206.529 520 218.983 588 223.099 645 c 1
 225.736 648 l 1
 225.736 648 242.099 645 276.099 645 c 0
 306.099 645 539.099 645 539.099 645 c 2
 560.099 645 583.312 646 599.736 648 c 1
 601.099 645 l 1
 597.123 631 594.21 622 592.51 614 c 0
 590.597 605 589.684 596 588.983 588 c 1
 586.133 584 l 1
 586.133 584 450.684 596 316.684 596 c 1
 304.582 572 280.201 462 276.588 445 c 2
 259.158 363 l 1
 377.158 363 424.221 368 484.283 373 c 1
 486.646 370 l 1
 482.732 361 479.607 351 477.694 342 c 0
 475.781 333 474.656 323 474.743 314 c 1
 471.105 311 l 1
 403.593 318 298.23 321 250.23 321 c 1
 224.512 200 l 2
EndSplineSet
LCarets2: 1 0 
Colour: ff00ff
EndChar

StartChar: uni04D7
Encoding: 1239 1239 113
Width: 442
VWidth: 999
Flags: HW
HStem: -10 59<197.345 335.48> 243 44<125 319.997> 399 40<175.584 290.389> 489 31<186.971 261.548>
VStem: 34 88<132.133 243> 103 73<526.553 605.612> 272 73<526.548 606.379> 320 89<254.5 358.106>
LayerCount: 2
Fore
SplineSet
467.646 577 m 0
 455.954 522 390.94 489 326.94 489 c 0
 261.94 489 213.954 522 225.433 576 c 0
 229.259 594 248.447 609 271.447 609 c 0
 293.447 609 302.471 595 299.07 579 c 0
 298.433 576 298.008 574 296.37 571 c 0
 294.732 568 294.095 565 293.669 563 c 0
 288.993 541 304.529 520 334.529 520 c 0
 363.529 520 388.78 540 393.457 562 c 0
 394.095 565 394.732 568 394.37 571 c 0
 393.795 573 394.22 575 394.857 578 c 0
 398.471 595 418.447 609 436.447 609 c 0
 460.447 609 471.684 596 467.646 577 c 0
186.004 287 m 1
 367.004 287 l 2
 377.004 287 382.066 292 383.979 301 c 0
 399.921 376 359.811 399 323.811 399 c 0
 300.811 399 225.109 391 186.004 287 c 1
418.318 105 m 1
 432.792 79 l 1
 383.739 27 314.874 -10 242.874 -10 c 0
 105.874 -10 51.8545 84 76.2988 199 c 0
 108.607 351 237.312 439 332.312 439 c 0
 464.312 439 482.119 344 464.265 260 c 0
 461.927 249 453.651 243 442.651 243 c 2
 173.651 243 l 1
 141.98 94 219.415 49 275.415 49 c 0
 330.415 49 375.241 67 418.318 105 c 1
EndSplineSet
LCarets2: 1 0 
Colour: ff00ff
EndChar

StartChar: uni04D8
Encoding: 1240 1240 114
Width: 644
VWidth: 999
Flags: HW
HStem: -12 34<246.269 393.278> 216 44<122 511> 624 34<207.892 368.818>
VStem: 521 90<221.919 443.038>
LayerCount: 2
Fore
SplineSet
208.167 523 m 1
 190.269 547 l 1
 284.998 621 339.862 658 449.862 658 c 0
 664.862 658 714.09 485 680.293 326 c 0
 638.845 131 506.449 -12 313.449 -12 c 0
 121.449 -12 78.082 118 97.2646 260 c 1
 575.265 260 l 1
 578.603 271 581.153 283 584.129 297 c 0
 623.665 483 561.636 624 426.636 624 c 0
 333.636 624 272.22 575 208.167 523 c 1
167.912 216 m 1
 171.28 86 229.676 22 327.676 22 c 0
 433.676 22 517.656 116 556.912 216 c 1
 167.912 216 l 1
EndSplineSet
Colour: ff00ff
EndChar

StartChar: afii10846
Encoding: 1241 1241 115
Width: 442
VWidth: 999
Flags: HW
HStem: -11 40<137.611 252.416> 141 44<108.003 303> 379 59<92.52 230.655>
VStem: 19 89<69.8942 173.5> 306 88<185 295.867>
LayerCount: 2
Fore
SplineSet
332.971 141 m 1
 151.971 141 l 2
 141.971 141 136.907 136 134.995 127 c 0
 119.053 52 159.164 29 195.164 29 c 0
 218.164 29 293.864 37 332.971 141 c 1
100.656 323 m 1
 86.1826 349 l 1
 135.235 401 204.1 438 276.1 438 c 0
 413.1 438 467.119 344 442.676 229 c 0
 410.367 77 281.662 -11 186.662 -11 c 0
 54.6621 -11 36.8545 84 54.71 168 c 0
 57.0479 179 65.3232 185 76.3232 185 c 2
 345.323 185 l 1
 376.994 334 299.559 379 243.559 379 c 0
 188.559 379 143.732 361 100.656 323 c 1
EndSplineSet
Colour: ff00ff
EndChar

StartChar: uni04DA
Encoding: 1242 1242 116
Width: 644
VWidth: 999
Flags: HW
HStem: -12 34<246.269 393.278> 216 44<122 511> 624 34<207.892 368.818> 706 90<192.481 269.519 382.301 458.653>
VStem: 186 90<712.481 789.519> 375 91<713.347 789.699> 521 90<221.919 443.038>
LayerCount: 2
Fore
SplineSet
531.843 752 m 0
 537.369 778 564.045 800 590.045 800 c 0
 616.045 800 633.369 778 627.843 752 c 0
 622.316 726 595.64 704 569.64 704 c 0
 543.64 704 526.316 726 531.843 752 c 0
342.843 752 m 0
 348.369 778 375.045 800 401.045 800 c 0
 427.045 800 444.369 778 438.843 752 c 0
 433.316 726 406.64 704 380.64 704 c 0
 354.64 704 337.316 726 342.843 752 c 0
208.167 523 m 1
 190.269 547 l 1
 284.998 621 339.862 658 449.862 658 c 0
 664.862 658 714.09 485 680.293 326 c 0
 638.845 131 506.449 -12 313.449 -12 c 0
 121.449 -12 78.082 118 97.2646 260 c 1
 575.265 260 l 1
 578.603 271 581.153 283 584.129 297 c 0
 623.665 483 561.636 624 426.636 624 c 0
 333.636 624 272.22 575 208.167 523 c 1
167.912 216 m 1
 171.28 86 229.676 22 327.676 22 c 0
 433.676 22 517.656 116 556.912 216 c 1
 167.912 216 l 1
EndSplineSet
LCarets2: 1 0 
Colour: ff00ff
EndChar

StartChar: uni04DB
Encoding: 1243 1243 117
Width: 442
VWidth: 999
Flags: HW
HStem: -11 40<137.611 252.416> 141 44<108.003 303> 379 59<92.52 230.655> 527 92<94.3474 171.653 254.347 331.653>
VStem: 19 89<69.8942 173.5> 87 92<534.347 611.653> 247 92<534.347 611.653> 306 88<185 295.867>
LayerCount: 2
Fore
SplineSet
208.795 573 m 0
 214.108 598 239.572 619 264.572 619 c 0
 289.572 619 306.108 598 300.795 573 c 0
 295.481 548 270.018 527 245.018 527 c 0
 220.018 527 203.481 548 208.795 573 c 0
368.795 573 m 0
 374.108 598 399.572 619 424.572 619 c 0
 449.572 619 466.108 598 460.795 573 c 0
 455.481 548 430.018 527 405.018 527 c 0
 380.018 527 363.481 548 368.795 573 c 0
332.971 141 m 1
 151.971 141 l 2
 141.971 141 136.907 136 134.995 127 c 0
 119.053 52 159.164 29 195.164 29 c 0
 218.164 29 293.864 37 332.971 141 c 1
100.656 323 m 1
 86.1826 349 l 1
 135.235 401 204.1 438 276.1 438 c 0
 413.1 438 467.119 344 442.676 229 c 0
 410.367 77 281.662 -11 186.662 -11 c 0
 54.6621 -11 36.8545 84 54.71 168 c 0
 57.0479 179 65.3232 185 76.3232 185 c 2
 345.323 185 l 1
 376.994 334 299.559 379 243.559 379 c 0
 188.559 379 143.732 361 100.656 323 c 1
EndSplineSet
LCarets2: 1 0 
Colour: ff00ff
EndChar

StartChar: uni04E0
Encoding: 1248 1248 118
Width: 608
VWidth: 999
Flags: HW
HStem: -211 37<215 357> 605 39<141 167 167 446>
VStem: 475 89<-42 146>
DStem2: 250 252 367 288 0.48636 0.873758<88.8042 404.592>
LayerCount: 2
Fore
SplineSet
304.099 645 m 2
 659.099 645 l 2
 680.099 645 685.823 639 684.123 631 c 0
 681.998 621 672.597 605 660.408 590 c 2
 428.216 288 l 1
 556.478 261 598.435 162 574.841 51 c 0
 545.295 -88 387.15 -211 227.15 -211 c 0
 147.15 -211 4.58984 -176 18.6191 -110 c 0
 23.5078 -87 39.2471 -60 73.2471 -60 c 0
 100.247 -60 125.271 -74 133.807 -95 c 0
 155.392 -144 199.016 -174 254.016 -174 c 0
 341.016 -174 463.734 -53 483.928 42 c 0
 517.724 201 414.202 255 345.202 255 c 0
 329.202 255 318.202 255 303.564 252 c 1
 574.597 605 l 1
 325.597 605 l 1
 251.384 604 204.742 521 191.39 477 c 1
 165.814 479 l 1
 226.775 667 l 1
 248.713 662 280.099 645 304.099 645 c 2
EndSplineSet
Colour: ff00ff
EndChar

StartChar: uni04E1
Encoding: 1249 1249 119
Width: 416
VWidth: 999
Flags: HW
HStem: -235 35<149 244> 103 34<216 268> 395 34<107 295>
VStem: 40 27<303 337> 312 81<-120 61>
DStem2: 127 107 216 137 0.505072 0.863077<70.4402 332.658>
LayerCount: 2
Fore
SplineSet
149.743 107 m 1
 378.96 395 l 1
 233.96 395 l 2
 203.96 395 165.496 374 129.979 301 c 1
 104.617 304 l 1
 123.032 353 138.385 397 148.95 442 c 1
 173.95 442 l 1
 174.675 436 182.187 429 197.187 429 c 2
 400.187 429 l 2
 429.187 429 466.462 435 468.462 435 c 0
 475.462 435 481.037 433 480.187 429 c 0
 479.337 425 470.998 414 449.26 387 c 2
 245.12 137 l 1
 341.12 137 410.854 84 388.324 -22 c 0
 363.029 -141 258.049 -235 135.049 -235 c 0
 50.0488 -235 5.01562 -174 11.8174 -142 c 0
 15.6426 -124 29.4688 -106 51.4688 -106 c 0
 74.4688 -106 85.3438 -116 88.2422 -140 c 0
 91.5654 -162 110.488 -200 150.488 -200 c 0
 200.488 -200 280.967 -146 303.923 -38 c 0
 325.391 63 302.894 103 224.894 103 c 0
 213.894 103 182.405 96 163.556 92 c 1
 149.743 107 l 1
EndSplineSet
Colour: ff00ff
EndChar

StartChar: uni04E6
Encoding: 1254 1254 120
Width: 721
VWidth: 999
Flags: HW
HStem: -10 44<287.518 460.882> 614 44<261.342 446.336> 706 90<218.481 295.519 408.301 484.653>
VStem: 42 103<199.871 439.073> 212 90<712.481 789.519> 401 91<713.347 789.699> 576 103<198.639 454.348>
LayerCount: 2
Fore
SplineSet
557.843 752 m 0
 563.369 778 590.045 800 616.045 800 c 0
 642.045 800 659.369 778 653.843 752 c 0
 648.316 726 621.64 704 595.64 704 c 0
 569.64 704 552.316 726 557.843 752 c 0
368.843 752 m 0
 374.369 778 401.045 800 427.045 800 c 0
 453.045 800 470.369 778 464.843 752 c 0
 459.316 726 432.64 704 406.64 704 c 0
 380.64 704 363.316 726 368.843 752 c 0
475.51 614 m 0
 379.51 614 259.143 537 214.506 327 c 0
 173.695 135 266.227 34 386.227 34 c 0
 500.227 34 603.845 131 641.893 310 c 0
 686.104 518 616.51 614 475.51 614 c 0
748.931 329 m 0
 706.42 129 547.874 -10 356.874 -10 c 0
 184.874 -10 66.0186 113 107.893 310 c 0
 149.554 506 318.862 658 497.862 658 c 0
 677.862 658 791.018 527 748.931 329 c 0
EndSplineSet
LCarets2: 1 0 
Colour: ff00ff
EndChar

StartChar: uni04E7
Encoding: 1255 1255 121
Width: 510
VWidth: 999
Flags: HW
HStem: -10 41<204.375 329.082> 398 41<186.898 318.163> 528 92<135.347 212.653 295.347 372.653>
VStem: 36 90<124.397 311.463> 128 92<535.347 612.653> 288 92<535.347 612.653> 384 90<116.419 317.676>
LayerCount: 2
Fore
SplineSet
79.5742 205 m 0
 108.694 342 219.312 439 350.312 439 c 0
 507.312 439 541.593 318 519.487 214 c 0
 496.743 107 395.874 -10 252.874 -10 c 0
 114.874 -10 56.1934 95 79.5742 205 c 0
334.598 398 m 0
 248.598 398 192.955 315 174.463 228 c 0
 158.096 151 171.589 31 275.589 31 c 0
 320.589 31 397.391 63 423.748 187 c 0
 454.994 334 419.598 398 334.598 398 c 0
250.008 574 m 0
 255.321 599 280.785 620 305.785 620 c 0
 330.785 620 347.321 599 342.008 574 c 0
 336.693 549 311.229 528 286.229 528 c 0
 261.229 528 244.693 549 250.008 574 c 0
410.008 574 m 0
 415.321 599 440.785 620 465.785 620 c 0
 490.785 620 507.321 599 502.008 574 c 0
 496.693 549 471.229 528 446.229 528 c 0
 421.229 528 404.693 549 410.008 574 c 0
EndSplineSet
LCarets2: 1 0 
Colour: ff00ff
EndChar

StartChar: uni04E8
Encoding: 1256 1256 122
Width: 721
VWidth: 999
Flags: HW
HStem: -10 44<287.518 460.882> 266 57<387.324 534.392> 312 58<177.336 340.102> 614 44<261.342 446.336>
VStem: 42 103<199.871 439.073> 576 103<198.639 454.348>
LayerCount: 2
Fore
SplineSet
748.931 329 m 0
 706.42 129 547.874 -10 356.874 -10 c 0
 184.874 -10 66.0186 113 107.893 310 c 0
 149.554 506 318.862 658 497.862 658 c 0
 677.862 658 791.018 527 748.931 329 c 0
643.231 316.3 m 1
 593.006 277.6 540.44 266 502.54 266 c 0
 410.54 266 396.317 312 321.317 312 c 0
 294.418 312 246.304 307.7 207.972 289.2 c 1
 186.269 121.7 274.327 34 386.227 34 c 0
 500.227 34 603.845 131 641.893 310 c 0
 642.339 312.1 642.785 314.2 643.231 316.3 c 1
650.423 358.6 m 1
 674.293 533 605.01 614 475.51 614 c 0
 380.21 614 260.998 538.2 215.526 331.8 c 1
 260.074 357.9 317.446 370 351.646 370 c 0
 449.646 370 469.656 323 532.656 323 c 0
 564.256 323 612.991 335.4 650.423 358.6 c 1
EndSplineSet
Colour: ff00ff
EndChar

StartChar: uni04E9
Encoding: 1257 1257 123
Width: 510
VWidth: 999
Flags: HMW
HStem: -12 36<202 328> 179 49<204 349> 207 42<118 238> 409 33<183 304>
VStem: 44 79<124 320> 377 79<113 318>
AnchorPoint: "unten_punkt" 223.257 -107 basechar 0
AnchorPoint: "top_punkt" 361.906 550 basechar 0
AnchorPoint: "top_akzent" 373.099 645 basechar 0
LayerCount: 2
Fore
SplineSet
426.55 219 m 1
 404.787 206 353.048 179 312.048 179 c 0
 269.048 179 240.999 207 205.999 207 c 0
 198.399 207 182.704 204.2 170.357 202.1 c 1
 162.052 126.8 182.689 31 275.589 31 c 0
 320.589 31 397.391 63 423.748 187 c 0
 454.994 334 419.598 398 334.598 398 c 0
 249.397 398 193.995 316.6 174.994 230.5 c 1
 200.22 240.5 238.627 249 265.927 249 c 0
 310.927 249 328.676 229 366.676 229 c 0
 388.676 229 412.376 237 428.864 244 c 1
 426.55 219 l 1
79.5742 205 m 0
 108.694 342 219.312 439 350.312 439 c 0
 507.312 439 541.593 318 519.487 214 c 0
 496.743 107 395.874 -10 252.874 -10 c 0
 114.874 -10 56.1934 95 79.5742 205 c 0
EndSplineSet
Colour: ff80cc
EndChar

StartChar: uni04EA
Encoding: 1258 1258 124
Width: 721
VWidth: 999
Flags: HW
HStem: -10 44<287.518 460.882> 266 57<387.324 534.392> 312 58<177.336 340.102> 614 44<261.342 446.336> 708 90<215.481 292.519 405.301 481.653>
VStem: 42 103<199.871 439.073> 209 90<714.481 791.519> 398 91<715.347 791.699> 576 103<198.639 454.348>
LayerCount: 2
Fore
SplineSet
555.268 754 m 0
 560.794 780 587.471 802 613.471 802 c 0
 639.471 802 656.794 780 651.268 754 c 0
 645.741 728 619.064 706 593.064 706 c 0
 567.064 706 549.741 728 555.268 754 c 0
366.268 754 m 0
 371.794 780 398.471 802 424.471 802 c 0
 450.471 802 467.794 780 462.268 754 c 0
 456.741 728 430.064 706 404.064 706 c 0
 378.064 706 360.741 728 366.268 754 c 0
748.931 329 m 0
 706.42 129 547.874 -10 356.874 -10 c 0
 184.874 -10 66.0186 113 107.893 310 c 0
 149.554 506 318.862 658 497.862 658 c 0
 677.862 658 791.018 527 748.931 329 c 0
643.231 316.3 m 1
 593.006 277.6 540.44 266 502.54 266 c 0
 410.54 266 396.317 312 321.317 312 c 0
 294.418 312 246.304 307.7 207.972 289.2 c 1
 186.269 121.7 274.327 34 386.227 34 c 0
 500.227 34 603.845 131 641.893 310 c 0
 642.339 312.1 642.785 314.2 643.231 316.3 c 1
650.423 358.6 m 1
 674.293 533 605.01 614 475.51 614 c 0
 380.21 614 260.998 538.2 215.526 331.8 c 1
 260.074 357.9 317.446 370 351.646 370 c 0
 449.646 370 469.656 323 532.656 323 c 0
 564.256 323 612.991 335.4 650.423 358.6 c 1
EndSplineSet
LCarets2: 1 0 
Colour: ff00ff
EndChar

StartChar: uni04EB
Encoding: 1259 1259 125
Width: 510
VWidth: 999
Flags: HW
HStem: -12 36<202 328> 179 49<204 349> 207 42<118 238> 409 33<183 304> 527 92<137.347 214.653 297.347 374.653>
VStem: 44 79<124 320> 130 92<534.347 611.653> 290 92<534.347 611.653> 377 79<113 318>
LayerCount: 2
Fore
SplineSet
426.55 219 m 1
 404.787 206 353.048 179 312.048 179 c 0
 269.048 179 240.999 207 205.999 207 c 0
 198.399 207 182.704 204.2 170.357 202.1 c 1
 162.052 126.8 182.689 31 275.589 31 c 0
 320.589 31 397.391 63 423.748 187 c 0
 454.994 334 419.598 398 334.598 398 c 0
 249.397 398 193.995 316.6 174.994 230.5 c 1
 200.22 240.5 238.627 249 265.927 249 c 0
 310.927 249 328.676 229 366.676 229 c 0
 388.676 229 412.376 237 428.864 244 c 1
 426.55 219 l 1
79.5742 205 m 0
 108.694 342 219.312 439 350.312 439 c 0
 507.312 439 541.593 318 519.487 214 c 0
 496.743 107 395.874 -10 252.874 -10 c 0
 114.874 -10 56.1934 95 79.5742 205 c 0
251.795 573 m 0
 257.108 598 282.572 619 307.572 619 c 0
 332.572 619 349.108 598 343.795 573 c 0
 338.481 548 313.018 527 288.018 527 c 0
 263.018 527 246.481 548 251.795 573 c 0
411.795 573 m 0
 417.108 598 442.572 619 467.572 619 c 0
 492.572 619 509.108 598 503.795 573 c 0
 498.481 548 473.018 527 448.018 527 c 0
 423.018 527 406.481 548 411.795 573 c 0
EndSplineSet
LCarets2: 1 0 
Colour: ff00ff
EndChar

StartChar: uni04EF
Encoding: 1263 1263 126
Width: 486
VWidth: 999
Flags: HW
HStem: 412 20<25 37.8974 112.5 137.704 367.982 391 451.5 463> 538 44<111.088 389.515>
VStem: 18 101<384.934 432> 89 84<-246 -210.595> 110 281<538.205 582>
LayerCount: 2
Fore
SplineSet
109.824 432 m 1
 123.187 429 148.187 429 161.187 429 c 0
 175.187 429 197.187 429 210.824 432 c 1
 223.95 317.8 247.393 206.5 271.32 87.5996 c 1
 273.32 87.5996 l 1
 343.94 191.2 417.806 319 477.824 432 c 1
 487.187 429 506.187 429 516.187 429 c 0
 526.187 429 549.187 429 559.824 432 c 1
 512.583 365 192.193 -112 127.624 -237 c 1
 118.262 -234 89.6865 -232 79.6865 -232 c 0
 69.6865 -232 54.2617 -234 43.624 -237 c 1
 104.83 -161.7 153.862 -93.7998 201.74 -19.0996 c 1
 186.555 76 130.749 343.2 109.824 432 c 1
481.355 538 m 2
 237.355 538 l 2
 228.355 538 226.056 546 227.544 553 c 0
 230.095 565 244.708 582 255.708 582 c 2
 500.708 582 l 2
 510.708 582 513.008 574 511.732 568 c 0
 509.182 556 494.355 538 481.355 538 c 2
EndSplineSet
LCarets2: 1 0 
Colour: ff00ff
EndChar

StartChar: uni04F1
Encoding: 1265 1265 127
Width: 486
VWidth: 999
Flags: HW
HStem: 412 20<25 37.8974 112.5 137.704 367.982 391 451.5 463> 527 92<142.347 219.653 302.347 379.653>
VStem: 18 101<384.934 432> 89 84<-246 -210.595> 135 92<534.347 611.653> 295 92<534.347 611.653>
LayerCount: 2
Fore
SplineSet
109.824 432 m 1
 123.187 429 148.187 429 161.187 429 c 0
 175.187 429 197.187 429 210.824 432 c 1
 223.95 317.8 247.393 206.5 271.32 87.5996 c 1
 273.32 87.5996 l 1
 343.94 191.2 417.806 319 477.824 432 c 1
 487.187 429 506.187 429 516.187 429 c 0
 526.187 429 549.187 429 559.824 432 c 1
 512.583 365 192.193 -112 127.624 -237 c 1
 118.262 -234 89.6865 -232 79.6865 -232 c 0
 69.6865 -232 54.2617 -234 43.624 -237 c 1
 104.83 -161.7 153.862 -93.7998 201.74 -19.0996 c 1
 186.555 76 130.749 343.2 109.824 432 c 1
256.795 573 m 0
 262.108 598 287.572 619 312.572 619 c 0
 337.572 619 354.108 598 348.795 573 c 0
 343.481 548 318.018 527 293.018 527 c 0
 268.018 527 251.481 548 256.795 573 c 0
416.795 573 m 0
 422.108 598 447.572 619 472.572 619 c 0
 497.572 619 514.108 598 508.795 573 c 0
 503.481 548 478.018 527 453.018 527 c 0
 428.018 527 411.481 548 416.795 573 c 0
EndSplineSet
LCarets2: 1 0 
Colour: ff00ff
EndChar

StartChar: uni04F3
Encoding: 1267 1267 128
Width: 486
VWidth: 999
Flags: HW
HStem: 412 20<25 37.8974 112.5 137.704 367.982 391 451.5 463>
VStem: 18 101<384.934 432> 89 84<-246 -210.595>
LayerCount: 2
Fore
SplineSet
109.824 432 m 1
 123.187 429 148.187 429 161.187 429 c 0
 175.187 429 197.187 429 210.824 432 c 1
 223.95 317.8 247.393 206.5 271.32 87.5996 c 1
 273.32 87.5996 l 1
 343.94 191.2 417.806 319 477.824 432 c 1
 487.187 429 506.187 429 516.187 429 c 0
 526.187 429 549.187 429 559.824 432 c 1
 512.583 365 192.193 -112 127.624 -237 c 1
 118.262 -234 89.6865 -232 79.6865 -232 c 0
 69.6865 -232 54.2617 -234 43.624 -237 c 1
 104.83 -161.7 153.862 -93.7998 201.74 -19.0996 c 1
 186.555 76 130.749 343.2 109.824 432 c 1
574.723 615 m 0
 573.447 609 570.959 602 563.684 596 c 2
 426.303 486 l 2
 423.877 484 421.877 484 419.877 484 c 0
 414.877 484 406.94 489 408.641 497 c 0
 408.854 498 409.278 500 410.491 501 c 2
 518.036 640 l 2
 524.949 649 532.587 652 544.587 652 c 0
 565.587 652 578.676 633.6 574.723 615 c 0
443.998 621 m 0
 442.935 616 440.659 610 435.597 605 c 2
 307.877 484 l 2
 305.452 482 302.239 481 299.239 481 c 0
 293.239 481 286.303 486 288.003 494 c 0
 288.216 495 288.428 496 289.641 497 c 2
 384.674 643 l 2
 393.438 656 409.649 657 413.649 657 c 0
 434.55 657 448.355 641.5 443.998 621 c 0
EndSplineSet
LCarets2: 1 0 
Colour: ff00ff
EndChar

StartChar: uni1E00
Encoding: 7680 7680 129
Width: 633
VWidth: 999
Flags: HW
HStem: -215 27<274.238 341.262> -76 27<273.737 342.086> -3 21<24 68.5 92 115.444 500.087 513.5 590 606.5> 230 44<188.935 310> 638 20<265 387>
VStem: 222 32<-170.178 -92.558> 362 31<-169.958 -93.519>
LayerCount: 2
Fore
SplineSet
291.846 -76 m 0
 260.846 -76 236.319 -102 229.942 -132 c 0
 223.991 -160 237.039 -188 268.039 -188 c 0
 299.039 -188 323.991 -160 329.942 -132 c 0
 336.532 -101 321.846 -76 291.846 -76 c 0
192.942 -132 m 0
 202.72 -86 251.585 -49 297.585 -49 c 0
 343.585 -49 376.933 -85 366.942 -132 c 0
 357.378 -177 310.301 -215 262.301 -215 c 0
 216.301 -215 183.165 -178 192.942 -132 c 0
229.526 228.3 m 1
 175.228 140.8 126.792 58.2998 97.3623 -3 c 1
 86 0 64 0 53 0 c 0
 42 0 30 0 17.3623 -3 c 1
 165.337 218 309.675 436 452.862 658 c 1
 480.862 658 l 1
 526.312 439 585.83 98 614.362 -3 c 1
 598 0 572 0 555 0 c 0
 538 0 522 0 504.362 -3 c 1
 502.981 19.2002 496.961 97.2002 475.826 228.3 c 1
 438.318 229.2 396.888 230 358.888 230 c 0
 324.388 230 267.718 229.2 229.526 228.3 c 1
467.859 275.5 m 1
 455.774 345.2 439.946 427.4 418.912 521.8 c 1
 416.912 521.8 l 1
 259.244 275.9 l 1
 290.859 275.5 334.341 274 363.24 274 c 0
 392.94 274 434.789 274.7 467.859 275.5 c 1
EndSplineSet
LCarets2: 1 0 
Colour: ff00ff
EndChar

StartChar: uni1E01
Encoding: 7681 7681 130
Width: 459
VWidth: 999
Flags: HW
HStem: -216 27<190.238 257.262> -77 27<189.737 258.086> -10 51<138.029 242.029 327.75 409.627> 394 45<147.355 264.803>
VStem: 42 81<56.8026 162.817> 138 32<-171.178 -93.558> 278 31<-170.958 -94.519> 293 79.1<81.0426 223 264.049 363.451>
DStem2: 199 243 212 202 0.972687 0.232119<-72.5363 85.8176>
LayerCount: 2
Fore
SplineSet
207.633 -77 m 0
 176.633 -77 152.106 -103 145.73 -133 c 0
 139.778 -161 152.827 -189 183.827 -189 c 0
 214.827 -189 239.778 -161 245.73 -133 c 0
 252.319 -102 237.633 -77 207.633 -77 c 0
108.73 -133 m 0
 118.508 -87 167.372 -50 213.372 -50 c 0
 259.372 -50 292.72 -86 282.73 -133 c 0
 273.165 -178 226.088 -216 178.088 -216 c 0
 132.088 -216 98.9521 -179 108.73 -133 c 0
339.4 223 m 1
 254.937 202 l 2
 176.913 182.6 154.246 147 144.681 102 c 0
 138.092 71 155.715 41 197.715 41 c 0
 225.715 41 262.391 63 292.854 84 c 0
 302.13 90 309.618 97 312.381 110 c 2
 339.4 223 l 1
384.154 76 m 0
 379.903 56 382.565 45 393.565 45 c 0
 407.565 45 423.541 59 434.028 66 c 1
 436.604 64 l 1
 448.14 43 l 1
 408.638 3 379.874 -10 348.874 -10 c 0
 301.874 -10 299.802 32 301.203 48 c 1
 299.203 48 l 1
 239.638 3 209.874 -10 157.874 -10 c 0
 87.874 -10 47.1016 24 62.8301 98 c 0
 77.2842 166 149.763 220 250.651 243 c 2
 343.115 264 l 2
 346.327 265 350.178 269 351.666 276 c 0
 375.685 389 320.747 394 286.747 394 c 0
 241.747 394 190.395 350 154.83 305 c 1
 142.042 306 l 1
 140.283 373 l 1
 144.134 377 l 1
 172.598 398 233.312 439 305.312 439 c 0
 377.312 439 459.573 412 430.878 277 c 0
 428.54 266 390.318 105 384.154 76 c 0
EndSplineSet
LCarets2: 1 0 
Colour: ff00ff
EndChar

StartChar: uni1E02
Encoding: 7682 7682 131
Width: 582
VWidth: 999
Flags: HW
HStem: -3 44<171.13 393.675> 327 44<189 355.197> 604 44<169.378 351.471> 689 104<241.248 324.458>
VStem: 103 86<49.3073 327 371 597.325> 231 104<699.542 782.752> 395 87<424.724 562.128> 442 99<97.3818 255.662>
LayerCount: 2
Fore
SplineSet
389.504 741 m 0
 395.243 768 424.345 792 451.345 792 c 0
 478.345 792 497.243 768 491.504 741 c 0
 485.766 714 456.664 690 429.664 690 c 0
 402.664 690 383.766 714 389.504 741 c 0
307.819 559 m 2
 267.858 371 l 1
 339.858 371 l 2
 422.858 371 479.173 396 497.239 481 c 0
 518.921 583 458.384 604 402.384 604 c 0
 321.384 604 314.897 592.3 307.819 559 c 2
258.506 327 m 1
 207.705 88 l 2
 200.69 55 208.715 41 278.715 41 c 0
 430.715 41 461.556 92 477.072 165 c 0
 496.202 255 462.506 327 345.506 327 c 2
 258.506 327 l 1
283.099 645 m 0
 330.299 645 369.736 648 404.736 648 c 0
 590.736 648 601.031 560 586.79 493 c 0
 575.1 438 521.834 385 465.521 360 c 1
 547.206 335 600.516 280 580.11 184 c 0
 561.83 98 487.362 -3 288.362 -3 c 0
 199.362 -3 201.8 0 146 0 c 0
 111 0 93.3623 -3 93.3623 -3 c 1
 93 0 l 1
 112.479 54 129.569 125 145.512 200 c 2
 197.588 445 l 2
 213.529 520 225.983 588 230.099 645 c 1
 232.736 648 l 1
 232.736 648 249.099 645 283.099 645 c 0
EndSplineSet
LCarets2: 1 0 
Colour: ff00ff
EndChar

StartChar: uni1E03
Encoding: 7683 7683 132
Width: 497
VWidth: 999
Flags: HW
HStem: -10 44<179.548 305.024> 385 54<196.637 317.65> 519 104<223.248 306.458> 678 20<143.465 159.167>
VStem: 75 80<58.0308 360.44 384 667.981> 213 104<529.542 612.752> 375 85<134.529 320.197>
LayerCount: 2
Fore
SplineSet
335.37 571 m 0
 341.108 598 370.21 622 397.21 622 c 0
 424.21 622 443.108 598 437.37 571 c 0
 431.631 544 402.529 520 375.529 520 c 0
 348.529 520 329.631 544 335.37 571 c 0
172.217 81 m 1
 186.903 56 206.227 34 237.227 34 c 0
 332.227 34 398.381 110 422.612 224 c 0
 443.23 321 402.834 385 341.834 385 c 0
 330.834 385 275.409 383 227.907 343 c 1
 172.217 81 l 1
261.278 500 m 2
 236.622 384 l 1
 278.486 421 325.312 439 373.312 439 c 0
 460.312 439 537.371 364 511.438 242 c 0
 477.643 83 335.874 -10 233.874 -10 c 0
 190.874 -10 163.425 2 139.739 27 c 1
 122.476 14 110.425 2 98.4492 -12 c 1
 88.9492 -12 73.7041 -10.7998 68.5117 -7 c 1
 77.3457 14.7998 81.8018 32 90.0918 71 c 2
 177.452 482 l 2
 193.606 558 206.037 627.3 207.413 670 c 1
 210.051 673 l 1
 251.188 676 277.139 688 304.364 698 c 1
 310.664 698 312.727 695 311.239 688 c 0
 290.509 626.7 277.008 574 261.278 500 c 2
EndSplineSet
LCarets2: 1 0 
Colour: ff00ff
EndChar

StartChar: uni1E04
Encoding: 7684 7684 133
Width: 582
VWidth: 999
Flags: HW
HStem: -167 104<228.248 311.458> -3 44<171.13 393.675> 327 44<189 355.197> 604 44<169.378 351.471>
VStem: 103 86<49.3073 327 371 597.325> 218 104<-156.458 -73.2479> 395 87<424.724 562.128> 442 99<97.3818 255.662>
LayerCount: 2
Fore
SplineSet
194.556 -115 m 0
 200.295 -88 229.396 -64 256.396 -64 c 0
 283.396 -64 302.295 -88 296.556 -115 c 0
 290.817 -142 261.716 -166 234.716 -166 c 0
 207.716 -166 188.817 -142 194.556 -115 c 0
307.819 559 m 2
 267.858 371 l 1
 339.858 371 l 2
 422.858 371 479.173 396 497.239 481 c 0
 518.921 583 458.384 604 402.384 604 c 0
 321.384 604 314.897 592.3 307.819 559 c 2
258.506 327 m 1
 207.705 88 l 2
 200.69 55 208.715 41 278.715 41 c 0
 430.715 41 461.556 92 477.072 165 c 0
 496.202 255 462.506 327 345.506 327 c 2
 258.506 327 l 1
283.099 645 m 0
 330.299 645 369.736 648 404.736 648 c 0
 590.736 648 601.031 560 586.79 493 c 0
 575.1 438 521.834 385 465.521 360 c 1
 547.206 335 600.516 280 580.11 184 c 0
 561.83 98 487.362 -3 288.362 -3 c 0
 199.362 -3 201.8 0 146 0 c 0
 111 0 93.3623 -3 93.3623 -3 c 1
 93 0 l 1
 112.479 54 129.569 125 145.512 200 c 2
 197.588 445 l 2
 213.529 520 225.983 588 230.099 645 c 1
 232.736 648 l 1
 232.736 648 249.099 645 283.099 645 c 0
EndSplineSet
LCarets2: 1 0 
Colour: ff00ff
EndChar

StartChar: uni1E05
Encoding: 7685 7685 134
Width: 497
VWidth: 999
Flags: HW
HStem: -167 104<183.248 266.458> -10 44<179.548 305.024> 385 54<196.637 317.65> 678 20<143.465 159.167>
VStem: 75 80<58.0308 360.44 384 667.981> 173 104<-156.458 -73.2479> 375 85<134.529 320.197>
LayerCount: 2
Fore
SplineSet
149.556 -115 m 0
 155.295 -88 184.396 -64 211.396 -64 c 0
 238.396 -64 257.295 -88 251.556 -115 c 0
 245.817 -142 216.716 -166 189.716 -166 c 0
 162.716 -166 143.817 -142 149.556 -115 c 0
172.217 81 m 1
 186.903 56 206.227 34 237.227 34 c 0
 332.227 34 398.381 110 422.612 224 c 0
 443.23 321 402.834 385 341.834 385 c 0
 330.834 385 275.409 383 227.907 343 c 1
 172.217 81 l 1
261.278 500 m 2
 236.622 384 l 1
 278.486 421 325.312 439 373.312 439 c 0
 460.312 439 537.371 364 511.438 242 c 0
 477.643 83 335.874 -10 233.874 -10 c 0
 190.874 -10 163.425 2 139.739 27 c 1
 122.476 14 110.425 2 98.4492 -12 c 1
 88.9492 -12 73.7041 -10.7998 68.5117 -7 c 1
 77.3457 14.7998 81.8018 32 90.0918 71 c 2
 177.452 482 l 2
 193.606 558 206.037 627.3 207.413 670 c 1
 210.051 673 l 1
 251.188 676 277.139 688 304.364 698 c 1
 310.664 698 312.727 695 311.239 688 c 0
 290.509 626.7 277.008 574 261.278 500 c 2
EndSplineSet
LCarets2: 1 0 
Colour: ff00ff
EndChar

StartChar: uni1E06
Encoding: 7686 7686 135
Width: 582
VWidth: 999
Flags: HW
HStem: -106 44<137 148 148 415> -3 44<171.13 393.675> 327 44<189 355.197> 604 44<169.378 351.471>
VStem: 103 86<49.3073 327 371 597.325> 395 87<424.724 562.128> 442 99<97.3818 255.662>
LayerCount: 2
Fore
SplineSet
370.469 -106 m 2
 125.469 -106 l 2
 117.469 -106 115.17 -98 116.657 -91 c 0
 119.208 -79 132.821 -62 144.821 -62 c 2
 389.821 -62 l 2
 398.821 -62 401.334 -69 399.846 -76 c 0
 397.295 -88 383.469 -106 370.469 -106 c 2
307.819 559 m 2
 267.858 371 l 1
 339.858 371 l 2
 422.858 371 479.173 396 497.239 481 c 0
 518.921 583 458.384 604 402.384 604 c 0
 321.384 604 314.897 592.3 307.819 559 c 2
258.506 327 m 1
 207.705 88 l 2
 200.69 55 208.715 41 278.715 41 c 0
 430.715 41 461.556 92 477.072 165 c 0
 496.202 255 462.506 327 345.506 327 c 2
 258.506 327 l 1
283.099 645 m 0
 330.299 645 369.736 648 404.736 648 c 0
 590.736 648 601.031 560 586.79 493 c 0
 575.1 438 521.834 385 465.521 360 c 1
 547.206 335 600.516 280 580.11 184 c 0
 561.83 98 487.362 -3 288.362 -3 c 0
 199.362 -3 201.8 0 146 0 c 0
 111 0 93.3623 -3 93.3623 -3 c 1
 93 0 l 1
 112.479 54 129.569 125 145.512 200 c 2
 197.588 445 l 2
 213.529 520 225.983 588 230.099 645 c 1
 232.736 648 l 1
 232.736 648 249.099 645 283.099 645 c 0
EndSplineSet
LCarets2: 1 0 
Colour: ff00ff
EndChar

StartChar: uni1E07
Encoding: 7687 7687 136
Width: 497
VWidth: 999
Flags: HW
HStem: -110 44<107 118 118 385> -10 44<179.548 305.024> 385 54<196.637 317.65> 678 20<143.465 159.167>
VStem: 75 80<58.0308 360.44 384 667.981> 375 85<134.529 320.197>
LayerCount: 2
Fore
SplineSet
339.619 -110 m 2
 94.6191 -110 l 2
 86.6191 -110 84.3193 -102 85.8066 -95 c 0
 88.3574 -83 101.972 -66 113.972 -66 c 2
 358.972 -66 l 2
 367.972 -66 370.483 -73 368.995 -80 c 0
 366.444 -92 352.619 -110 339.619 -110 c 2
172.217 81 m 1
 186.903 56 206.227 34 237.227 34 c 0
 332.227 34 398.381 110 422.612 224 c 0
 443.23 321 402.834 385 341.834 385 c 0
 330.834 385 275.409 383 227.907 343 c 1
 172.217 81 l 1
261.278 500 m 2
 236.622 384 l 1
 278.486 421 325.312 439 373.312 439 c 0
 460.312 439 537.371 364 511.438 242 c 0
 477.643 83 335.874 -10 233.874 -10 c 0
 190.874 -10 163.425 2 139.739 27 c 1
 122.476 14 110.425 2 98.4492 -12 c 1
 88.9492 -12 73.7041 -10.7998 68.5117 -7 c 1
 77.3457 14.7998 81.8018 32 90.0918 71 c 2
 177.452 482 l 2
 193.606 558 206.037 627.3 207.413 670 c 1
 210.051 673 l 1
 251.188 676 277.139 688 304.364 698 c 1
 310.664 698 312.727 695 311.239 688 c 0
 290.509 626.7 277.008 574 261.278 500 c 2
EndSplineSet
LCarets2: 1 0 
Colour: ff00ff
EndChar

StartChar: uni1E08
Encoding: 7688 7688 137
Width: 650
VWidth: 999
Flags: HW
HStem: -185 25<286.659 383.933> -84 32<356.31 393.165> -10 51<269.467 470.143> 611 47<271.061 460.844> 697 122
VStem: 37 103<195.742 435.455> 269 201 400 53<-150.949 -88.278>
DStem2: 307 -84 356 -55 0.397156 0.917751<46.0754 95.3334>
LayerCount: 2
Fore
SplineSet
582.084 819 m 1
 607.856 805.7 624.858 788.3 633.031 767 c 1
 476.702 709 l 2
 453.79 700 441.152 697 432.152 697 c 0
 423.152 697 418.64 704 420.34 712 c 0
 421.828 719 424.891 724 439.804 733 c 2
 582.084 819 l 1
345.744 -100 m 0
 326.744 -100 316.532 -101 299.469 -106 c 1
 294.744 -100 l 1
 351.374 -10 l 2
 350.574 -10 349.675 -10 348.874 -10 c 0
 133.874 -10 69.7334 154 103.955 315 c 0
 145.829 512 335.862 658 504.862 658 c 0
 626.862 658 713.297 613 713.297 613 c 1
 714.659 610 l 1
 692.381 560.7 685.506 550 671.065 499 c 1
 660.854 498 l 1
 637.283 580 570.872 611 480.872 611 c 0
 398.872 611 254.143 537 210.994 334 c 0
 179.961 188 213.715 41 368.715 41 c 0
 461.715 41 534.179 62 621.758 140 c 1
 641.569 125 l 1
 565.896 47.5 473.553 2.59961 386.963 -7.7002 c 1
 349.908 -71 l 1
 358.334 -69 367.546 -68 376.546 -68 c 0
 416.546 -68 442.444 -92 434.367 -130 c 0
 425.228 -173 372.639 -204 311.639 -204 c 0
 279.639 -204 263.914 -198 241.252 -187 c 1
 243.803 -175 248.29 -168 256.778 -161 c 1
 281.652 -171 291.803 -175 311.803 -175 c 0
 341.803 -175 365.778 -161 371.305 -135 c 0
 375.769 -114 368.744 -100 345.744 -100 c 0
EndSplineSet
LCarets2: 1 0 
Colour: ff00ff
EndChar

StartChar: uni1E09
Encoding: 7689 7689 138
Width: 437
VWidth: 999
Flags: HW
HStem: -198 29<156.047 256.231> -94 32<231.31 261.355> -10 54<198.612 332.08> 394 45<189.998 317.695>
VStem: 36 85<130.336 304.92> 266 62<-163.259 -95.4563>
DStem2: 182 -94 231 -65 0.384615 0.923077<45.6154 104>
LayerCount: 2
Fore
SplineSet
442.625 671 m 1
 445.838 672 452.051 673 457.051 673 c 0
 463.45 673 488.838 672 507.162 650 c 1
 507.823 639 l 1
 369.655 530 l 2
 351.467 515 342.616 511 335.616 511 c 0
 328.616 511 322.892 517 324.38 524 c 0
 326.761 535.2 330.91 539.2 341.731 552 c 2
 442.625 671 l 1
213.02 -94 m 0
 194.02 -94 183.807 -95 166.744 -100 c 1
 162.02 -94 l 1
 216.078 -8.09961 l 1
 110.048 5.40039 55.1084 89.9004 80.2119 208 c 0
 110.395 350 246.312 439 354.312 439 c 0
 404.312 439 453.911 423 481.511 407 c 1
 482.873 404 l 1
 442.443 322 l 1
 429.23 321 l 1
 412.402 366.5 382.247 394 343.747 394 c 0
 277.747 394 193.27 340 169.888 230 c 0
 145.019 113 203.353 44 280.353 44 c 0
 323.353 44 363.179 62 403.743 107 c 1
 407.743 107 l 1
 424.343 91 l 1
 377.495 23.5 308.766 -9.09961 249.374 -10 c 1
 217.184 -65 l 1
 225.609 -63 234.821 -62 243.821 -62 c 0
 283.821 -62 309.72 -86 301.643 -124 c 0
 292.503 -167 239.914 -198 178.914 -198 c 0
 146.914 -198 131.189 -192 108.527 -181 c 1
 111.078 -169 115.565 -162 124.054 -155 c 1
 148.928 -165 159.078 -169 179.078 -169 c 0
 209.078 -169 233.054 -155 238.58 -129 c 0
 243.044 -108 236.02 -94 213.02 -94 c 0
EndSplineSet
LCarets2: 1 0 
Colour: ff00ff
EndChar

StartChar: uni1E0A
Encoding: 7690 7690 139
Width: 698
VWidth: 999
Flags: HW
HStem: -2 44<168.546 432.266> 604 44<169.401 389.698> 693 104<254.248 337.458>
VStem: 101 86<49.3073 594.385> 244 104<703.542 786.752> 552 103<179.784 425.325>
LayerCount: 2
Fore
SplineSet
403.354 745 m 0
 409.094 772 438.195 796 465.195 796 c 0
 492.195 796 511.094 772 505.354 745 c 0
 499.615 718 470.515 694 443.515 694 c 0
 416.515 694 397.615 718 403.354 745 c 0
204.43 82 m 2
 197.628 50 206.928 42 304.928 42 c 0
 445.928 42 569.43 82 612.366 284 c 0
 645.1 438 615.384 604 399.384 604 c 0
 350.384 604 314.321 599 306.882 564 c 2
 204.43 82 l 2
281.099 645 m 0
 345.099 645 382.736 648 446.736 648 c 0
 638.736 648 760.003 494 720.468 308 c 0
 668.179 62 467.575 -2 326.575 -2 c 0
 223.575 -2 215 0 144 0 c 0
 109 0 91.3623 -3 91.3623 -3 c 1
 91 0 l 1
 110.479 54 127.569 125 143.512 200 c 2
 195.588 445 l 2
 211.529 520 223.983 588 228.099 645 c 1
 230.736 648 l 1
 230.736 648 247.099 645 281.099 645 c 0
EndSplineSet
LCarets2: 1 0 
Colour: ff00ff
EndChar

StartChar: uni1E0B
Encoding: 7691 7691 140
Width: 514
VWidth: 999
Flags: HW
HStem: -10 57<184.507 297.415> -3 21<374 383.667 449.5 458> 394 45<189.467 329.898> 519 104<190.248 273.458> 678 20<429.466 445.167>
VStem: 40 85<116.128 302.432> 180 104<529.542 612.752> 361 80<87.1288 364.244 417 667.981>
LayerCount: 2
Fore
SplineSet
302.37 571 m 0
 308.108 598 337.21 622 364.21 622 c 0
 391.21 622 410.108 598 404.37 571 c 0
 398.631 544 369.529 520 342.529 520 c 0
 315.529 520 296.631 544 302.37 571 c 0
384.169 109 m 1
 432.206 335 l 1
 416.283 373 396.747 394 349.747 394 c 0
 301.348 394 203.858 371 171.975 221 c 0
 145.405 96 199.99 47 253.99 47 c 0
 294.49 47 337.785 62.5 384.169 109 c 1
374.604 64 m 1
 328.72 17.5 263.874 -10 215.874 -10 c 0
 107.874 -10 57.0049 80 83.1494 203 c 0
 112.057 339 240.112 439 370.312 439 c 0
 390.312 439 429.399 430 449.636 417 c 1
 463.452 482 l 2
 479.606 558 492.037 627.3 493.413 670 c 1
 496.051 673 l 1
 537.188 676 563.139 688 590.364 698 c 1
 596.664 698 598.727 695 597.239 688 c 0
 576.509 626.7 563.008 574 547.278 500 c 2
 481.811 192 l 2
 465.869 117 459.14 43 458 0 c 1
 455.362 -3 l 1
 442.787 -1 424.1 0 411.5 0 c 0
 397 0 390.023 -1.2998 376.362 -3 c 0
 370.362 -3 367.575 -2 368 0 c 2
 376.604 64 l 1
 374.604 64 l 1
EndSplineSet
LCarets2: 1 0 
Colour: ff00ff
EndChar

StartChar: uni1E0C
Encoding: 7692 7692 141
Width: 698
VWidth: 999
Flags: HW
HStem: -167 104<248.248 331.458> -2 44<168.546 432.266> 604 44<169.401 389.698>
VStem: 101 86<49.3073 594.385> 238 104<-156.458 -73.2479> 552 103<179.784 425.325>
LayerCount: 2
Fore
SplineSet
214.556 -115 m 0
 220.295 -88 249.396 -64 276.396 -64 c 0
 303.396 -64 322.295 -88 316.556 -115 c 0
 310.817 -142 281.716 -166 254.716 -166 c 0
 227.716 -166 208.817 -142 214.556 -115 c 0
204.43 82 m 2
 197.628 50 206.928 42 304.928 42 c 0
 445.928 42 569.43 82 612.366 284 c 0
 645.1 438 615.384 604 399.384 604 c 0
 350.384 604 314.321 599 306.882 564 c 2
 204.43 82 l 2
281.099 645 m 0
 345.099 645 382.736 648 446.736 648 c 0
 638.736 648 760.003 494 720.468 308 c 0
 668.179 62 467.575 -2 326.575 -2 c 0
 223.575 -2 215 0 144 0 c 0
 109 0 91.3623 -3 91.3623 -3 c 1
 91 0 l 1
 110.479 54 127.569 125 143.512 200 c 2
 195.588 445 l 2
 211.529 520 223.983 588 228.099 645 c 1
 230.736 648 l 1
 230.736 648 247.099 645 281.099 645 c 0
EndSplineSet
LCarets2: 1 0 
Colour: ff00ff
EndChar

StartChar: uni1E0D
Encoding: 7693 7693 142
Width: 514
VWidth: 999
Flags: HW
HStem: -167 104<244.248 327.458> -10 57<184.507 297.415> -3 21<374 383.667 449.5 458> 394 45<189.467 329.898> 678 20<429.466 445.167>
VStem: 40 85<116.128 302.432> 234 104<-156.458 -73.2479> 361 80<87.1288 364.244 417 667.981>
LayerCount: 2
Fore
SplineSet
210.556 -115 m 0
 216.295 -88 245.396 -64 272.396 -64 c 0
 299.396 -64 318.295 -88 312.556 -115 c 0
 306.817 -142 277.716 -166 250.716 -166 c 0
 223.716 -166 204.817 -142 210.556 -115 c 0
384.169 109 m 1
 432.206 335 l 1
 416.283 373 396.747 394 349.747 394 c 0
 301.348 394 203.858 371 171.975 221 c 0
 145.405 96 199.99 47 253.99 47 c 0
 294.49 47 337.785 62.5 384.169 109 c 1
374.604 64 m 1
 328.72 17.5 263.874 -10 215.874 -10 c 0
 107.874 -10 57.0049 80 83.1494 203 c 0
 112.057 339 240.112 439 370.312 439 c 0
 390.312 439 429.399 430 449.636 417 c 1
 463.452 482 l 2
 479.606 558 492.037 627.3 493.413 670 c 1
 496.051 673 l 1
 537.188 676 563.139 688 590.364 698 c 1
 596.664 698 598.727 695 597.239 688 c 0
 576.509 626.7 563.008 574 547.278 500 c 2
 481.811 192 l 2
 465.869 117 459.14 43 458 0 c 1
 455.362 -3 l 1
 442.787 -1 424.1 0 411.5 0 c 0
 397 0 390.023 -1.2998 376.362 -3 c 0
 370.362 -3 367.575 -2 368 0 c 2
 376.604 64 l 1
 374.604 64 l 1
EndSplineSet
LCarets2: 1 0 
Colour: ff00ff
EndChar

StartChar: uni1E0E
Encoding: 7694 7694 143
Width: 698
VWidth: 999
Flags: HW
HStem: -105 44<144 155 155 422> -2 44<168.546 432.266> 604 44<169.401 389.698>
VStem: 101 86<49.3073 594.385> 552 103<179.784 425.325>
LayerCount: 2
Fore
SplineSet
377.682 -105 m 2
 132.682 -105 l 2
 124.682 -105 122.382 -97 123.87 -90 c 0
 126.421 -78 140.034 -61 152.034 -61 c 2
 397.034 -61 l 2
 406.034 -61 408.546 -68 407.059 -75 c 0
 404.508 -87 390.682 -105 377.682 -105 c 2
204.43 82 m 2
 197.628 50 206.928 42 304.928 42 c 0
 445.928 42 569.43 82 612.366 284 c 0
 645.1 438 615.384 604 399.384 604 c 0
 350.384 604 314.321 599 306.882 564 c 2
 204.43 82 l 2
281.099 645 m 0
 345.099 645 382.736 648 446.736 648 c 0
 638.736 648 760.003 494 720.468 308 c 0
 668.179 62 467.575 -2 326.575 -2 c 0
 223.575 -2 215 0 144 0 c 0
 109 0 91.3623 -3 91.3623 -3 c 1
 91 0 l 1
 110.479 54 127.569 125 143.512 200 c 2
 195.588 445 l 2
 211.529 520 223.983 588 228.099 645 c 1
 230.736 648 l 1
 230.736 648 247.099 645 281.099 645 c 0
EndSplineSet
LCarets2: 1 0 
Colour: ff00ff
EndChar

StartChar: uni1E0F
Encoding: 7695 7695 144
Width: 514
VWidth: 999
Flags: HW
HStem: -109 44<146 157 157 424> -10 57<184.507 297.415> -3 21<374 383.667 449.5 458> 394 45<189.467 329.898> 678 20<429.466 445.167>
VStem: 40 85<116.128 302.432> 361 80<87.1288 364.244 417 667.981>
LayerCount: 2
Fore
SplineSet
378.831 -109 m 2
 133.831 -109 l 2
 125.831 -109 123.532 -101 125.02 -94 c 0
 127.57 -82 141.184 -65 153.184 -65 c 2
 398.184 -65 l 2
 407.184 -65 409.696 -72 408.208 -79 c 0
 405.657 -91 391.831 -109 378.831 -109 c 2
384.169 109 m 1
 432.206 335 l 1
 416.283 373 396.747 394 349.747 394 c 0
 301.348 394 203.858 371 171.975 221 c 0
 145.405 96 199.99 47 253.99 47 c 0
 294.49 47 337.785 62.5 384.169 109 c 1
374.604 64 m 1
 328.72 17.5 263.874 -10 215.874 -10 c 0
 107.874 -10 57.0049 80 83.1494 203 c 0
 112.057 339 240.112 439 370.312 439 c 0
 390.312 439 429.399 430 449.636 417 c 1
 463.452 482 l 2
 479.606 558 492.037 627.3 493.413 670 c 1
 496.051 673 l 1
 537.188 676 563.139 688 590.364 698 c 1
 596.664 698 598.727 695 597.239 688 c 0
 576.509 626.7 563.008 574 547.278 500 c 2
 481.811 192 l 2
 465.869 117 459.14 43 458 0 c 1
 455.362 -3 l 1
 442.787 -1 424.1 0 411.5 0 c 0
 397 0 390.023 -1.2998 376.362 -3 c 0
 370.362 -3 367.575 -2 368 0 c 2
 376.604 64 l 1
 374.604 64 l 1
EndSplineSet
LCarets2: 1 0 
Colour: ff00ff
EndChar

StartChar: uni1E10
Encoding: 7696 7696 145
Width: 698
VWidth: 999
Flags: HW
HStem: -181 25<103.659 200.933> -80 32<173.31 210.165> -2 44<168.546 432.266> 604 44<169.401 389.698>
VStem: 101 86<49.3073 594.385> 217 53<-146.949 -84.278> 552 103<179.784 425.325>
DStem2: 124 -80 173 -51 0.397156 0.917751<46.0754 95.3334>
LayerCount: 2
Fore
SplineSet
163.595 -96 m 0
 144.595 -96 134.382 -97 117.319 -102 c 1
 112.595 -96 l 1
 172.879 -0.0996094 l 1
 164.3 -0 154.9 0 144 0 c 0
 109 0 91.3623 -3 91.3623 -3 c 1
 91 0 l 1
 110.479 54 127.569 125 143.512 200 c 2
 195.588 445 l 2
 211.529 520 223.983 588 228.099 645 c 1
 230.736 648 l 1
 230.736 648 247.099 645 281.099 645 c 0
 345.099 645 382.736 648 446.736 648 c 0
 638.736 648 760.003 494 720.468 308 c 0
 668.179 62 467.575 -2 326.575 -2 c 0
 262.775 -2 235.245 -1.2002 206.673 -0.599609 c 1
 167.759 -67 l 1
 176.184 -65 185.396 -64 194.396 -64 c 0
 234.396 -64 260.295 -88 252.218 -126 c 0
 243.078 -169 190.488 -200 129.488 -200 c 0
 97.4883 -200 81.7637 -194 59.1025 -183 c 1
 61.6523 -171 66.1406 -164 74.6289 -157 c 1
 99.5029 -167 109.652 -171 129.652 -171 c 0
 159.652 -171 183.629 -157 189.155 -131 c 0
 193.619 -110 186.595 -96 163.595 -96 c 0
204.43 82 m 2
 197.628 50 206.928 42 304.928 42 c 0
 445.928 42 569.43 82 612.366 284 c 0
 645.1 438 615.384 604 399.384 604 c 0
 350.384 604 314.321 599 306.882 564 c 2
 204.43 82 l 2
EndSplineSet
LCarets2: 1 0 
Colour: ff00ff
EndChar

StartChar: uni1E11
Encoding: 7697 7697 146
Width: 514
VWidth: 999
Flags: HW
HStem: -177 25<200.659 297.933> -76 32<270.31 307.165> -10 57<184.507 297.415> -3 21<374 383.667 449.5 458> 394 45<189.467 329.898> 678 20<429.466 445.167>
VStem: 40 85<116.128 302.432> 314 53<-142.949 -80.278> 361 80<87.1288 364.244 417 667.981>
DStem2: 221 -76 270 -47 0.397156 0.917751<46.0754 95.3334>
LayerCount: 2
Fore
SplineSet
261.444 -92 m 0
 242.444 -92 232.232 -93 215.17 -98 c 1
 210.444 -92 l 1
 267.502 -1.40039 l 1
 249.291 -7.09961 231.675 -10 215.874 -10 c 0
 107.874 -10 57.0049 80 83.1494 203 c 0
 112.057 339 240.112 439 370.312 439 c 0
 390.312 439 429.399 430 449.636 417 c 1
 463.452 482 l 2
 479.606 558 492.037 627.3 493.413 670 c 1
 496.051 673 l 1
 537.188 676 563.139 688 590.364 698 c 1
 596.664 698 598.727 695 597.239 688 c 0
 576.509 626.7 563.008 574 547.278 500 c 2
 481.811 192 l 2
 465.869 117 459.14 43 458 0 c 1
 455.362 -3 l 1
 442.787 -1 424.1 0 411.5 0 c 0
 397 0 390.023 -1.2998 376.362 -3 c 0
 370.362 -3 367.575 -2 368 0 c 2
 376.604 64 l 1
 374.604 64 l 1
 348.086 37.0996 315.207 16.5 282.851 4 c 1
 304.851 4 l 1
 265.609 -63 l 1
 274.034 -61 283.247 -60 292.247 -60 c 0
 332.247 -60 358.146 -84 350.068 -122 c 0
 340.928 -165 288.339 -196 227.339 -196 c 0
 195.339 -196 179.614 -190 156.952 -179 c 1
 159.503 -167 163.991 -160 172.479 -153 c 1
 197.354 -163 207.503 -167 227.503 -167 c 0
 257.503 -167 281.479 -153 287.005 -127 c 0
 291.469 -106 284.444 -92 261.444 -92 c 0
384.169 109 m 1
 432.206 335 l 1
 416.283 373 396.747 394 349.747 394 c 0
 301.348 394 203.858 371 171.975 221 c 0
 145.405 96 199.99 47 253.99 47 c 0
 294.49 47 337.785 62.5 384.169 109 c 1
EndSplineSet
LCarets2: 1 0 
Colour: ff00ff
EndChar

StartChar: uni1E12
Encoding: 7698 7698 147
Width: 698
VWidth: 999
Flags: HW
HStem: -2 44<168.546 432.266> 604 44<169.401 389.698>
VStem: 101 86<49.3073 594.385> 140 253<-186 -186> 552 103<179.784 425.325>
LayerCount: 2
Fore
SplineSet
279.885 -57 m 1
 298.895 -104 325.967 -146 353.465 -186 c 1
 329.488 -200 l 1
 296.652 -171 268.967 -146 242.619 -110 c 1
 197.542 -148 160.228 -173 116.488 -200 c 1
 99.4648 -186 l 1
 143.967 -146 191.106 -103 229.885 -57 c 1
 279.885 -57 l 1
204.43 82 m 2
 197.628 50 206.928 42 304.928 42 c 0
 445.928 42 569.43 82 612.366 284 c 0
 645.1 438 615.384 604 399.384 604 c 0
 350.384 604 314.321 599 306.882 564 c 2
 204.43 82 l 2
281.099 645 m 0
 345.099 645 382.736 648 446.736 648 c 0
 638.736 648 760.003 494 720.468 308 c 0
 668.179 62 467.575 -2 326.575 -2 c 0
 223.575 -2 215 0 144 0 c 0
 109 0 91.3623 -3 91.3623 -3 c 1
 91 0 l 1
 110.479 54 127.569 125 143.512 200 c 2
 195.588 445 l 2
 211.529 520 223.983 588 228.099 645 c 1
 230.736 648 l 1
 230.736 648 247.099 645 281.099 645 c 0
EndSplineSet
LCarets2: 1 0 
Colour: ff00ff
EndChar

StartChar: uni1E13
Encoding: 7699 7699 148
Width: 514
VWidth: 999
Flags: HW
HStem: -10 57<184.507 297.415> -3 21<374 383.667 449.5 458> 394 45<189.467 329.898> 678 20<429.466 445.167>
VStem: 40 85<116.128 302.432> 140 253<-186 -186> 361 80<87.1288 364.244 417 667.981>
LayerCount: 2
Fore
SplineSet
279.885 -57 m 1
 298.895 -104 325.967 -146 353.465 -186 c 1
 329.488 -200 l 1
 296.652 -171 268.967 -146 242.619 -110 c 1
 197.542 -148 160.228 -173 116.488 -200 c 1
 99.4648 -186 l 1
 143.967 -146 191.106 -103 229.885 -57 c 1
 279.885 -57 l 1
384.169 109 m 1
 432.206 335 l 1
 416.283 373 396.747 394 349.747 394 c 0
 301.348 394 203.858 371 171.975 221 c 0
 145.405 96 199.99 47 253.99 47 c 0
 294.49 47 337.785 62.5 384.169 109 c 1
374.604 64 m 1
 328.72 17.5 263.874 -10 215.874 -10 c 0
 107.874 -10 57.0049 80 83.1494 203 c 0
 112.057 339 240.112 439 370.312 439 c 0
 390.312 439 429.399 430 449.636 417 c 1
 463.452 482 l 2
 479.606 558 492.037 627.3 493.413 670 c 1
 496.051 673 l 1
 537.188 676 563.139 688 590.364 698 c 1
 596.664 698 598.727 695 597.239 688 c 0
 576.509 626.7 563.008 574 547.278 500 c 2
 481.811 192 l 2
 465.869 117 459.14 43 458 0 c 1
 455.362 -3 l 1
 442.787 -1 424.1 0 411.5 0 c 0
 397 0 390.023 -1.2998 376.362 -3 c 0
 370.362 -3 367.575 -2 368 0 c 2
 376.604 64 l 1
 374.604 64 l 1
EndSplineSet
LCarets2: 1 0 
Colour: ff00ff
EndChar

StartChar: uni1E14
Encoding: 7700 7700 149
Width: 522
VWidth: 999
Flags: HW
HStem: 0 54<186.656 409.594> 321 42<182 388.188> 596 49<186.656 403.188> 733 44<164.094 442.5>
VStem: 96 86<55.2087 321 363 594.385> 163 281<733.205 777>
LayerCount: 2
Fore
SplineSet
575.804 733 m 2
 331.804 733 l 2
 322.804 733 320.504 741 321.992 748 c 0
 324.543 760 339.156 777 350.156 777 c 2
 595.156 777 l 2
 605.156 777 607.456 769 606.181 763 c 0
 603.63 751 588.804 733 575.804 733 c 2
224.512 200 m 2
 220.897 183 199.579 78 201.479 54 c 1
 335.479 54 486.028 66 486.028 66 c 1
 487.179 62 l 1
 484.479 54 480.29 39 478.164 29 c 0
 476.039 19 475.976 14 474 0 c 1
 471.362 -3 l 1
 455.787 -1 433 0 412 0 c 2
 139 0 l 2
 104 0 86.3623 -3 86.3623 -3 c 1
 86 0 l 1
 105.479 54 122.569 125 138.512 200 c 2
 190.588 445 l 2
 206.529 520 218.983 588 223.099 645 c 1
 225.736 648 l 1
 225.736 648 242.099 645 276.099 645 c 0
 306.099 645 539.099 645 539.099 645 c 2
 560.099 645 583.312 646 599.736 648 c 1
 601.099 645 l 1
 597.123 631 594.21 622 592.51 614 c 0
 590.597 605 589.684 596 588.983 588 c 1
 586.133 584 l 1
 586.133 584 450.684 596 316.684 596 c 1
 304.582 572 280.201 462 276.588 445 c 2
 259.158 363 l 1
 377.158 363 424.221 368 484.283 373 c 1
 486.646 370 l 1
 482.732 361 479.607 351 477.694 342 c 0
 475.781 333 474.656 323 474.743 314 c 1
 471.105 311 l 1
 403.593 318 298.23 321 250.23 321 c 1
 224.512 200 l 2
197.556 831.1 m 1
 275.048 757.2 l 2
 282.06 750.2 283.934 744.9 282.615 738.7 c 0
 281.128 731.7 274.51 725.5 268.31 725.5 c 0
 262.109 725.5 251.963 728.1 237.441 736 c 2
 130.639 791.5 l 1
 148.055 807.1 169.088 820.9 197.556 831.1 c 1
EndSplineSet
LCarets2: 1 0 
Colour: ff00ff
EndChar

StartChar: uni1E15
Encoding: 7701 7701 150
Width: 442
VWidth: 999
Flags: HW
HStem: -10 59<197.345 335.48> 243 44<125 319.997> 399 40<175.584 290.389> 538 44<91.0876 369.515>
VStem: 34 88<132.133 243> 90 281<538.205 582> 320 89<254.5 358.106>
LayerCount: 2
Fore
SplineSet
374.849 765.2 m 1
 406.744 651.8 l 2
 408.831 642.8 408.292 636.5 406.953 630.2 c 0
 405.997 625.7 399.249 620.3 392.849 620.3 c 0
 388.049 620.3 383.405 624.8 373.475 638.3 c 2
 303.127 736.4 l 1
 306.831 746.3 l 1
 314.379 751.7 336.031 767 363.23 767 c 0
 367.23 767 371.84 766.1 374.849 765.2 c 1
461.355 538 m 2
 217.355 538 l 2
 208.355 538 206.056 546 207.544 553 c 0
 210.095 565 224.708 582 235.708 582 c 2
 480.708 582 l 2
 490.708 582 493.008 574 491.732 568 c 0
 489.182 556 474.355 538 461.355 538 c 2
186.004 287 m 1
 367.004 287 l 2
 377.004 287 382.066 292 383.979 301 c 0
 399.921 376 359.811 399 323.811 399 c 0
 300.811 399 225.109 391 186.004 287 c 1
418.318 105 m 1
 432.792 79 l 1
 383.739 27 314.874 -10 242.874 -10 c 0
 105.874 -10 51.8545 84 76.2988 199 c 0
 108.607 351 237.312 439 332.312 439 c 0
 464.312 439 482.119 344 464.265 260 c 0
 461.927 249 453.651 243 442.651 243 c 2
 173.651 243 l 1
 141.98 94 219.415 49 275.415 49 c 0
 330.415 49 375.241 67 418.318 105 c 1
EndSplineSet
LCarets2: 1 0 
Colour: ff00ff
EndChar

StartChar: uni1E16
Encoding: 7702 7702 151
Width: 522
VWidth: 999
Flags: HW
HStem: 0 54<186.656 409.594> 321 42<182 388.188> 596 49<186.656 403.188> 724.5 107.4 733 44<107.094 385.5>
VStem: 96 86<55.2087 321 363 594.385> 106 281<733.205 777> 428.1 154.8
LayerCount: 2
Fore
SplineSet
518.804 733 m 2
 274.804 733 l 2
 265.804 733 263.504 741 264.992 748 c 0
 267.543 760 282.156 777 293.156 777 c 2
 538.156 777 l 2
 548.156 777 550.456 769 549.181 763 c 0
 546.63 751 531.804 733 518.804 733 c 2
224.512 200 m 2
 220.897 183 199.579 78 201.479 54 c 1
 335.479 54 486.028 66 486.028 66 c 1
 487.179 62 l 1
 484.479 54 480.29 39 478.164 29 c 0
 476.039 19 475.976 14 474 0 c 1
 471.362 -3 l 1
 455.787 -1 433 0 412 0 c 2
 139 0 l 2
 104 0 86.3623 -3 86.3623 -3 c 1
 86 0 l 1
 105.479 54 122.569 125 138.512 200 c 2
 190.588 445 l 2
 206.529 520 218.983 588 223.099 645 c 1
 225.736 648 l 1
 225.736 648 242.099 645 276.099 645 c 0
 306.099 645 539.099 645 539.099 645 c 2
 560.099 645 583.312 646 599.736 648 c 1
 601.099 645 l 1
 597.123 631 594.21 622 592.51 614 c 0
 590.597 605 589.684 596 588.983 588 c 1
 586.133 584 l 1
 586.133 584 450.684 596 316.684 596 c 1
 304.582 572 280.201 462 276.588 445 c 2
 259.158 363 l 1
 377.158 363 424.221 368 484.283 373 c 1
 486.646 370 l 1
 482.732 361 479.607 351 477.694 342 c 0
 475.781 333 474.656 323 474.743 314 c 1
 471.105 311 l 1
 403.593 318 298.23 321 250.23 321 c 1
 224.512 200 l 2
711.926 831.9 m 1
 731.539 820.2 744.087 804.9 749.891 786.1 c 1
 628.229 735 l 2
 610.35 727.1 600.497 724.5 593.598 724.5 c 0
 586.697 724.5 583.415 730.7 584.903 737.7 c 0
 586.221 743.9 588.656 748.3 600.335 756.2 c 2
 711.926 831.9 l 1
EndSplineSet
LCarets2: 1 0 
Colour: ff00ff
EndChar

StartChar: uni1E17
Encoding: 7703 7703 152
Width: 442
VWidth: 999
Flags: HW
HStem: -10 59<197.345 335.48> 243 44<125 319.997> 399 40<175.584 290.389> 538 44<91.0876 369.515>
VStem: 34 88<132.133 243> 90 281<538.205 582> 320 89<254.5 358.106>
LayerCount: 2
Fore
SplineSet
425.772 759.2 m 1
 428.364 760.1 433.355 761 437.355 761 c 0
 442.455 761 462.765 760.1 476.956 740.3 c 1
 477.251 730.4 l 1
 364.399 632.3 l 2
 349.53 618.8 342.365 615.2 336.765 615.2 c 0
 331.165 615.2 326.713 620.6 328.052 626.9 c 0
 330.198 637 333.664 640.6 342.608 652.1 c 2
 425.772 759.2 l 1
461.355 538 m 2
 217.355 538 l 2
 208.355 538 206.056 546 207.544 553 c 0
 210.095 565 224.708 582 235.708 582 c 2
 480.708 582 l 2
 490.708 582 493.008 574 491.732 568 c 0
 489.182 556 474.355 538 461.355 538 c 2
186.004 287 m 1
 367.004 287 l 2
 377.004 287 382.066 292 383.979 301 c 0
 399.921 376 359.811 399 323.811 399 c 0
 300.811 399 225.109 391 186.004 287 c 1
418.318 105 m 1
 432.792 79 l 1
 383.739 27 314.874 -10 242.874 -10 c 0
 105.874 -10 51.8545 84 76.2988 199 c 0
 108.607 351 237.312 439 332.312 439 c 0
 464.312 439 482.119 344 464.265 260 c 0
 461.927 249 453.651 243 442.651 243 c 2
 173.651 243 l 1
 141.98 94 219.415 49 275.415 49 c 0
 330.415 49 375.241 67 418.318 105 c 1
EndSplineSet
LCarets2: 1 0 
Colour: ff00ff
EndChar

StartChar: uni1E18
Encoding: 7704 7704 153
Width: 522
VWidth: 999
Flags: HW
HStem: 0 54<186.656 409.594> 321 42<182 388.188> 596 49<186.656 403.188>
VStem: 96 86<55.2087 321 363 594.385> 148 253<-186 -186>
LayerCount: 2
Fore
SplineSet
287.885 -57 m 1
 306.895 -104 333.967 -146 361.465 -186 c 1
 337.488 -200 l 1
 304.652 -171 276.967 -146 250.619 -110 c 1
 205.542 -148 168.228 -173 124.488 -200 c 1
 107.465 -186 l 1
 151.967 -146 199.106 -103 237.885 -57 c 1
 287.885 -57 l 1
224.512 200 m 2
 220.897 183 199.579 78 201.479 54 c 1
 335.479 54 486.028 66 486.028 66 c 1
 487.179 62 l 1
 484.479 54 480.29 39 478.164 29 c 0
 476.039 19 475.976 14 474 0 c 1
 471.362 -3 l 1
 455.787 -1 433 0 412 0 c 2
 139 0 l 2
 104 0 86.3623 -3 86.3623 -3 c 1
 86 0 l 1
 105.479 54 122.569 125 138.512 200 c 2
 190.588 445 l 2
 206.529 520 218.983 588 223.099 645 c 1
 225.736 648 l 1
 225.736 648 242.099 645 276.099 645 c 0
 306.099 645 539.099 645 539.099 645 c 2
 560.099 645 583.312 646 599.736 648 c 1
 601.099 645 l 1
 597.123 631 594.21 622 592.51 614 c 0
 590.597 605 589.684 596 588.983 588 c 1
 586.133 584 l 1
 586.133 584 450.684 596 316.684 596 c 1
 304.582 572 280.201 462 276.588 445 c 2
 259.158 363 l 1
 377.158 363 424.221 368 484.283 373 c 1
 486.646 370 l 1
 482.732 361 479.607 351 477.694 342 c 0
 475.781 333 474.656 323 474.743 314 c 1
 471.105 311 l 1
 403.593 318 298.23 321 250.23 321 c 1
 224.512 200 l 2
EndSplineSet
LCarets2: 1 0 
Colour: ff00ff
EndChar

StartChar: uni1E19
Encoding: 7705 7705 154
Width: 442
VWidth: 999
Flags: HW
HStem: -10 59<197.345 335.48> 243 44<125 319.997> 399 40<175.584 290.389>
VStem: 34 88<132.133 243> 95 253<-186 -186> 320 89<254.5 358.106>
LayerCount: 2
Fore
SplineSet
234.885 -57 m 1
 253.895 -104 280.967 -146 308.465 -186 c 1
 284.488 -200 l 1
 251.652 -171 223.967 -146 197.619 -110 c 1
 152.542 -148 115.228 -173 71.4883 -200 c 1
 54.4648 -186 l 1
 98.9668 -146 146.106 -103 184.885 -57 c 1
 234.885 -57 l 1
186.004 287 m 1
 367.004 287 l 2
 377.004 287 382.066 292 383.979 301 c 0
 399.921 376 359.811 399 323.811 399 c 0
 300.811 399 225.109 391 186.004 287 c 1
418.318 105 m 1
 432.792 79 l 1
 383.739 27 314.874 -10 242.874 -10 c 0
 105.874 -10 51.8545 84 76.2988 199 c 0
 108.607 351 237.312 439 332.312 439 c 0
 464.312 439 482.119 344 464.265 260 c 0
 461.927 249 453.651 243 442.651 243 c 2
 173.651 243 l 1
 141.98 94 219.415 49 275.415 49 c 0
 330.415 49 375.241 67 418.318 105 c 1
EndSplineSet
LCarets2: 1 0 
Colour: ff00ff
EndChar

StartChar: uni1E1A
Encoding: 7706 7706 155
Width: 522
VWidth: 999
Flags: HW
HStem: -164 44<285 372> -116 46<167 258> -77 10 0 54<186.656 409.594> 321 42<182 388.188> 596 49<186.656 403.188>
VStem: 96 86<55.2087 321 363 594.385>
LayerCount: 2
Fore
SplineSet
310.493 -120 m 0
 332.493 -120 348.619 -110 371.546 -68 c 1
 394.271 -74 l 1
 369.518 -134 334.141 -164 288.141 -164 c 0
 266.141 -164 247.691 -152 229.667 -138 c 0
 214.005 -127 197.344 -116 180.344 -116 c 0
 154.344 -116 138.155 -131 121.141 -164 c 1
 98.2031 -159 l 1
 124.744 -100 154.121 -70 197.121 -70 c 0
 227.121 -70 246.146 -84 263.17 -98 c 0
 276.619 -110 291.493 -120 310.493 -120 c 0
224.512 200 m 2
 220.897 183 199.579 78 201.479 54 c 1
 335.479 54 486.028 66 486.028 66 c 1
 487.179 62 l 1
 484.479 54 480.29 39 478.164 29 c 0
 476.039 19 475.976 14 474 0 c 1
 471.362 -3 l 1
 455.787 -1 433 0 412 0 c 2
 139 0 l 2
 104 0 86.3623 -3 86.3623 -3 c 1
 86 0 l 1
 105.479 54 122.569 125 138.512 200 c 2
 190.588 445 l 2
 206.529 520 218.983 588 223.099 645 c 1
 225.736 648 l 1
 225.736 648 242.099 645 276.099 645 c 0
 306.099 645 539.099 645 539.099 645 c 2
 560.099 645 583.312 646 599.736 648 c 1
 601.099 645 l 1
 597.123 631 594.21 622 592.51 614 c 0
 590.597 605 589.684 596 588.983 588 c 1
 586.133 584 l 1
 586.133 584 450.684 596 316.684 596 c 1
 304.582 572 280.201 462 276.588 445 c 2
 259.158 363 l 1
 377.158 363 424.221 368 484.283 373 c 1
 486.646 370 l 1
 482.732 361 479.607 351 477.694 342 c 0
 475.781 333 474.656 323 474.743 314 c 1
 471.105 311 l 1
 403.593 318 298.23 321 250.23 321 c 1
 224.512 200 l 2
EndSplineSet
LCarets2: 1 0 
Colour: ff00ff
EndChar

StartChar: uni1E1B
Encoding: 7707 7707 156
Width: 442
VWidth: 999
Flags: HW
HStem: -162 44<237 324> -114 46<119 210> -75 10 -10 59<197.345 335.48> 243 44<125 319.997> 399 40<175.584 290.389>
VStem: 34 88<132.133 243> 320 89<254.5 358.106>
LayerCount: 2
Fore
SplineSet
262.918 -118 m 0
 284.918 -118 301.044 -108 323.972 -66 c 1
 346.696 -72 l 1
 321.942 -132 286.565 -162 240.565 -162 c 0
 218.565 -162 200.116 -150 182.093 -136 c 0
 166.431 -125 149.769 -114 132.769 -114 c 0
 106.769 -114 90.5801 -129 73.5654 -162 c 1
 50.6289 -157 l 1
 77.1699 -98 106.546 -68 149.546 -68 c 0
 179.546 -68 198.57 -82 215.595 -96 c 0
 229.044 -108 243.918 -118 262.918 -118 c 0
186.004 287 m 1
 367.004 287 l 2
 377.004 287 382.066 292 383.979 301 c 0
 399.921 376 359.811 399 323.811 399 c 0
 300.811 399 225.109 391 186.004 287 c 1
418.318 105 m 1
 432.792 79 l 1
 383.739 27 314.874 -10 242.874 -10 c 0
 105.874 -10 51.8545 84 76.2988 199 c 0
 108.607 351 237.312 439 332.312 439 c 0
 464.312 439 482.119 344 464.265 260 c 0
 461.927 249 453.651 243 442.651 243 c 2
 173.651 243 l 1
 141.98 94 219.415 49 275.415 49 c 0
 330.415 49 375.241 67 418.318 105 c 1
EndSplineSet
LCarets2: 1 0 
Colour: ff00ff
EndChar

StartChar: uni1E1C
Encoding: 7708 7708 157
Width: 522
VWidth: 999
Flags: HW
HStem: -181 25<194.656 291.938> -80 32<264.312 301.156> 0 54<186.656 409.594> 321 42<182 388.188> 596 49<186.656 403.188> 692 52<221 377>
VStem: 96 86<55.2087 321 363 594.385> 164 28<765 803> 308 53<-146.949 -84.278> 408 27<767 805>
DStem2: 215 -80 264 -51 0.397156 0.917751<46.0754 95.3334>
LayerCount: 2
Fore
SplineSet
607.108 805 m 1
 586.017 734 513.089 692 447.089 692 c 0
 374.089 692 325.229 735 335.108 805 c 1
 363.108 805 l 1
 362.818 766 405.143 744 458.143 744 c 0
 507.143 744 563.818 766 579.108 805 c 1
 607.108 805 l 1
254.595 -96 m 0
 235.595 -96 225.382 -97 208.319 -102 c 1
 203.595 -96 l 1
 264 0 l 1
 139 0 l 2
 104 0 86.3623 -3 86.3623 -3 c 1
 86 0 l 1
 105.479 54 122.569 125 138.512 200 c 2
 190.588 445 l 2
 206.529 520 218.983 588 223.099 645 c 1
 225.736 648 l 1
 225.736 648 242.099 645 276.099 645 c 0
 306.099 645 539.099 645 539.099 645 c 2
 560.099 645 583.312 646 599.736 648 c 1
 601.099 645 l 1
 597.123 631 594.21 622 592.51 614 c 0
 590.597 605 589.684 596 588.983 588 c 1
 586.133 584 l 1
 586.133 584 450.684 596 316.684 596 c 1
 304.582 572 280.201 462 276.588 445 c 2
 259.158 363 l 1
 377.158 363 424.221 368 484.283 373 c 1
 486.646 370 l 1
 482.732 361 479.607 351 477.694 342 c 0
 475.781 333 474.656 323 474.743 314 c 1
 471.105 311 l 1
 403.593 318 298.23 321 250.23 321 c 1
 224.512 200 l 2
 220.897 183 199.579 78 201.479 54 c 1
 335.479 54 486.028 66 486.028 66 c 1
 487.179 62 l 1
 484.479 54 480.29 39 478.164 29 c 0
 476.039 19 475.976 14 474 0 c 1
 471.362 -3 l 1
 455.787 -1 433 0 412 0 c 2
 298 0 l 1
 258.759 -67 l 1
 267.184 -65 276.396 -64 285.396 -64 c 0
 325.396 -64 351.295 -88 343.218 -126 c 0
 334.078 -169 281.488 -200 220.488 -200 c 0
 188.488 -200 172.764 -194 150.103 -183 c 1
 152.652 -171 157.141 -164 165.629 -157 c 1
 190.503 -167 200.652 -171 220.652 -171 c 0
 250.652 -171 274.629 -157 280.155 -131 c 0
 284.619 -110 277.595 -96 254.595 -96 c 0
EndSplineSet
LCarets2: 1 0 
Colour: ff00ff
EndChar

StartChar: uni1E1D
Encoding: 7709 7709 158
Width: 442
VWidth: 999
Flags: HW
HStem: -186 25<148.659 245.933> -85 32<218.31 255.165> -10 59<197.345 335.48> 243 44<125 319.997> 399 40<175.584 290.389> 501 57<150.968 287.898>
VStem: 34 88<132.133 243> 85 26<607.805 639.769> 262 53<-151.949 -89.278> 320 89<254.5 358.106> 328 27<609.333 639.63>
DStem2: 169 -85 218 -56 0.397156 0.917751<46.0754 95.3334>
LayerCount: 2
Fore
SplineSet
249.736 648 m 1
 249.471 595 284.606 558 338.606 558 c 0
 390.606 558 443.408 590 465.736 648 c 1
 490.186 636 l 1
 459.906 550 385.491 501 326.491 501 c 0
 256.491 501 216.119 551 220.186 636 c 1
 249.736 648 l 1
207.532 -101 m 0
 188.532 -101 178.319 -102 161.257 -107 c 1
 156.532 -101 l 1
 214.672 -8.59961 l 1
 98.5654 3.59961 53.5977 92.2002 76.2988 199 c 0
 108.607 351 237.312 439 332.312 439 c 0
 464.312 439 482.119 344 464.265 260 c 0
 461.927 249 453.651 243 442.651 243 c 2
 173.651 243 l 1
 141.98 94 219.415 49 275.415 49 c 0
 330.415 49 375.241 67 418.318 105 c 1
 432.792 79 l 1
 384.895 28.2002 318.257 -8.2002 248.096 -9.90039 c 1
 211.696 -72 l 1
 220.121 -70 229.334 -69 238.334 -69 c 0
 278.334 -69 304.232 -93 296.155 -131 c 0
 287.016 -174 234.426 -205 173.426 -205 c 0
 141.426 -205 125.701 -199 103.039 -188 c 1
 105.59 -176 110.078 -169 118.565 -162 c 1
 143.44 -172 153.59 -176 173.59 -176 c 0
 203.59 -176 227.565 -162 233.093 -136 c 0
 237.556 -115 230.532 -101 207.532 -101 c 0
186.004 287 m 1
 367.004 287 l 2
 377.004 287 382.066 292 383.979 301 c 0
 399.921 376 359.811 399 323.811 399 c 0
 300.811 399 225.109 391 186.004 287 c 1
EndSplineSet
LCarets2: 1 0 
Colour: ff00ff
EndChar

StartChar: uni1E1E
Encoding: 7710 7710 159
Width: 477
VWidth: 999
Flags: HW
HStem: -3 21<88 141 141 194> 321 42<184 390.196> 596 49<188.662 405.195> 700 104<243.248 326.458>
VStem: 98 86<2.67992 321 363 594.385> 233 104<710.542 793.752>
LayerCount: 2
Fore
SplineSet
393.843 752 m 0
 399.582 779 428.683 803 455.683 803 c 0
 482.683 803 501.582 779 495.843 752 c 0
 490.104 725 461.002 701 434.002 701 c 0
 407.002 701 388.104 725 393.843 752 c 0
538.099 645 m 2
 562.099 645 585.312 646 601.736 648 c 1
 603.099 645 l 1
 599.123 631 596.21 622 594.51 614 c 0
 592.597 605 591.684 596 590.983 588 c 1
 588.133 584 l 1
 588.133 584 452.684 596 318.684 596 c 1
 306.582 572 282.201 462 278.588 445 c 2
 261.158 363 l 1
 379.158 363 426.221 368 486.283 373 c 1
 488.646 370 l 1
 484.732 361 481.607 351 479.694 342 c 0
 477.781 333 476.656 323 476.743 314 c 1
 473.105 311 l 1
 405.593 318 300.23 321 252.23 321 c 1
 226.512 200 l 2
 210.569 125 198.115 57 194 0 c 1
 191.362 -3 l 1
 191.362 -3 175 0 141 0 c 0
 106 0 88.3623 -3 88.3623 -3 c 1
 88 0 l 1
 107.479 54 124.569 125 140.512 200 c 2
 192.588 445 l 2
 208.529 520 220.983 588 225.099 645 c 1
 227.736 648 l 1
 227.736 648 244.099 645 278.099 645 c 2
 538.099 645 l 2
EndSplineSet
LCarets2: 1 0 
Colour: ff00ff
EndChar

StartChar: uni1E1F
Encoding: 7711 7711 160
Width: 308
VWidth: 999
Flags: HW
HStem: -3 21<83 133 133 183> 385 44<22 93 173 289> 638 60<212.167 319.107> 732 104<212.248 295.458>
VStem: 93 80<2.67975 385 429 572.061> 202 104<742.542 825.752>
LayerCount: 2
Fore
SplineSet
369.645 784 m 0
 375.384 811 404.484 835 431.484 835 c 0
 458.484 835 477.384 811 471.645 784 c 0
 465.905 757 436.804 733 409.804 733 c 0
 382.804 733 363.905 757 369.645 784 c 0
280.21 622 m 0
 326.625 671 387.364 698 450.364 698 c 0
 469.364 698 486.515 694 493.451 689 c 1
 493.813 686 l 1
 478.775 667 461.123 631 448.384 604 c 1
 437.172 603 l 1
 430.423 623 415.611 638 386.611 638 c 0
 329.312 638 293.451 590.2 281.718 535 c 0
 277.892 517 274.177 476 266.312 439 c 2
 264.187 429 l 1
 372.187 429 l 2
 377.187 429 379.762 427 378.911 423 c 2
 373.598 398 l 2
 371.685 389 356.834 385 347.834 385 c 2
 254.834 385 l 1
 215.512 200 l 2
 199.527 124.8 186.615 57 183 0 c 1
 180.362 -3 l 1
 180.362 -3 167.3 0 133 0 c 0
 98 0 83.3623 -3 83.3623 -3 c 1
 83 0 l 1
 102.872 53.5 119.676 125.5 135.512 200 c 2
 174.834 385 l 1
 108.834 385 l 2
 104.834 385 104.047 386 105.109 391 c 2
 108.936 409 l 2
 110.636 417 118.187 429 136.187 429 c 2
 184.187 429 l 1
 192.689 469 l 2
 209.269 547 233.795 573 280.21 622 c 0
EndSplineSet
LCarets2: 1 0 
Colour: ff00ff
EndChar

StartChar: uni1E20
Encoding: 7712 7712 161
Width: 699
VWidth: 999
Flags: HW
HStem: -10 46<295.106 519.78> 611 47<271.555 476.844> 733 44<227.088 505.515>
VStem: 32 103<213.43 430.807> 226 281<733.205 777> 546 86<83.5114 304.327>
LayerCount: 2
Fore
SplineSet
638.804 733 m 2
 394.804 733 l 2
 385.804 733 383.504 741 384.992 748 c 0
 387.543 760 402.156 777 413.156 777 c 2
 658.156 777 l 2
 668.156 777 670.456 769 669.181 763 c 0
 666.63 751 651.804 733 638.804 733 c 2
570.869 117 m 1
 585.311 192 597.139 250 601.255 307 c 1
 603.893 310 l 1
 603.893 310 620.255 307 654.255 307 c 0
 689.255 307 706.893 310 706.893 310 c 1
 707.255 307 l 1
 687.989 254 677.062 212 661.12 137 c 2
 659.845 131 l 2
 657.507 120 653.217 93.7002 659.643 83 c 1
 659.005 80 l 1
 579.474 23.4004 490.374 -10 373.874 -10 c 0
 172.874 -10 60.4824 134 97.2549 307 c 0
 144.018 527 348.862 658 520.862 658 c 0
 642.862 658 729.297 613 729.297 613 c 1
 730.659 610 l 1
 708.381 560.7 701.506 550 687.065 499 c 1
 676.854 498 l 1
 653.283 580 586.872 611 496.872 611 c 0
 361.872 611 241.703 502 204.506 327 c 0
 176.448 195 228.652 36 406.652 36 c 0
 460.652 36 520.928 42 561.729 74 c 1
 570.869 117 l 1
EndSplineSet
LCarets2: 1 0 
Colour: ff00ff
EndChar

